<svg xmlns="http://www.w3.org/2000/svg" data-name="Capa 1" viewBox="0 0 179.21 156.23"><rect width="100%" height="100%" fill="none"/><g class="cuadrado_rallado_svg__currentLayer"><path d="M31.85 156.88h115.51a21.05 21.05 0 008.14-1.64H23.71a21.05 21.05 0 008.14 1.64zM147.36-.64H31.85A21 21 0 0024.78.58h129.64a20.86 20.86 0 00-7.06-1.22zM154.42.58H24.78A21 21 0 0010.85 20.3h157.51A21 21 0 00154.42.58zM10.84 34.31h157.52v19.72H10.84zM168.36 135.87v-.35H10.84v.35a21 21 0 0012.87 19.37H155.5a21 21 0 0012.86-19.37zM10.84 101.78h157.52v19.72H10.84zM10.84 68.05h157.52v19.72H10.84z" class="cuadrado_rallado_svg__selected" fill="#4a90d6"/></g></svg>