<svg xmlns="http://www.w3.org/2000/svg" data-name="Capa 1" viewBox="0 0 179.21 156.23"><rect width="100%" height="100%" fill="none"/><g class="cuadrado_moteado_svg__currentLayer"><path d="M142.25 137.8a19 19 0 0012.1 17.68A20.91 20.91 0 00168 135.86v-15.78a19 19 0 00-25.77 17.72zM132.45 137.8a19 19 0 10-19 19 19 19 0 0019-19zM84.71 137.8a19 19 0 10-19 19 19 19 0 0019-19zM37 137.8a19 19 0 00-25.77-17.72v15.78a20.91 20.91 0 0013.67 19.62A19 19 0 0037 137.8zM168 107.89V91.32a19 19 0 000 16.57zM118.37 99.6a19 19 0 1019-19 19 19 0 00-19 19zM70.63 99.6a19 19 0 1019-19 19 19 0 00-19 19zM22.88 99.6a19 19 0 1019-19 19 19 0 00-19 19zM11.19 91.32v16.56a18.83 18.83 0 001.9-8.28 18.83 18.83 0 00-1.9-8.28zM142.25 56.63A19 19 0 00168 74.35V38.91a19 19 0 00-25.77 17.72z" class="cuadrado_moteado_svg__selected" fill="#4a90d6"/><circle cx="113.48" cy="56.63" r="18.98" class="cuadrado_moteado_svg__selected" fill="#4a90d6"/><path d="M65.73 75.61a19 19 0 10-19-19 19 19 0 0019 19zM37 56.63a19 19 0 00-25.81-17.72v35.44A19 19 0 0037 56.63zM168 26.72v-5.86a20.87 20.87 0 00-1.29-7.23A19.09 19.09 0 00168 26.72zM118.37 18.44A19 19 0 10141.6-.06h-8.5a19 19 0 00-14.73 18.5zM70.63 18.44A19 19 0 1093.86-.06h-8.51a19 19 0 00-14.72 18.5zM22.88 18.44A19 19 0 1046.11-.06h-8.5a19 19 0 00-14.73 18.5zM11.19 26.72a18.86 18.86 0 001.9-8.28 19 19 0 00-.61-4.81 20.64 20.64 0 00-1.29 7.23z" class="cuadrado_moteado_svg__selected" fill="#4a90d6"/></g></svg>