<svg id="Capa_1" data-name="Capa 1" xmlns="http://www.w3.org/2000/svg" viewBox="0 0 179.21 156.23"><path d="M94.5,1.48a19.08,19.08,0,0,0-9.8,0c1.62-.1,3.26-.16,4.9-.16S92.88,1.38,94.5,1.48Z" style="fill:#ef4c23"/><path d="M142.35,137.93a79,79,0,0,0,14.11-17A19,19,0,0,0,142.35,137.93Z" style="fill:#643e64"/><path d="M113.5,120.31a19,19,0,0,0-7.77,36.32,78,78,0,0,0,25.37-10.2,19,19,0,0,0-17.6-26.12Z" style="fill:#643e64"/><path d="M84.7,139.3a19,19,0,0,0-38,0,18.79,18.79,0,0,0,1.39,7.13,77.9,77.9,0,0,0,25.37,10.2A19,19,0,0,0,84.7,139.3Z" style="fill:#643e64"/><path d="M22.74,120.93a79,79,0,0,0,14.12,17A19,19,0,0,0,22.74,120.93Z" style="fill:#643e64"/><path d="M118.4,101.07a19,19,0,1,0,19-19A19,19,0,0,0,118.4,101.07Z" style="fill:#643e64"/><path d="M70.61,101.07a19,19,0,1,0,19-19A19,19,0,0,0,70.61,101.07Z" style="fill:#643e64"/><path d="M41.82,82.08a19,19,0,1,0,19,19A19,19,0,0,0,41.82,82.08Z" style="fill:#643e64"/><path d="M142.29,58.06A19,19,0,0,0,168,75.83a78,78,0,0,0-11-36.27A19,19,0,0,0,142.29,58.06Z" style="fill:#643e64"/><path d="M113.5,77.05a19,19,0,1,0-19-19A19,19,0,0,0,113.5,77.05Z" style="fill:#643e64"/><path d="M46.72,58.06a19,19,0,1,0,19-19A19,19,0,0,0,46.72,58.06Z" style="fill:#643e64"/><path d="M36.91,58.06a19,19,0,0,0-14.7-18.5,78.11,78.11,0,0,0-11,36.27A19,19,0,0,0,36.91,58.06Z" style="fill:#643e64"/><path d="M137.39,38.82a19,19,0,0,0,14.51-6.74A78.59,78.59,0,0,0,122.22,8.41a19,19,0,0,0,15.17,30.41Z" style="fill:#643e64"/><path d="M70.61,19.83A19,19,0,1,0,94.5,1.48c-1.62-.1-3.25-.16-4.9-.16s-3.28.06-4.9.16A19,19,0,0,0,70.61,19.83Z" style="fill:#643e64"/><path d="M27.3,32.08A19,19,0,0,0,57,8.41,78.62,78.62,0,0,0,27.3,32.08Z" style="fill:#643e64"/></svg>