<svg id="Capa_1" data-name="Capa 1" xmlns="http://www.w3.org/2000/svg" viewBox="0 0 179.21 156.23"><path d="M89.6.5A77.59,77.59,0,0,0,38.39,19.71H140.82A77.59,77.59,0,0,0,89.6.5Z" style="fill:#643e64"/><path d="M163.13,104h-147a77.51,77.51,0,0,0,10.76,20.41H152.37A77.51,77.51,0,0,0,163.13,104Z" style="fill:#643e64"/><path d="M138.51,139H40.7a77.88,77.88,0,0,0,97.81,0Z" style="fill:#643e64"/><path d="M153.74,34.21H25.46a77.46,77.46,0,0,0-10,20.42H163.78A77.48,77.48,0,0,0,153.74,34.21Z" style="fill:#643e64"/><path d="M167.47,78.37a78.25,78.25,0,0,0-.55-9.24H12.28a80.45,80.45,0,0,0-.54,9.24,77.7,77.7,0,0,0,.8,11.17H166.67A79.17,79.17,0,0,0,167.47,78.37Z" style="fill:#643e64"/></svg>