<svg xmlns="http://www.w3.org/2000/svg" data-name="Capa 1" width="179.21" height="156.23"><rect id="backgroundrect" width="100%" height="100%" x="0" y="0" fill="none" stroke="none"/><g class="currentLayer" style=""><title>Layer 1</title><path d="M31.85,156.88H147.36a21.05,21.05,0,0,0,8.14-1.64H23.71A21.05,21.05,0,0,0,31.85,156.88Z" style="" id="svg_1" class="selected" fill-opacity="1" fill="#4a90d6"/><path d="M147.36-.64H31.85A21,21,0,0,0,24.78.58H154.42A20.86,20.86,0,0,0,147.36-.64Z" style="" id="svg_2" class="selected" fill-opacity="1" fill="#4a90d6"/><path d="M154.42.58H24.78A21,21,0,0,0,10.85,20.3H168.36A21,21,0,0,0,154.42.58Z" style="" id="svg_3" class="selected" fill-opacity="1" fill="#4a90d6"/><rect x="10.84000015258789" y="34.310001373291016" width="157.52000427246094" height="19.719999313354492" style="" id="svg_4" class="selected" fill-opacity="1" fill="#4a90d6"/><path d="M168.36,135.87v-.35H10.84v.35a21,21,0,0,0,12.87,19.37H155.5A21,21,0,0,0,168.36,135.87Z" style="" id="svg_5" class="selected" fill-opacity="1" fill="#4a90d6"/><rect x="10.84000015258789" y="101.77999877929688" width="157.52000427246094" height="19.719999313354492" style="" id="svg_6" class="selected" fill-opacity="1" fill="#4a90d6"/><rect x="10.84000015258789" y="68.05000305175781" width="157.52000427246094" height="19.719999313354492" style="" id="svg_7" class="selected" fill-opacity="1" fill="#4a90d6"/></g></svg>