<svg xmlns="http://www.w3.org/2000/svg" data-name="Capa 1" width="179.21" height="156.23"><rect id="backgroundrect" width="100%" height="100%" x="0" y="0" fill="none" stroke="none"/><g class="currentLayer" style=""><title>Layer 1</title><path d="M147.56-.92H31.65A21.08,21.08,0,0,0,10.57,20.16V136.07a21.07,21.07,0,0,0,21.08,21.08H147.56a21.08,21.08,0,0,0,21.08-21.08V20.16A21.08,21.08,0,0,0,147.56-.92Zm11,129.59a18.39,18.39,0,0,1-18.39,18.39H39.05a18.39,18.39,0,0,1-18.39-18.39V27.56A18.39,18.39,0,0,1,39.05,9.17H140.16a18.39,18.39,0,0,1,18.39,18.39Z" style="" id="svg_1" class="selected" fill-opacity="1" fill="#4a90d6"/></g></svg>