<svg xmlns="http://www.w3.org/2000/svg" data-name="Capa 1" width="179.21" height="156.23"><rect id="backgroundrect" width="100%" height="100%" x="0" y="0" fill="none" stroke="none"/><g class="currentLayer" style=""><title>Layer 1</title><path d="M142.25,137.8a19,19,0,0,0,12.1,17.68A20.91,20.91,0,0,0,168,135.86V120.08a19,19,0,0,0-25.77,17.72Z" style="" id="svg_1" class="selected" fill-opacity="1" fill="#4a90d6"/><path d="M132.45,137.8a19,19,0,1,0-19,19A19,19,0,0,0,132.45,137.8Z" style="" id="svg_2" class="selected" fill-opacity="1" fill="#4a90d6"/><path d="M84.71,137.8a19,19,0,1,0-19,19A19,19,0,0,0,84.71,137.8Z" style="" id="svg_3" class="selected" fill-opacity="1" fill="#4a90d6"/><path d="M37,137.8a19,19,0,0,0-25.77-17.72v15.78a20.91,20.91,0,0,0,13.67,19.62A19,19,0,0,0,37,137.8Z" style="" id="svg_4" class="selected" fill-opacity="1" fill="#4a90d6"/><path d="M168,107.89V91.32a19,19,0,0,0,0,16.57Z" style="" id="svg_5" class="selected" fill-opacity="1" fill="#4a90d6"/><path d="M118.37,99.6a19,19,0,1,0,19-19A19,19,0,0,0,118.37,99.6Z" style="" id="svg_6" class="selected" fill-opacity="1" fill="#4a90d6"/><path d="M70.63,99.6a19,19,0,1,0,19-19A19,19,0,0,0,70.63,99.6Z" style="" id="svg_7" class="selected" fill-opacity="1" fill="#4a90d6"/><path d="M22.88,99.6a19,19,0,1,0,19-19A19,19,0,0,0,22.88,99.6Z" style="" id="svg_8" class="selected" fill-opacity="1" fill="#4a90d6"/><path d="M11.19,91.32v16.56a18.83,18.83,0,0,0,1.9-8.28A18.83,18.83,0,0,0,11.19,91.32Z" style="" id="svg_9" class="selected" fill-opacity="1" fill="#4a90d6"/><path d="M142.25,56.63A19,19,0,0,0,168,74.35V38.91a19,19,0,0,0-25.77,17.72Z" style="" id="svg_10" class="selected" fill-opacity="1" fill="#4a90d6"/><circle cx="113.4800033569336" cy="56.630001068115234" r="18.979999542236328" style="" id="svg_11" class="selected" fill-opacity="1" fill="#4a90d6"/><path d="M65.73,75.61a19,19,0,1,0-19-19A19,19,0,0,0,65.73,75.61Z" style="" id="svg_12" class="selected" fill-opacity="1" fill="#4a90d6"/><path d="M37,56.63A19,19,0,0,0,11.19,38.91V74.35A19,19,0,0,0,37,56.63Z" style="" id="svg_13" class="selected" fill-opacity="1" fill="#4a90d6"/><path d="M168,26.72V20.86a20.87,20.87,0,0,0-1.29-7.23A19.09,19.09,0,0,0,168,26.72Z" style="" id="svg_14" class="selected" fill-opacity="1" fill="#4a90d6"/><path d="M118.37,18.44A19,19,0,1,0,141.6-.06h-8.5A19,19,0,0,0,118.37,18.44Z" style="" id="svg_15" class="selected" fill-opacity="1" fill="#4a90d6"/><path d="M70.63,18.44A19,19,0,1,0,93.86-.06H85.35A19,19,0,0,0,70.63,18.44Z" style="" id="svg_16" class="selected" fill-opacity="1" fill="#4a90d6"/><path d="M22.88,18.44A19,19,0,1,0,46.11-.06h-8.5A19,19,0,0,0,22.88,18.44Z" style="" id="svg_17" class="selected" fill-opacity="1" fill="#4a90d6"/><path d="M11.19,26.72a18.86,18.86,0,0,0,1.9-8.28,19,19,0,0,0-.61-4.81,20.64,20.64,0,0,0-1.29,7.23Z" style="" id="svg_18" class="selected" fill-opacity="1" fill="#4a90d6"/></g></svg>