<svg xmlns="http://www.w3.org/2000/svg" data-name="Capa 1" width="179.21" height="156.23"><rect id="backgroundrect" width="100%" height="100%" x="0" y="0" fill="none" stroke="none"/><g class="currentLayer" style=""><title>Layer 1</title><polygon points="75.9 138.13 103.31 138.13 89.6 130.93 75.9 138.13" style="" id="svg_1" class="selected" fill-opacity="1" fill="#4a90d6"/><polygon points="89.6 0.37 79.96 19.91 99.25 19.91 89.6 0.37" style="" id="svg_2" class="selected" fill-opacity="1" fill="#4a90d6"/><polygon points="131.45 103.52 47.76 103.52 44.29 123.76 134.92 123.76 131.45 103.52" style="" id="svg_3" class="selected" fill-opacity="1" fill="#4a90d6"/><polygon points="140.76 157.83 137.39 138.13 103.31 138.13 140.76 157.83" style="" id="svg_4" class="selected" fill-opacity="1" fill="#4a90d6"/><polygon points="163.78 68.9 15.43 68.9 36.19 89.14 143.02 89.14 163.78 68.9" style="" id="svg_5" class="selected" fill-opacity="1" fill="#4a90d6"/><polygon points="75.9 138.13 41.82 138.13 38.44 157.83 75.9 138.13" style="" id="svg_6" class="selected" fill-opacity="1" fill="#4a90d6"/><polygon points="115.18 52.2 106.34 34.28 72.87 34.28 64.02 52.2 115.18 52.2" style="" id="svg_7" class="selected" fill-opacity="1" fill="#4a90d6"/></g></svg>