<svg xmlns="http://www.w3.org/2000/svg" data-name="Capa 1" width="179.21" height="156.23"><rect id="backgroundrect" width="100%" height="100%" x="0" y="0" fill="none" stroke="none"/><g class="currentLayer" style=""><title>Layer 1</title><path d="M86.63,4.12c1.63-3.32,4.31-3.32,6,0l20,40.49a14.34,14.34,0,0,0,9.62,7l44.7,6.49c3.66.54,4.48,3.08,1.83,5.66L136.39,95.29a14.33,14.33,0,0,0-3.68,11.31l7.63,44.52c.63,3.64-1.54,5.21-4.81,3.49l-40-21a14.37,14.37,0,0,0-11.9,0l-40,21c-3.27,1.72-5.44.15-4.81-3.49L46.5,106.6a14.33,14.33,0,0,0-3.68-11.31L10.48,63.76c-2.64-2.58-1.82-5.12,1.84-5.66L57,51.61a14.34,14.34,0,0,0,9.63-7Z" style="" id="svg_1" class="selected" fill-opacity="1" fill="#4a90d6"/></g></svg>