<svg xmlns="http://www.w3.org/2000/svg" data-name="Capa 1" viewBox="0 0 179.21 156.23"><rect width="100%" height="100%" fill="none"/><g class="estrella_moteado_svg__currentLayer"><path d="M89.46 4.3c-.07.16 0 .28.05.28h.19c.1 0 .12-.12 0-.28s-.16-.15-.24 0z" fill="#f9b617"/><path d="M113.52 124.16c-8.83 0-14.63 8.59-14.63 8.59a5.91 5.91 0 002.19 8.7l20.89 11a7.24 7.24 0 009.42-2.64s1.14-1.9 1.14-6.63a19 19 0 00-19.01-19.02zM65.69 124.16a19 19 0 00-19 19c0 4.73 1.14 6.63 1.14 6.63a7.23 7.23 0 009.42 2.64l20.88-11a5.91 5.91 0 002.2-8.7s-5.82-8.57-14.64-8.57zM118.43 104.9c0 9.48 10.19 15.4 10.19 15.4 3.2 1.85 5.3.39 4.68-3.25l-.9-5.27a14.38 14.38 0 013.67-11.32l7-6.77c2.64-2.58 2.07-6-1.27-7.57 0 0-.48-.23-4.32-.23a19 19 0 00-19.05 19.01zM70.6 104.9a19 19 0 1019-19 19 19 0 00-19 19zM60.78 104.9a19 19 0 00-19-19c-3.84 0-4.32.23-4.32.23-3.35 1.58-3.91 5-1.27 7.57l7 6.77a14.35 14.35 0 013.68 11.32l-.9 5.27c-.63 3.64 1.48 5.1 4.68 3.25-.06-.01 10.13-5.93 10.13-15.41zM151.15 76.59a8.74 8.74 0 0010.42-1l6.53-6.37c2.65-2.58 1.82-5.12-1.84-5.66l-17.18-2.49c-3.66-.54-6.69-.45-6.74.18v.58c0 8.94 8.81 14.76 8.81 14.76zM94.51 61.85a19 19 0 0038 0v-1.09c-.15-1.17-3.27-2.55-6.93-3.09l-3.6-.52a14.38 14.38 0 01-9.63-7l-.37-.75a5.8 5.8 0 00-8.59-2.34s-8.88 5.84-8.88 14.79zM65.69 80.86a19 19 0 0019-19c0-9-8.9-14.78-8.9-14.78a5.82 5.82 0 00-8.6 2.34l-.37.75a14.34 14.34 0 01-9.62 7l-3.6.52c-3.66.54-6.78 1.92-6.93 3.09v1.09a19 19 0 0019.02 18.99zM36.87 61.85v-.58c0-.63-3.08-.72-6.74-.18l-17.19 2.49c-3.65.54-4.48 3.08-1.83 5.66l6.53 6.37a8.74 8.74 0 0010.42 1s8.81-5.84 8.81-14.76zM89.51 4.58c-.1 0-1.52 2.72-3.16 6l-9 18.29a9.11 9.11 0 002.15 10.39 17.17 17.17 0 0020.27 0 9.11 9.11 0 002.15-10.39l-9-18.29c-1.64-3.31-3.06-6-3.16-6h-.19z" fill="#4a90d6"/></g></svg>