<svg id="Capa_1" data-name="Capa 1" xmlns="http://www.w3.org/2000/svg" viewBox="0 0 179.21 156.23"><path d="M31.85,156.88H147.36a21.05,21.05,0,0,0,8.14-1.64H23.71A21.05,21.05,0,0,0,31.85,156.88Z" style="fill:#ef4c23"/><path d="M147.36-.64H31.85A21,21,0,0,0,24.78.58H154.42A20.86,20.86,0,0,0,147.36-.64Z" style="fill:#ef4c23"/><path d="M154.42.58H24.78A21,21,0,0,0,10.85,20.3H168.36A21,21,0,0,0,154.42.58Z" style="fill:#ef4c23"/><rect x="10.84" y="34.31" width="157.52" height="19.72" style="fill:#ef4c23"/><path d="M168.36,135.87v-.35H10.84v.35a21,21,0,0,0,12.87,19.37H155.5A21,21,0,0,0,168.36,135.87Z" style="fill:#ef4c23"/><rect x="10.84" y="101.78" width="157.52" height="19.72" style="fill:#ef4c23"/><rect x="10.84" y="68.05" width="157.52" height="19.72" style="fill:#ef4c23"/></svg>