<svg id="Capa_1" data-name="Capa 1" xmlns="http://www.w3.org/2000/svg" viewBox="0 0 179.21 156.23"><polygon points="75.9 138.13 103.31 138.13 89.6 130.93 75.9 138.13" style="fill:#f9b617"/><polygon points="89.6 0.37 79.96 19.91 99.25 19.91 89.6 0.37" style="fill:#f9b617"/><polygon points="131.45 103.52 47.76 103.52 44.29 123.76 134.92 123.76 131.45 103.52" style="fill:#f9b617"/><polygon points="140.76 157.83 137.39 138.13 103.31 138.13 140.76 157.83" style="fill:#f9b617"/><polygon points="163.78 68.9 15.43 68.9 36.19 89.14 143.02 89.14 163.78 68.9" style="fill:#f9b617"/><polygon points="75.9 138.13 41.82 138.13 38.44 157.83 75.9 138.13" style="fill:#f9b617"/><polygon points="115.18 52.2 106.34 34.28 72.87 34.28 64.02 52.2 115.18 52.2" style="fill:#f9b617"/></svg>