<svg id="Capa_1" data-name="Capa 1" xmlns="http://www.w3.org/2000/svg" viewBox="0 0 179.21 156.23"><path d="M89.46,4.3c-.07.16,0,.28.05.28h.19c.1,0,.12-.12,0-.28S89.54,4.15,89.46,4.3Z" style="fill:#f9b617"/><path d="M113.52,124.16c-8.83,0-14.63,8.59-14.63,8.59a5.91,5.91,0,0,0,2.19,8.7l20.89,11a7.24,7.24,0,0,0,9.42-2.64s1.14-1.9,1.14-6.63A19,19,0,0,0,113.52,124.16Z" style="fill:#f9b617"/><path d="M65.69,124.16a19,19,0,0,0-19,19c0,4.73,1.14,6.63,1.14,6.63a7.23,7.23,0,0,0,9.42,2.64l20.88-11a5.91,5.91,0,0,0,2.2-8.7S74.51,124.16,65.69,124.16Z" style="fill:#f9b617"/><path d="M118.43,104.9c0,9.48,10.19,15.4,10.19,15.4,3.2,1.85,5.3.39,4.68-3.25l-.9-5.27a14.38,14.38,0,0,1,3.67-11.32l7-6.77c2.64-2.58,2.07-6-1.27-7.57,0,0-.48-.23-4.32-.23A19,19,0,0,0,118.43,104.9Z" style="fill:#f9b617"/><path d="M70.6,104.9a19,19,0,1,0,19-19A19,19,0,0,0,70.6,104.9Z" style="fill:#f9b617"/><path d="M60.78,104.9a19,19,0,0,0-19-19c-3.84,0-4.32.23-4.32.23-3.35,1.58-3.91,5-1.27,7.57l7,6.77a14.35,14.35,0,0,1,3.68,11.32l-.9,5.27c-.63,3.64,1.48,5.1,4.68,3.25C50.59,120.3,60.78,114.38,60.78,104.9Z" style="fill:#f9b617"/><path d="M151.15,76.59a8.74,8.74,0,0,0,10.42-1l6.53-6.37c2.65-2.58,1.82-5.12-1.84-5.66l-17.18-2.49c-3.66-.54-6.69-.45-6.74.18v.58C142.34,70.77,151.15,76.59,151.15,76.59Z" style="fill:#f9b617"/><path d="M94.51,61.85a19,19,0,0,0,38,0V60.76c-.15-1.17-3.27-2.55-6.93-3.09l-3.6-.52a14.38,14.38,0,0,1-9.63-7l-.37-.75a5.8,5.8,0,0,0-8.59-2.34S94.51,52.9,94.51,61.85Z" style="fill:#f9b617"/><path d="M65.69,80.86a19,19,0,0,0,19-19c0-9-8.9-14.78-8.9-14.78a5.82,5.82,0,0,0-8.6,2.34l-.37.75a14.34,14.34,0,0,1-9.62,7l-3.6.52c-3.66.54-6.78,1.92-6.93,3.09v1.09A19,19,0,0,0,65.69,80.86Z" style="fill:#f9b617"/><path d="M36.87,61.85v-.58c0-.63-3.08-.72-6.74-.18L12.94,63.58c-3.65.54-4.48,3.08-1.83,5.66l6.53,6.37a8.74,8.74,0,0,0,10.42,1S36.87,70.77,36.87,61.85Z" style="fill:#f9b617"/><path d="M89.51,4.58c-.1,0-1.52,2.72-3.16,6l-9,18.29a9.11,9.11,0,0,0,2.15,10.39,17.17,17.17,0,0,0,20.27,0,9.11,9.11,0,0,0,2.15-10.39l-9-18.29c-1.64-3.31-3.06-6-3.16-6h-.19Z" style="fill:#f9b617"/></svg>