<svg id="Capa_1" data-name="Capa 1" xmlns="http://www.w3.org/2000/svg" viewBox="0 0 179.21 156.23"><path d="M168.72,67.38c2.65-2.58,1.83-5.13-1.83-5.66l-44.7-6.49a14.34,14.34,0,0,1-9.62-7l-20-40.49c-1.64-3.32-4.32-3.32-6,0l-20,40.49a14.34,14.34,0,0,1-9.63,7L12.32,61.72c-3.66.53-4.48,3.08-1.84,5.66L42.82,98.9a14.36,14.36,0,0,1,3.68,11.32l-7.63,44.51c-.63,3.65,1.54,5.22,4.81,3.5l40-21a14.37,14.37,0,0,1,11.9,0l40,21c3.27,1.72,5.44.15,4.81-3.5l-7.63-44.51a14.36,14.36,0,0,1,3.68-11.32ZM95.57,123.81a14.61,14.61,0,0,0-11.94,0L56.3,138c-3.28,1.7-5.45.11-4.81-3.53l5.19-29.83A14.18,14.18,0,0,0,53,93.33L30.91,72.14c-2.66-2.56-1.85-5.09,1.81-5.61l30.59-4.38a14.46,14.46,0,0,0,9.67-7L86.59,28c1.66-3.31,4.37-3.31,6,0l13.61,27.17a14.44,14.44,0,0,0,9.66,7l30.6,4.38c3.66.52,4.48,3,1.81,5.61L126.22,93.33a14.17,14.17,0,0,0-3.69,11.28l5.19,29.83c.64,3.64-1.53,5.23-4.81,3.53Z" style="fill:#f9b617"/></svg>