<svg id="Capa_1" data-name="Capa 1" xmlns="http://www.w3.org/2000/svg" viewBox="0 0 179.21 156.23"><title>Reglas cambiantes</title><path d="M94.1,6.22a17.14,17.14,0,0,0-9,0c1.49-.09,3-.15,4.5-.15S92.61,6.13,94.1,6.22Z" style="fill:#449ed7"/><path d="M138,133.21a73.22,73.22,0,0,0,12.94-15.83A17.6,17.6,0,0,0,138,133.21Z" style="fill:#449ed7"/><path d="M111.51,116.81a17.72,17.72,0,0,0-7.12,33.8,71.1,71.1,0,0,0,23.26-9.49,17.84,17.84,0,0,0,1.28-6.64A17.55,17.55,0,0,0,111.51,116.81Z" style="fill:#449ed7"/><path d="M85.11,134.48a17.42,17.42,0,1,0-34.83,0,18,18,0,0,0,1.27,6.64,71.15,71.15,0,0,0,23.27,9.49A17.69,17.69,0,0,0,85.11,134.48Z" style="fill:#449ed7"/><path d="M28.3,117.38A72.93,72.93,0,0,0,41.24,133.2,17.62,17.62,0,0,0,28.3,117.38Z" style="fill:#449ed7"/><path d="M116,98.9a17.42,17.42,0,1,0,17.41-17.67A17.55,17.55,0,0,0,116,98.9Z" style="fill:#449ed7"/><path d="M72.19,98.9A17.42,17.42,0,1,0,89.6,81.23,17.55,17.55,0,0,0,72.19,98.9Z" style="fill:#449ed7"/><path d="M45.79,81.23A17.68,17.68,0,1,0,63.2,98.9,17.55,17.55,0,0,0,45.79,81.23Z" style="fill:#449ed7"/><path d="M137.92,58.88a17.54,17.54,0,0,0,17.41,17.67,17.22,17.22,0,0,0,6.15-1.13A73.52,73.52,0,0,0,151.4,41.66,17.62,17.62,0,0,0,137.92,58.88Z" style="fill:#449ed7"/><path d="M111.51,76.55A17.68,17.68,0,1,0,94.1,58.88,17.55,17.55,0,0,0,111.51,76.55Z" style="fill:#449ed7"/><path d="M50.28,58.88A17.42,17.42,0,1,0,67.7,41.2,17.55,17.55,0,0,0,50.28,58.88Z" style="fill:#449ed7"/><path d="M41.29,58.88A17.63,17.63,0,0,0,27.81,41.66,73.52,73.52,0,0,0,17.73,75.42a17.18,17.18,0,0,0,6.15,1.13A17.54,17.54,0,0,0,41.29,58.88Z" style="fill:#449ed7"/><path d="M133.42,41a17.28,17.28,0,0,0,13.31-6.28,72.46,72.46,0,0,0-27.22-22A17.76,17.76,0,0,0,116,23.3,17.54,17.54,0,0,0,133.42,41Z" style="fill:#449ed7"/><path d="M72.19,23.3A17.42,17.42,0,1,0,94.1,6.22c-1.49-.09-3-.15-4.49-.15s-3,.06-4.5.15A17.63,17.63,0,0,0,72.19,23.3Z" style="fill:#449ed7"/><path d="M32.48,34.7A17.29,17.29,0,0,0,45.79,41,17.54,17.54,0,0,0,63.2,23.3a17.79,17.79,0,0,0-3.5-10.64A72.39,72.39,0,0,0,32.48,34.7Z" style="fill:#449ed7"/><path d="M89.61.11a78,78,0,1,0,78,78A78,78,0,0,0,89.61.11Zm0,145.28a67.28,67.28,0,1,1,67.27-67.27A67.27,67.27,0,0,1,89.61,145.39Z" style="fill:#449ed7"/></svg>