<svg id="Capa_1" data-name="Capa 1" xmlns="http://www.w3.org/2000/svg" viewBox="0 0 179.21 156.23"><title>Reglas cambiantes</title><polygon points="89.8 -0.94 78.34 18.9 101.25 18.9 89.8 -0.94" style="fill:#449ed7"/><polygon points="149.75 102.89 29.85 102.89 18.11 123.22 161.48 123.22 149.75 102.89" style="fill:#449ed7"/><polygon points="109.59 33.34 70 33.34 58.26 53.67 121.33 53.67 109.59 33.34" style="fill:#449ed7"/><polygon points="181.05 157.11 169.82 137.66 9.77 137.66 -1.46 157.11 181.05 157.11" style="fill:#449ed7"/><polygon points="129.67 68.12 49.92 68.12 38.19 88.45 141.41 88.45 129.67 68.12" style="fill:#449ed7"/><line x1="-1.84" y1="157.18" x2="90.16" y2="-0.82" style="fill:none"/><path d="M93.16,2.37c-1.85-3.2-4.88-3.2-6.73,0L1,150.38c-1.85,3.2-.33,5.82,3.36,5.82H175.25c3.7,0,5.21-2.62,3.36-5.82ZM86.53,22.26c1.8-3.23,4.74-3.23,6.53,0l65.81,118.46c1.8,3.23.24,5.87-3.45,5.87H24.18c-3.7,0-5.26-2.64-3.46-5.87Z" style="fill:#449ed7"/></svg>