<svg xmlns="http://www.w3.org/2000/svg" data-name="Capa 1" viewBox="0 0 179.21 156.23"><rect width="100%" height="100%" fill="none"/><g class="circulo_rallado_svg__currentLayer"><path d="M89.6.5a77.59 77.59 0 00-51.21 19.21h102.43A77.59 77.59 0 0089.6.5zM163.13 104h-147a77.51 77.51 0 0010.76 20.41h125.48A77.51 77.51 0 00163.13 104zM138.51 139H40.7a77.88 77.88 0 0097.81 0zM153.74 34.21H25.46a77.46 77.46 0 00-10 20.42h148.32a77.48 77.48 0 00-10.04-20.42zM167.47 78.37a78.25 78.25 0 00-.55-9.24H12.28a80.45 80.45 0 00-.54 9.24 77.7 77.7 0 00.8 11.17h154.13a79.17 79.17 0 00.8-11.17z" fill="#4a90d6"/></g></svg>