<svg data-name="Capa 1" xmlns="http://www.w3.org/2000/svg" viewBox="0 0 126.96 126.96"><path d="M127 63.48A63.48 63.48 0 1163.48 0 63.48 63.48 0 01127 63.48z" fill="#fff"/><path d="M83.07 40.09c0 11.33-8.77 20.51-19.59 20.51s-19.59-9.18-19.59-20.51 8.77-20.5 19.59-20.5 19.59 9.18 19.59 20.5z" fill="#b2b2b2"/><path d="M57.28 81.1c0 11.32-8.77 20.51-19.59 20.51S18.1 92.42 18.1 81.1s8.77-20.5 19.59-20.5 19.59 9.18 19.59 20.5z" fill="#676767"/><path d="M108.87 81.1c0 11.32-8.77 20.51-19.59 20.51S69.69 92.42 69.69 81.1s8.77-20.5 19.59-20.5 19.59 9.18 19.59 20.5z" fill="#5c5c5c"/></svg>