<svg data-name="Capa 1" xmlns="http://www.w3.org/2000/svg" viewBox="0 0 126.96 126.96"><path d="M127 63.48A63.48 63.48 0 1163.48 0 63.49 63.49 0 01127 63.48z" fill="#fff"/><path d="M83.08 40.09c0 11.33-8.78 20.51-19.6 20.51s-19.59-9.18-19.59-20.51 8.77-20.5 19.59-20.5 19.6 9.18 19.6 20.5zM57.28 81.1c0 11.32-8.77 20.51-19.59 20.51S18.1 92.42 18.1 81.1s8.77-20.5 19.59-20.5 19.59 9.18 19.59 20.5zM108.87 81.1c0 11.32-8.77 20.51-19.59 20.51S69.69 92.42 69.69 81.1s8.77-20.5 19.59-20.5 19.59 9.18 19.59 20.5z" fill="none" stroke="#3e6eb5" stroke-miterlimit="10" stroke-width="1.417"/><path d="M34.87 74.91a4.6 4.6 0 11-4.6-4.6 4.6 4.6 0 014.6 4.6zM48.49 87a4.6 4.6 0 11-4.6-4.6 4.6 4.6 0 014.6 4.6zM67.49 40.1a4.6 4.6 0 11-4.6-4.61 4.6 4.6 0 014.6 4.61zM57.69 30.89a4.6 4.6 0 11-4.6-4.6 4.6 4.6 0 014.6 4.6zM77.29 30.89a4.61 4.61 0 11-4.6-4.6 4.6 4.6 0 014.6 4.6zM57.69 49.3a4.6 4.6 0 11-4.6-4.6 4.6 4.6 0 014.6 4.6zM77.29 49.3a4.61 4.61 0 11-4.6-4.6 4.6 4.6 0 014.6 4.6zM93.88 68.6a4.6 4.6 0 11-4.6-4.6 4.6 4.6 0 014.6 4.6zM93.88 81a4.6 4.6 0 11-4.6-4.6 4.6 4.6 0 014.6 4.6zM93.88 93.35a4.6 4.6 0 11-4.6-4.6 4.59 4.59 0 014.6 4.6z" fill="#3e6eb5"/></svg>