<svg id="Capa_1" data-name="Capa 1" xmlns="http://www.w3.org/2000/svg" viewBox="0 0 126.96 126.96"><path d="M127,63.48A63.48,63.48,0,1,1,63.48,0,63.48,63.48,0,0,1,127,63.48Z" style="fill:#fff"/><path d="M83.07,40.09c0,11.33-8.77,20.51-19.59,20.51S43.89,51.42,43.89,40.09s8.77-20.5,19.59-20.5S83.07,28.77,83.07,40.09Z" style="fill:#f6ab1a"/><path d="M57.28,81.1c0,11.32-8.77,20.51-19.59,20.51S18.1,92.42,18.1,81.1s8.77-20.5,19.59-20.5S57.28,69.78,57.28,81.1Z" style="fill:#3e6eb5"/><path d="M108.87,81.1c0,11.32-8.77,20.51-19.59,20.51S69.69,92.42,69.69,81.1s8.77-20.5,19.59-20.5S108.87,69.78,108.87,81.1Z" style="fill:#d02b27"/></svg>