<svg id="Capa_1" data-name="Capa 1" xmlns="http://www.w3.org/2000/svg" viewBox="0 0 126.96 126.96"><path d="M127,63.48A63.48,63.48,0,1,1,63.48,0,63.49,63.49,0,0,1,127,63.48Z" style="fill:#fff"/><path d="M83.08,40.09c0,11.33-8.78,20.51-19.6,20.51S43.89,51.42,43.89,40.09s8.77-20.5,19.59-20.5S83.08,28.77,83.08,40.09Z" style="fill:none;stroke:#676767;stroke-miterlimit:10;stroke-width:1.4173200000000001px"/><path d="M57.28,81.1c0,11.32-8.77,20.51-19.59,20.51S18.1,92.42,18.1,81.1s8.77-20.5,19.59-20.5S57.28,69.78,57.28,81.1Z" style="fill:none;stroke:#676767;stroke-miterlimit:10;stroke-width:1.4173200000000001px"/><path d="M108.87,81.1c0,11.32-8.77,20.51-19.59,20.51S69.69,92.42,69.69,81.1s8.77-20.5,19.59-20.5S108.87,69.78,108.87,81.1Z" style="fill:none;stroke:#676767;stroke-miterlimit:10;stroke-width:1.4173200000000001px"/><path d="M34.87,74.91a4.6,4.6,0,1,1-4.6-4.6A4.6,4.6,0,0,1,34.87,74.91Z" style="fill:#676767"/><path d="M48.49,87a4.6,4.6,0,1,1-4.6-4.6A4.6,4.6,0,0,1,48.49,87Z" style="fill:#676767"/><path d="M67.49,40.1a4.6,4.6,0,1,1-4.6-4.61A4.6,4.6,0,0,1,67.49,40.1Z" style="fill:#676767"/><path d="M57.69,30.89a4.6,4.6,0,1,1-4.6-4.6A4.6,4.6,0,0,1,57.69,30.89Z" style="fill:#676767"/><path d="M77.29,30.89a4.61,4.61,0,1,1-4.6-4.6A4.6,4.6,0,0,1,77.29,30.89Z" style="fill:#676767"/><path d="M57.69,49.3a4.6,4.6,0,1,1-4.6-4.6A4.6,4.6,0,0,1,57.69,49.3Z" style="fill:#676767"/><path d="M77.29,49.3a4.61,4.61,0,1,1-4.6-4.6A4.6,4.6,0,0,1,77.29,49.3Z" style="fill:#676767"/><path d="M93.88,68.6a4.6,4.6,0,1,1-4.6-4.6A4.6,4.6,0,0,1,93.88,68.6Z" style="fill:#676767"/><path d="M93.88,81a4.6,4.6,0,1,1-4.6-4.6A4.6,4.6,0,0,1,93.88,81Z" style="fill:#676767"/><path d="M93.88,93.35a4.6,4.6,0,1,1-4.6-4.6A4.59,4.59,0,0,1,93.88,93.35Z" style="fill:#676767"/></svg>