<svg id="Capa_1" data-name="Capa 1" xmlns="http://www.w3.org/2000/svg" viewBox="0 0 126.96 126.96"><path d="M126.75,63.48A63.48,63.48,0,1,1,63.27,0,63.48,63.48,0,0,1,126.75,63.48Z" style="fill:#fff"/><path d="M82,37.86c0,11.33-8.77,20.51-19.59,20.51S42.82,49.19,42.82,37.86s8.77-20.5,19.59-20.5S82,26.54,82,37.86Z" style="fill:#676767"/><polygon points="38.85 55.3 46.08 70.64 62.26 73.1 50.55 85.04 53.32 101.91 38.85 93.95 24.37 101.91 27.14 85.04 15.43 73.1 31.61 70.64 38.85 55.3" style="fill:#676767"/><rect x="66.61" y="61.37" width="38.74" height="40.54" style="fill:#676767"/></svg>