<svg id="Capa_1" data-name="Capa 1" xmlns="http://www.w3.org/2000/svg" viewBox="0 0 126.96 126.96"><path d="M126.54,63.48A63.48,63.48,0,1,1,63.06,0,63.48,63.48,0,0,1,126.54,63.48Z" style="fill:#fff"/><path d="M49.27,65a18.82,18.82,0,0,0-24,0Z" style="fill:#676767"/><path d="M55.65,74.13a21.08,21.08,0,0,0-2.08-4.33H21a21.08,21.08,0,0,0-2.08,4.33Z" style="fill:#676767"/><path d="M53.64,92.4a21.15,21.15,0,0,0,2-4.32H18.84a21.15,21.15,0,0,0,2.05,4.32Z" style="fill:#676767"/><path d="M17.77,83.26h39a20.79,20.79,0,0,0,.11-2.1c0-.75,0-1.49-.12-2.22H17.79c-.07.73-.12,1.47-.12,2.22S17.71,82.57,17.77,83.26Z" style="fill:#676767"/><path d="M39.37,101.54a19,19,0,0,0,10.06-4.33H25.1a19,19,0,0,0,10.06,4.33Z" style="fill:#676767"/><path d="M63.06,19.59c-10.82,0-19.59,9.18-19.59,20.5S52.24,60.6,63.06,60.6s19.59-9.18,19.59-20.51S73.88,19.59,63.06,19.59Zm0,38.62c-9.56,0-17.31-8.11-17.31-18.12S53.5,22,63.06,22s17.31,8.11,17.31,18.11S72.62,58.21,63.06,58.21Z" style="fill:#676767"/><path d="M98.6,91.83A4.68,4.68,0,0,1,107,88.92a20.57,20.57,0,0,0,.81-2.56,4.68,4.68,0,0,1,.36-8.8,19.78,19.78,0,0,0-.75-3.08,4.69,4.69,0,1,1-4.08-7l.21,0a20.1,20.1,0,0,0-3.57-3.33,4.69,4.69,0,0,1-8.73-3.44,17.17,17.17,0,0,0-5.14.07,4.67,4.67,0,0,1-4.42,6.26,4.68,4.68,0,0,1-4.2-2.64A20.19,20.19,0,0,0,74,67.74a4.68,4.68,0,1,1-3.21,5.39,21,21,0,0,0-1.25,4.57,4.68,4.68,0,0,1,.34,8.45,20.19,20.19,0,0,0,1.27,3.7,4.69,4.69,0,1,1,4.76,6.62,20.56,20.56,0,0,0,2.38,1.89,4.68,4.68,0,0,1,8,3,17.6,17.6,0,0,0,2.52.2,20.19,20.19,0,0,0,2.07-.12,4.67,4.67,0,0,1,8.19-2.95A19.19,19.19,0,0,0,102,96.31,4.69,4.69,0,0,1,98.6,91.83ZM89.35,67.51a4.7,4.7,0,1,1-4.7,4.69A4.69,4.69,0,0,1,89.35,67.51ZM77,82a4.7,4.7,0,1,1,4.69,4.69A4.69,4.69,0,0,1,77,82Zm12.39,14.5a4.7,4.7,0,1,1,4.7-4.69A4.7,4.7,0,0,1,89.35,96.52ZM90.91,82a4.7,4.7,0,1,1,4.69,4.69A4.69,4.69,0,0,1,90.91,82Z" style="fill:none"/><path d="M95.6,96.94a4.69,4.69,0,0,0-4.68,4.55,18.88,18.88,0,0,0,8.19-2.95A4.67,4.67,0,0,0,95.6,96.94Z" style="fill:#676767"/><path d="M81.65,96.94a4.68,4.68,0,0,0-3.35,1.42,18.92,18.92,0,0,0,8,3A4.69,4.69,0,0,0,81.65,96.94Z" style="fill:#676767"/><path d="M103.3,87.13A4.69,4.69,0,0,0,102,96.31a20.46,20.46,0,0,0,5-7.39A4.67,4.67,0,0,0,103.3,87.13Z" style="fill:#676767"/><path d="M89.35,87.13a4.7,4.7,0,1,0,4.7,4.7A4.7,4.7,0,0,0,89.35,87.13Z" style="fill:#676767"/><path d="M80.1,91.83a4.69,4.69,0,0,0-8.94-2,20.27,20.27,0,0,0,4.76,6.62A4.68,4.68,0,0,0,80.1,91.83Z" style="fill:#676767"/><path d="M104.85,82a4.7,4.7,0,0,0,2.92,4.34,21.18,21.18,0,0,0,.68-5.26,21.67,21.67,0,0,0-.32-3.54A4.69,4.69,0,0,0,104.85,82Z" style="fill:#676767"/><path d="M100.3,82a4.7,4.7,0,1,0-4.7,4.69A4.69,4.69,0,0,0,100.3,82Z" style="fill:#676767"/><path d="M86.35,82a4.7,4.7,0,1,0-4.7,4.69A4.69,4.69,0,0,0,86.35,82Z" style="fill:#676767"/><path d="M72.4,82a4.68,4.68,0,0,0-2.85-4.32,22.28,22.28,0,0,0-.29,3.4,21,21,0,0,0,.63,5.05A4.66,4.66,0,0,0,72.4,82Z" style="fill:#676767"/><path d="M98.6,72.2a4.68,4.68,0,0,0,8.78,2.28,20.6,20.6,0,0,0-3.87-7l-.21,0A4.7,4.7,0,0,0,98.6,72.2Z" style="fill:#676767"/><path d="M89.35,76.9a4.7,4.7,0,1,0-4.7-4.7A4.69,4.69,0,0,0,89.35,76.9Z" style="fill:#676767"/><path d="M75.4,76.9A4.7,4.7,0,1,0,74,67.74a20.85,20.85,0,0,0-3.21,5.39A4.69,4.69,0,0,0,75.4,76.9Z" style="fill:#676767"/><path d="M95.6,67.09a4.69,4.69,0,0,0,4.34-2.89,18.92,18.92,0,0,0-8.73-3.44,4.68,4.68,0,0,0,4.39,6.33Z" style="fill:#676767"/><path d="M81.65,67.09a4.67,4.67,0,0,0,4.42-6.26,18.88,18.88,0,0,0-8.62,3.62A4.68,4.68,0,0,0,81.65,67.09Z" style="fill:#676767"/></svg>