<svg data-name="Capa 1" xmlns="http://www.w3.org/2000/svg" viewBox="0 0 126.96 126.96"><path d="M126.54 63.48A63.48 63.48 0 1163.06 0a63.48 63.48 0 0163.48 63.48z" fill="#fff"/><path d="M49.27 65a18.82 18.82 0 00-24 0zM55.65 74.13a21.08 21.08 0 00-2.08-4.33H21a21.08 21.08 0 00-2.08 4.33zM53.64 92.4a21.15 21.15 0 002-4.32h-36.8a21.15 21.15 0 002.05 4.32zM17.77 83.26h39a20.79 20.79 0 00.11-2.1c0-.75 0-1.49-.12-2.22H17.79c-.07.73-.12 1.47-.12 2.22s.04 1.41.1 2.1zM39.37 101.54a19 19 0 0010.06-4.33H25.1a19 19 0 0010.06 4.33zM63.06 19.59c-10.82 0-19.59 9.18-19.59 20.5S52.24 60.6 63.06 60.6s19.59-9.18 19.59-20.51-8.77-20.5-19.59-20.5zm0 38.62c-9.56 0-17.31-8.11-17.31-18.12S53.5 22 63.06 22s17.31 8.11 17.31 18.11-7.75 18.1-17.31 18.1z" fill="#676767"/><path d="M98.6 91.83a4.68 4.68 0 018.4-2.91 20.57 20.57 0 00.81-2.56 4.68 4.68 0 01.36-8.8 19.78 19.78 0 00-.75-3.08 4.69 4.69 0 11-4.08-7h.21a20.1 20.1 0 00-3.57-3.33 4.69 4.69 0 01-8.73-3.44 17.17 17.17 0 00-5.14.07 4.67 4.67 0 01-4.42 6.26 4.68 4.68 0 01-4.2-2.64A20.19 20.19 0 0074 67.74a4.68 4.68 0 11-3.21 5.39 21 21 0 00-1.25 4.57 4.68 4.68 0 01.34 8.45 20.19 20.19 0 001.27 3.7 4.69 4.69 0 114.76 6.62 20.56 20.56 0 002.38 1.89 4.68 4.68 0 018 3 17.6 17.6 0 002.52.2 20.19 20.19 0 002.07-.12 4.67 4.67 0 018.19-2.95 19.19 19.19 0 002.93-2.18 4.69 4.69 0 01-3.4-4.48zm-9.25-24.32a4.7 4.7 0 11-4.7 4.69 4.69 4.69 0 014.7-4.69zM77 82a4.7 4.7 0 114.69 4.69A4.69 4.69 0 0177 82zm12.39 14.5a4.7 4.7 0 114.7-4.69 4.7 4.7 0 01-4.74 4.71zM90.91 82a4.7 4.7 0 114.69 4.69A4.69 4.69 0 0190.91 82z" fill="none"/><path d="M95.6 96.94a4.69 4.69 0 00-4.68 4.55 18.88 18.88 0 008.19-2.95 4.67 4.67 0 00-3.51-1.6zM81.65 96.94a4.68 4.68 0 00-3.35 1.42 18.92 18.92 0 008 3 4.69 4.69 0 00-4.65-4.42zM103.3 87.13a4.69 4.69 0 00-1.3 9.18 20.46 20.46 0 005-7.39 4.67 4.67 0 00-3.7-1.79zM89.35 87.13a4.7 4.7 0 104.7 4.7 4.7 4.7 0 00-4.7-4.7zM80.1 91.83a4.69 4.69 0 00-8.94-2 20.27 20.27 0 004.76 6.62 4.68 4.68 0 004.18-4.62zM104.85 82a4.7 4.7 0 002.92 4.34 21.18 21.18 0 00.68-5.26 21.67 21.67 0 00-.32-3.54 4.69 4.69 0 00-3.28 4.46zM100.3 82a4.7 4.7 0 10-4.7 4.69 4.69 4.69 0 004.7-4.69zM86.35 82a4.7 4.7 0 10-4.7 4.69 4.69 4.69 0 004.7-4.69zM72.4 82a4.68 4.68 0 00-2.85-4.32 22.28 22.28 0 00-.29 3.4 21 21 0 00.63 5.05A4.66 4.66 0 0072.4 82zM98.6 72.2a4.68 4.68 0 008.78 2.28 20.6 20.6 0 00-3.87-7h-.21a4.7 4.7 0 00-4.7 4.72zM89.35 76.9a4.7 4.7 0 10-4.7-4.7 4.69 4.69 0 004.7 4.7zM75.4 76.9a4.7 4.7 0 10-1.4-9.16 20.85 20.85 0 00-3.21 5.39 4.69 4.69 0 004.61 3.77zM95.6 67.09a4.69 4.69 0 004.34-2.89 18.92 18.92 0 00-8.73-3.44 4.68 4.68 0 004.39 6.33zM81.65 67.09a4.67 4.67 0 004.42-6.26 18.88 18.88 0 00-8.62 3.62 4.68 4.68 0 004.2 2.64z" fill="#676767"/></svg>