<svg id="Capa_1" data-name="Capa 1" xmlns="http://www.w3.org/2000/svg" viewBox="0 0 179.21 156.23"><title>Reglas cambiantes</title><path d="M89.61.25A77.59,77.59,0,0,0,38.39,19.46H140.82A77.59,77.59,0,0,0,89.61.25Z" style="fill:#449ed7"/><path d="M163.13,103.79h-147A77.51,77.51,0,0,0,26.84,124.2H152.37A77.51,77.51,0,0,0,163.13,103.79Z" style="fill:#449ed7"/><path d="M138.51,138.7H40.7a77.84,77.84,0,0,0,97.81,0Z" style="fill:#449ed7"/><path d="M153.75,34H25.46a77.46,77.46,0,0,0-10,20.42H163.78A77.46,77.46,0,0,0,153.75,34Z" style="fill:#449ed7"/><path d="M167.47,78.12a78.25,78.25,0,0,0-.55-9.24H12.29a78.16,78.16,0,0,0,.25,20.41H166.67A79.17,79.17,0,0,0,167.47,78.12Z" style="fill:#449ed7"/><path d="M89.61.11a78,78,0,1,0,78,78A78,78,0,0,0,89.61.11Zm0,145.28a67.28,67.28,0,1,1,67.27-67.27A67.27,67.27,0,0,1,89.61,145.39Z" style="fill:#449ed7"/></svg>