<svg id="Capa_1" data-name="Capa 1" xmlns="http://www.w3.org/2000/svg" viewBox="0 0 179.21 156.23"><title>Reglas cambiantes</title><path d="M142.25,137.8a19,19,0,0,0,12.1,17.68A20.91,20.91,0,0,0,168,135.86V120.08a19,19,0,0,0-25.77,17.72Z" style="fill:#449ed7"/><path d="M132.45,137.8a19,19,0,1,0-19,19A19,19,0,0,0,132.45,137.8Z" style="fill:#449ed7"/><path d="M84.71,137.8a19,19,0,1,0-19,19A19,19,0,0,0,84.71,137.8Z" style="fill:#449ed7"/><path d="M37,137.8a19,19,0,0,0-25.77-17.72v15.78a20.91,20.91,0,0,0,13.67,19.62A19,19,0,0,0,37,137.8Z" style="fill:#449ed7"/><path d="M168,107.89V91.32a19,19,0,0,0,0,16.57Z" style="fill:#449ed7"/><path d="M118.37,99.6a19,19,0,1,0,19-19A19,19,0,0,0,118.37,99.6Z" style="fill:#449ed7"/><path d="M70.63,99.6a19,19,0,1,0,19-19A19,19,0,0,0,70.63,99.6Z" style="fill:#449ed7"/><path d="M22.89,99.6a19,19,0,1,0,19-19A19,19,0,0,0,22.89,99.6Z" style="fill:#449ed7"/><path d="M11.19,91.32v16.56a18.83,18.83,0,0,0,1.9-8.28A18.83,18.83,0,0,0,11.19,91.32Z" style="fill:#449ed7"/><path d="M142.25,56.63A19,19,0,0,0,168,74.35V38.91a19,19,0,0,0-25.77,17.72Z" style="fill:#449ed7"/><circle cx="113.48" cy="56.63" r="18.98" style="fill:#449ed7"/><path d="M65.73,75.61a19,19,0,1,0-19-19A19,19,0,0,0,65.73,75.61Z" style="fill:#449ed7"/><path d="M37,56.63A19,19,0,0,0,11.19,38.91V74.35A19,19,0,0,0,37,56.63Z" style="fill:#449ed7"/><path d="M168,26.72V20.86a20.87,20.87,0,0,0-1.29-7.23A19.09,19.09,0,0,0,168,26.72Z" style="fill:#449ed7"/><path d="M118.37,18.44A19,19,0,1,0,141.6-.06h-8.5A19,19,0,0,0,118.37,18.44Z" style="fill:#449ed7"/><path d="M70.63,18.44A19,19,0,1,0,93.86-.06H85.35A19,19,0,0,0,70.63,18.44Z" style="fill:#449ed7"/><path d="M22.89,18.44A19,19,0,1,0,46.11-.06h-8.5A19,19,0,0,0,22.89,18.44Z" style="fill:#449ed7"/><path d="M11.19,26.72a18.86,18.86,0,0,0,1.9-8.28,19,19,0,0,0-.61-4.81,20.64,20.64,0,0,0-1.29,7.23Z" style="fill:#449ed7"/><path d="M147.56-.92H31.65A21.08,21.08,0,0,0,10.57,20.16V136.07a21.07,21.07,0,0,0,21.08,21.08H147.56a21.07,21.07,0,0,0,21.08-21.08V20.16A21.08,21.08,0,0,0,147.56-.92Zm11,129.59a18.39,18.39,0,0,1-18.39,18.39H39.05a18.39,18.39,0,0,1-18.39-18.39V27.56A18.39,18.39,0,0,1,39.05,9.17H140.16a18.39,18.39,0,0,1,18.39,18.39Z" style="fill:#449ed7"/></svg>