<svg id="Capa_1" data-name="Capa 1" xmlns="http://www.w3.org/2000/svg" viewBox="0 0 179.21 156.23"><title>Reglas cambiantes</title><path d="M31.85,156.88H147.36a21.05,21.05,0,0,0,8.14-1.64H23.71A21.05,21.05,0,0,0,31.85,156.88Z" style="fill:#449ed7"/><path d="M147.36-.64H31.85A20.86,20.86,0,0,0,24.79.58H154.42A20.86,20.86,0,0,0,147.36-.64Z" style="fill:#449ed7"/><path d="M154.42.58H24.79A21,21,0,0,0,10.85,20.3H168.36A21,21,0,0,0,154.42.58Z" style="fill:#449ed7"/><rect x="10.84" y="34.31" width="157.52" height="19.72" style="fill:#449ed7"/><path d="M168.37,135.87v-.35H10.84v.35a21,21,0,0,0,12.87,19.37H155.5A21,21,0,0,0,168.37,135.87Z" style="fill:#449ed7"/><rect x="10.84" y="101.78" width="157.52" height="19.72" style="fill:#449ed7"/><rect x="10.84" y="68.05" width="157.52" height="19.72" style="fill:#449ed7"/><path d="M147.56-.92H31.65A21.08,21.08,0,0,0,10.57,20.16V136.07a21.07,21.07,0,0,0,21.08,21.08H147.56a21.07,21.07,0,0,0,21.08-21.08V20.16A21.08,21.08,0,0,0,147.56-.92Zm11,129.59a18.39,18.39,0,0,1-18.39,18.39H39.05a18.39,18.39,0,0,1-18.39-18.39V27.56A18.39,18.39,0,0,1,39.05,9.17H140.16a18.39,18.39,0,0,1,18.39,18.39Z" style="fill:#449ed7"/></svg>