<svg id="Capa_1" data-name="Capa 1" xmlns="http://www.w3.org/2000/svg" viewBox="0 0 179.21 156.23"><title>Reglas cambiantes</title><path d="M86.63,3.76c1.64-3.31,4.31-3.31,6,0l20,40.5a14.37,14.37,0,0,0,9.62,7l44.7,6.49c3.66.53,4.48,3.08,1.83,5.66L136.39,94.93a14.35,14.35,0,0,0-3.68,11.32l7.63,44.51c.63,3.65-1.54,5.22-4.81,3.5l-40-21a14.39,14.39,0,0,0-11.91,0l-40,21c-3.27,1.72-5.44.15-4.81-3.5l7.63-44.51a14.35,14.35,0,0,0-3.68-11.32L10.48,63.41c-2.64-2.58-1.82-5.13,1.84-5.66L57,51.26a14.37,14.37,0,0,0,9.62-7Z" style="fill:#439dc7"/></svg>