<svg id="Capa_1" data-name="Capa 1" xmlns="http://www.w3.org/2000/svg" viewBox="0 0 179.21 156.23"><title>Reglas cambiantes</title><path d="M89.48,11.29c-.07.14,0,.25,0,.25h.17c.09,0,.11-.11,0-.25S89.55,11.15,89.48,11.29Z" style="fill:#449ed7"/><path d="M110.88,118.94c-7.85,0-13,7.72-13,7.72a5.33,5.33,0,0,0,1.95,7.81l18.58,9.86a6.39,6.39,0,0,0,8.38-2.36s1-1.7,1-6A17,17,0,0,0,110.88,118.94Z" style="fill:#449ed7"/><path d="M68.33,118.94A17,17,0,0,0,51.42,136c0,4.26,1,6,1,6a6.39,6.39,0,0,0,8.38,2.36l18.58-9.86a5.33,5.33,0,0,0,2-7.81S76.18,118.94,68.33,118.94Z" style="fill:#449ed7"/><path d="M115.24,101.64c0,8.52,9.08,13.83,9.08,13.83,2.84,1.67,4.71.35,4.16-2.92l-.81-4.73A13,13,0,0,1,131,97.66l6.18-6.09c2.35-2.32,1.85-5.38-1.13-6.79,0,0-.43-.21-3.84-.21A17,17,0,0,0,115.24,101.64Z" style="fill:#449ed7"/><path d="M72.7,101.64A16.91,16.91,0,1,0,89.61,84.57,17,17,0,0,0,72.7,101.64Z" style="fill:#449ed7"/><path d="M64,101.64A17,17,0,0,0,47.06,84.57c-3.42,0-3.85.21-3.85.21-3,1.41-3.48,4.47-1.13,6.79l6.18,6.09a13,13,0,0,1,3.28,10.16l-.81,4.73c-.55,3.27,1.32,4.59,4.16,2.92C54.89,115.47,64,110.16,64,101.64Z" style="fill:#449ed7"/><path d="M144.36,76.22a7.72,7.72,0,0,0,9.27-.89l5.81-5.71c2.35-2.32,1.62-4.61-1.64-5.09l-15.29-2.24c-3.25-.48-5.95-.4-6,.17V63C136.52,71,144.36,76.22,144.36,76.22Z" style="fill:#449ed7"/><path d="M94,63a16.91,16.91,0,1,0,33.82,0V62c-.13-1-2.91-2.3-6.16-2.77l-3.2-.47a12.81,12.81,0,0,1-8.57-6.29l-.33-.67a5.15,5.15,0,0,0-7.64-2.1S94,54.94,94,63Z" style="fill:#449ed7"/><path d="M68.33,80.05A17,17,0,0,0,85.24,63c0-8-7.91-13.28-7.91-13.28a5.16,5.16,0,0,0-7.65,2.1l-.33.67a12.81,12.81,0,0,1-8.57,6.29l-3.2.47c-3.25.47-6,1.72-6.16,2.77v1A17,17,0,0,0,68.33,80.05Z" style="fill:#449ed7"/><path d="M42.69,63v-.52c0-.57-2.74-.65-6-.17L21.41,64.53c-3.26.48-4,2.77-1.64,5.09l5.81,5.71a7.72,7.72,0,0,0,9.27.89S42.69,71,42.69,63Z" style="fill:#449ed7"/><path d="M89.52,11.54c-.09,0-1.35,2.44-2.81,5.42l-8,16.43a8.2,8.2,0,0,0,1.91,9.32,15.13,15.13,0,0,0,18,0,8.2,8.2,0,0,0,1.91-9.32L92.5,17c-1.45-3-2.72-5.42-2.81-5.42h-.17Z" style="fill:#449ed7"/><path d="M168.72,63.41c2.65-2.58,1.83-5.13-1.83-5.66L122.2,51.26a14.37,14.37,0,0,1-9.63-7l-20-40.5c-1.64-3.31-4.31-3.31-6,0l-20,40.5a14.37,14.37,0,0,1-9.62,7l-44.7,6.49c-3.66.53-4.48,3.08-1.84,5.66L42.82,94.93a14.35,14.35,0,0,1,3.68,11.32l-7.63,44.51c-.63,3.65,1.54,5.22,4.81,3.5l40-21a14.39,14.39,0,0,1,11.91,0l40,21c3.27,1.72,5.44.15,4.81-3.5l-7.63-44.51a14.35,14.35,0,0,1,3.68-11.32ZM95.57,119.84a14.59,14.59,0,0,0-11.93,0L56.3,134c-3.28,1.71-5.45.12-4.81-3.53l5.19-29.82A14.13,14.13,0,0,0,53,89.36L30.91,68.16c-2.66-2.56-1.85-5.08,1.81-5.6l30.59-4.38a14.47,14.47,0,0,0,9.67-7L86.59,24.05c1.66-3.31,4.37-3.31,6,0l13.61,27.16a14.47,14.47,0,0,0,9.67,7l30.59,4.38c3.66.52,4.48,3,1.81,5.6l-22.07,21.2a14.13,14.13,0,0,0-3.7,11.28l5.19,29.82c.64,3.65-1.53,5.24-4.81,3.53Z" style="fill:#449ed7"/></svg>