<svg id="Capa_1" data-name="Capa 1" xmlns="http://www.w3.org/2000/svg" viewBox="0 0 179.21 156.23"><title>Reglas cambiantes</title><path d="M142.39,136a19,19,0,0,0,19,19,16.22,16.22,0,0,0,9.62-2.92,8.14,8.14,0,0,0,1.87-10.05l-11-19a6.76,6.76,0,0,0-9.19-2.48S142.39,126.47,142.39,136Z" style="fill:#449ed7"/><path d="M94.52,136a19,19,0,1,0,19-19A19,19,0,0,0,94.52,136Z" style="fill:#449ed7"/><path d="M65.67,117a19,19,0,1,0,19,19A19,19,0,0,0,65.67,117Z" style="fill:#449ed7"/><path d="M17.79,155a19,19,0,0,0,19-19c0-9.54-10.33-15.47-10.33-15.47A6.76,6.76,0,0,0,17.3,123l-11,19a8.14,8.14,0,0,0,1.87,10.05A16.22,16.22,0,0,0,17.79,155Z" style="fill:#449ed7"/><path d="M118.45,97.71a19,19,0,0,0,19,19,17.32,17.32,0,0,0,10.94-4A8.85,8.85,0,0,0,150,102.37L139.7,84.54a7.29,7.29,0,0,0-9.39-2.84S118.45,87.58,118.45,97.71Z" style="fill:#449ed7"/><path d="M70.58,97.71a19,19,0,1,0,19-19A19,19,0,0,0,70.58,97.71Z" style="fill:#449ed7"/><path d="M41.73,116.73a19,19,0,0,0,19-19c0-10.13-11.86-16-11.86-16a7.29,7.29,0,0,0-9.39,2.84L29.22,102.37a8.85,8.85,0,0,0,1.57,10.39A17.32,17.32,0,0,0,41.73,116.73Z" style="fill:#449ed7"/><path d="M94.52,54.62a19,19,0,0,0,19,19,16.74,16.74,0,0,0,10.27-3.42A8.46,8.46,0,0,0,125.54,60l-10.68-18.5a7,7,0,0,0-9.28-2.64S94.52,44.8,94.52,54.62Z" style="fill:#449ed7"/><path d="M65.67,73.65a19,19,0,0,0,19-19c0-9.82-11.07-15.74-11.07-15.74a7,7,0,0,0-9.28,2.64L53.67,60A8.46,8.46,0,0,0,55.4,70.23,16.74,16.74,0,0,0,65.67,73.65Z" style="fill:#449ed7"/><path d="M76.63,20.25a9.19,9.19,0,0,0,1.42,10.54,16.93,16.93,0,0,0,23.11,0,9.2,9.2,0,0,0,1.42-10.55L93,3.6C91.12.4,88.09.4,86.24,3.6Z" style="fill:#449ed7"/><path d="M93,2.4c-1.85-3.2-4.88-3.2-6.73,0L.79,150.41c-1.85,3.2-.34,5.82,3.36,5.82H175.06c3.7,0,5.21-2.62,3.36-5.82ZM86.34,22.29c1.8-3.23,4.73-3.23,6.53,0l65.81,118.46c1.8,3.23.24,5.88-3.46,5.88H24c-3.69,0-5.25-2.65-3.45-5.88Z" style="fill:#449ed7"/></svg>