<svg id="Capa_1" data-name="Capa 1" xmlns="http://www.w3.org/2000/svg" viewBox="0 0 179.21 153.23"><title>Reglas cambiantes</title><path d="M78.76,6.11,19.1,65.77a15.34,15.34,0,0,0,0,21.69l59.66,59.66a15.34,15.34,0,0,0,21.69,0l59.66-59.66a15.34,15.34,0,0,0,0-21.69L100.45,6.11A15.34,15.34,0,0,0,78.76,6.11Zm72.35,61a13.4,13.4,0,0,1,0,18.93l-52,52a13.4,13.4,0,0,1-18.93,0l-52-52a13.4,13.4,0,0,1,0-18.93l52-52a13.4,13.4,0,0,1,18.93,0Z" style="fill:#449ed7"/><path d="M112.52,20.32H66.94c-2.85,1.61-4.89,5.93-4.9,11h55.38C117.41,26.25,115.37,21.93,112.52,20.32Z" style="fill:#449ed7"/><path d="M128.69,40.64h-78a11.78,11.78,0,0,0-8.38,11h94.74A11.81,11.81,0,0,0,128.69,40.64Z" style="fill:#449ed7"/><path d="M129,112.59H51a11.8,11.8,0,0,1-8.38-11h94.74A11.81,11.81,0,0,1,129,112.59Z" style="fill:#449ed7"/><path d="M145.1,61H34.26c-6.94,1.61-11.9,5.92-11.92,11H157C157,66.88,152,62.57,145.1,61Z" style="fill:#449ed7"/><path d="M145.42,92.27H34.57c-6.93-1.61-11.9-5.92-11.92-11H157.34C157.31,86.35,152.35,90.66,145.42,92.27Z" style="fill:#449ed7"/><path d="M112.73,132.91H67.16c-2.85-1.61-4.89-5.93-4.9-11h55.37C117.62,127,115.58,131.3,112.73,132.91Z" style="fill:#449ed7"/></svg>