<svg id="Capa_1" data-name="Capa 1" xmlns="http://www.w3.org/2000/svg" viewBox="0 0 179.21 153.23"><title>Reglas cambiantes</title><path d="M73.7,11.56A13.16,13.16,0,0,0,71.76,14l4.37-4.38A14.37,14.37,0,0,0,73.7,11.56Z" style="fill:#449ed7"/><path d="M49.12,36.13a14.84,14.84,0,0,0-1.94,2.44l4.38-4.38A14.84,14.84,0,0,0,49.12,36.13Z" style="fill:#449ed7"/><path d="M24.55,60.71a14.37,14.37,0,0,0-1.94,2.43L27,58.77A13.16,13.16,0,0,0,24.55,60.71Z" style="fill:#449ed7"/><path d="M147.41,80.24a13.82,13.82,0,0,0,15.33,2.87A15.22,15.22,0,0,0,159.68,66l-8.12-8.12a13.81,13.81,0,0,0-4.15,22.38Z" style="fill:#449ed7"/><path d="M142.37,85.28a13.81,13.81,0,1,0,0,19.53A13.8,13.8,0,0,0,142.37,85.28Z" style="fill:#449ed7"/><path d="M117.8,109.85a13.81,13.81,0,1,0,0,19.53A13.82,13.82,0,0,0,117.8,109.85Z" style="fill:#449ed7"/><path d="M93.23,134.42a13.81,13.81,0,0,0-22.38,4.15L79,146.69a15.22,15.22,0,0,0,17.13,3.06A13.82,13.82,0,0,0,93.23,134.42Z" style="fill:#449ed7"/><path d="M145.28,51.58l-8.53-8.53a13.88,13.88,0,0,0,8.53,8.53Z" style="fill:#449ed7"/><path d="M115.47,72.87a13.81,13.81,0,1,0,0-19.54A13.82,13.82,0,0,0,115.47,72.87Z" style="fill:#449ed7"/><path d="M90.9,97.44a13.81,13.81,0,1,0,0-19.53A13.82,13.82,0,0,0,90.9,97.44Z" style="fill:#449ed7"/><path d="M66.32,122a13.81,13.81,0,1,0,0-19.53A13.83,13.83,0,0,0,66.32,122Z" style="fill:#449ed7"/><path d="M56,123.77l8.53,8.52a13.76,13.76,0,0,0-3.29-5.24A13.59,13.59,0,0,0,56,123.77Z" style="fill:#449ed7"/><path d="M105.64,38.47a13.82,13.82,0,0,0,19.53,0A14,14,0,0,0,128,34.32L109.79,16.08a13.81,13.81,0,0,0-4.15,22.39Z" style="fill:#449ed7"/><circle cx="90.83" cy="53.27" r="13.81" transform="translate(-11.06 79.83) rotate(-45)" style="fill:#449ed7"/><path d="M76,87.61a13.81,13.81,0,1,0-19.53,0A13.82,13.82,0,0,0,76,87.61Z" style="fill:#449ed7"/><path d="M51.46,92.65A13.81,13.81,0,0,0,29.07,96.8L47.31,115a13.82,13.82,0,0,0,4.15-22.38Z" style="fill:#449ed7"/><path d="M103.51,9.81l-3-3a15,15,0,0,0-4.38-3.06,13.31,13.31,0,0,0,2.16,2.79A13.76,13.76,0,0,0,103.51,9.81Z" style="fill:#449ed7"/><path d="M73.7,31.09A13.81,13.81,0,1,0,76.13,9.62L71.76,14A13.8,13.8,0,0,0,73.7,31.09Z" style="fill:#449ed7"/><path d="M49.12,55.67a13.82,13.82,0,1,0,2.44-21.48l-4.38,4.38A13.83,13.83,0,0,0,49.12,55.67Z" style="fill:#449ed7"/><path d="M24.55,80.24A13.81,13.81,0,1,0,27,58.77l-4.38,4.37A13.83,13.83,0,0,0,24.55,80.24Z" style="fill:#449ed7"/><path d="M22.8,90.52a13.81,13.81,0,0,0-3.29-5.24,13.31,13.31,0,0,0-2.79-2.16,15,15,0,0,0,3.06,4.38Z" style="fill:#449ed7"/><path d="M78.76,6.11,19.1,65.77a15.34,15.34,0,0,0,0,21.69l59.66,59.66a15.34,15.34,0,0,0,21.69,0l59.66-59.66a15.34,15.34,0,0,0,0-21.69L100.45,6.11A15.34,15.34,0,0,0,78.76,6.11Zm72.35,61a13.4,13.4,0,0,1,0,18.93l-52,52a13.4,13.4,0,0,1-18.93,0l-52-52a13.4,13.4,0,0,1,0-18.93l52-52a13.4,13.4,0,0,1,18.93,0Z" style="fill:#449ed7"/></svg>