<svg data-name="Capa 1" xmlns="http://www.w3.org/2000/svg" viewBox="0 0 179.21 156.23"><path fill="#f9b617" d="M75.9 138.13h27.41l-13.71-7.2-13.7 7.2zM89.6.37l-9.64 19.54h19.29L89.6.37zM131.45 103.52H47.76l-3.47 20.24h90.63l-3.47-20.24zM140.76 157.83l-3.37-19.7h-34.08l37.45 19.7zM163.78 68.9H15.43l20.76 20.24h106.83l20.76-20.24zM75.9 138.13H41.82l-3.38 19.7 37.46-19.7zM115.18 52.2l-8.84-17.92H72.87L64.02 52.2h51.16z"/><path d="M65.94 106.1c-.26.42 2 2.29 6.19 4.08a45.06 45.06 0 0017.5 3.37 46.72 46.72 0 009.81-1.07 44.74 44.74 0 007.66-2.48c4.19-1.81 6.45-3.53 6.24-3.94s-2.85.43-7.06 1.55a76 76 0 01-7.45 1.59 59.9 59.9 0 01-9.22.74A64.23 64.23 0 0173 107.79c-4.27-1.1-6.8-2.12-7.06-1.69z"/><path d="M64.94 108.79c.2-.06.21-.55.23-1.25a4.13 4.13 0 01.62-2.31 4.25 4.25 0 012-1.23c.67-.23 1.14-.38 1.14-.59s-.47-.4-1.28-.41a4.18 4.18 0 00-1.46.24 3.34 3.34 0 00-1.58 1.13 3.4 3.4 0 00-.65 1.84 4.07 4.07 0 00.17 1.47c.29.78.63 1.16.81 1.11zM111.32 104.08c.08.2.53.19 1.14.28a3.38 3.38 0 011.93 1 3.17 3.17 0 01.79 2c0 .62 0 1.08.18 1.16s.21 0 .36-.19a2.18 2.18 0 00.46-.82 3.26 3.26 0 00.08-1.46 3.07 3.07 0 00-.83-1.64 3.41 3.41 0 00-1.57-.94 3.14 3.14 0 00-1.45-.05c-.8.12-1.16.5-1.09.66zM103.18 81.81c0 4.44 2.12 8 4.73 8s4.73-3.6 4.73-8-2.11-8-4.73-8-4.73 3.55-4.73 8z"/><path d="M113.69 71c-.2.1 0 .78 0 1.82V73.66a7.22 7.22 0 01-.2.94 7.44 7.44 0 01-1 2 6.89 6.89 0 01-1.49 1.56 5.08 5.08 0 01-.81.5 5 5 0 01-.77.33c-1 .33-1.7.34-1.74.57s.15.2.48.31a2.13 2.13 0 00.62.12 4.06 4.06 0 00.85 0 5.12 5.12 0 001-.22 6 6 0 001.08-.49 6.73 6.73 0 002-1.84 7.08 7.08 0 001.03-2.44 6.2 6.2 0 00.1-1.18v-.54c0-.17-.07-.33-.1-.49-.31-1.29-.91-1.79-1.05-1.79z"/><path d="M116.61 76.42c-.22 0-.42.5-.92 1.12a5.39 5.39 0 01-1 .94 8.36 8.36 0 01-1.52.83 13.1 13.1 0 01-3.17.8c-.85.11-1.41.14-1.46.34s.48.52 1.44.67a7.23 7.23 0 003.73-.49 6.52 6.52 0 001.82-1.13 4.31 4.31 0 001-1.46c.47-.97.24-1.61.08-1.62zM76.93 81.81c0 4.44-2.12 8-4.74 8s-4.73-3.6-4.73-8 2.12-8 4.73-8 4.74 3.55 4.74 8z"/><path d="M66.41 71c-.13-.09-.74.46-1 1.7l-.09.49a4.7 4.7 0 000 .54 5.48 5.48 0 00.1 1.18 7.05 7.05 0 001.07 2.48 6.85 6.85 0 002 1.84 6.11 6.11 0 001.09.49 5.12 5.12 0 001 .22 4 4 0 00.84 0 2.07 2.07 0 00.62-.12c.33-.11.5-.22.48-.31s-.75-.24-1.73-.57a5 5 0 01-.77-.33 5.15 5.15 0 01-.82-.5 7.1 7.1 0 01-1.53-1.56 7.72 7.72 0 01-1-2 7.22 7.22 0 01-.2-.94c0-.15 0-.3-.06-.44s0-.27 0-.4c-.03-.95.2-1.63 0-1.77z"/><path d="M63.5 76.42c-.17 0-.35.65 0 1.62a4.31 4.31 0 001 1.46 6.46 6.46 0 001.81 1.13 7.25 7.25 0 003.73.49c1-.15 1.49-.49 1.44-.67s-.61-.23-1.45-.34a13 13 0 01-3.17-.8 8 8 0 01-1.52-.83 5.17 5.17 0 01-1-.94c-.43-.62-.62-1.15-.84-1.12zM81 113.84c-.07.18.8.71 2.33 1.33a19 19 0 006.34 1.37A14 14 0 0096 115.2c1.51-.74 2.28-1.43 2.19-1.58s-1 .18-2.55.64a18.82 18.82 0 01-6 .86 33.2 33.2 0 01-6.08-.91c-1.56-.36-2.51-.56-2.56-.37zM77.62 109.81s.1.08.3.08a2.26 2.26 0 00.37 0 4 4 0 00.49-.09 10 10 0 002.79-1.32c.54-.3 1.15-.64 1.79-.93a2.45 2.45 0 011.82-.27c.55.2 1.33.9 2.3 1.24a6.45 6.45 0 001.51.39 4.77 4.77 0 00.86 0 6.07 6.07 0 00.85-.16 9.63 9.63 0 002.67-1.47 6.6 6.6 0 012.09-1.12 3.18 3.18 0 011.94.15 9.84 9.84 0 011.67 1 20.74 20.74 0 002.53 1.69c.67.33 1.08.4 1.11.32s-.27-.34-.8-.78-1.24-1.16-2.21-2a9.27 9.27 0 00-1.81-1.29 5.16 5.16 0 00-1.28-.39 4.12 4.12 0 00-1.44 0c-2 .43-3.32 2.06-4.86 2.49a3.06 3.06 0 01-.57.12 2.83 2.83 0 01-.57 0 5.18 5.18 0 01-1.19-.29 5.83 5.83 0 01-1.1-.53 6.25 6.25 0 00-1.27-.65 2.85 2.85 0 00-.81-.13 3.49 3.49 0 00-.75.1 2.83 2.83 0 00-.64.22 4.27 4.27 0 00-.57.26 18.49 18.49 0 00-1.84 1.18 16.56 16.56 0 01-2.44 1.65l-.41.2-.31.13c-.14.08-.23.15-.22.2z"/></svg>