<svg data-name="Capa 1" xmlns="http://www.w3.org/2000/svg" viewBox="0 0 179.21 156.23"><path d="M89.46 4.3c-.07.16 0 .28.05.28h.19c.1 0 .12-.12 0-.28s-.16-.15-.24 0zM113.52 124.16c-8.83 0-14.63 8.59-14.63 8.59a5.91 5.91 0 002.19 8.7l20.89 11a7.24 7.24 0 009.42-2.64s1.14-1.9 1.14-6.63a19 19 0 00-19.01-19.02zM65.69 124.16a19 19 0 00-19 19c0 4.73 1.14 6.63 1.14 6.63a7.23 7.23 0 009.42 2.64l20.88-11a5.91 5.91 0 002.2-8.7s-5.82-8.57-14.64-8.57zM118.43 104.9c0 9.48 10.19 15.4 10.19 15.4 3.2 1.85 5.3.39 4.68-3.25l-.9-5.27a14.38 14.38 0 013.67-11.32l7-6.77c2.64-2.58 2.07-6-1.27-7.57 0 0-.48-.23-4.32-.23a19 19 0 00-19.05 19.01zM70.6 104.9a19 19 0 1019-19 19 19 0 00-19 19zM60.78 104.9a19 19 0 00-19-19c-3.84 0-4.32.23-4.32.23-3.35 1.58-3.91 5-1.27 7.57l7 6.77a14.35 14.35 0 013.68 11.32l-.9 5.27c-.63 3.64 1.48 5.1 4.68 3.25-.06-.01 10.13-5.93 10.13-15.41zM151.15 76.59a8.74 8.74 0 0010.42-1l6.53-6.37c2.65-2.58 1.82-5.12-1.84-5.66l-17.18-2.49c-3.66-.54-6.69-.45-6.74.18v.58c0 8.94 8.81 14.76 8.81 14.76zM94.51 61.85a19 19 0 0038 0v-1.09c-.15-1.17-3.27-2.55-6.93-3.09l-3.6-.52a14.38 14.38 0 01-9.63-7l-.37-.75a5.8 5.8 0 00-8.59-2.34s-8.88 5.84-8.88 14.79zM65.69 80.86a19 19 0 0019-19c0-9-8.9-14.78-8.9-14.78a5.82 5.82 0 00-8.6 2.34l-.37.75a14.34 14.34 0 01-9.62 7l-3.6.52c-3.66.54-6.78 1.92-6.93 3.09v1.09a19 19 0 0019.02 18.99zM36.87 61.85v-.58c0-.63-3.08-.72-6.74-.18l-17.19 2.49c-3.65.54-4.48 3.08-1.83 5.66l6.53 6.37a8.74 8.74 0 0010.42 1s8.81-5.84 8.81-14.76z" fill="#f9b617"/><path d="M89.51 4.58c-.1 0-1.52 2.72-3.16 6l-9 18.29a9.11 9.11 0 002.15 10.39 17.17 17.17 0 0020.27 0 9.11 9.11 0 002.15-10.39l-9-18.29c-1.64-3.31-3.06-6-3.16-6h-.19z" fill="#f9b617"/><path d="M66 111.17c-.26.41 2 2.29 6.18 4.07a44.86 44.86 0 0017.5 3.38 46 46 0 009.81-1.08 44.79 44.79 0 007.66-2.43c4.19-1.81 6.45-3.54 6.24-3.94s-2.85.42-7.06 1.55c-2.12.54-4.63 1.15-7.45 1.59a62.51 62.51 0 01-9.22.74 64.62 64.62 0 01-16.66-2.2c-4.27-1.1-6.8-2.11-7-1.68z"/><path d="M64.94 113.86c.2-.06.21-.55.23-1.26a3.21 3.21 0 012.66-3.54c.67-.22 1.14-.37 1.14-.58s-.47-.4-1.28-.42a4.22 4.22 0 00-1.46.25 3.27 3.27 0 00-1.58 1.13 3.35 3.35 0 00-.65 1.84 4.21 4.21 0 00.17 1.46c.25.78.59 1.17.77 1.12zM111.32 109.15c.08.2.53.18 1.14.28a3.32 3.32 0 011.93.95 3.15 3.15 0 01.79 2c0 .62 0 1.07.18 1.16s.21 0 .36-.19a2.16 2.16 0 00.46-.83 3.23 3.23 0 00.08-1.45 3.09 3.09 0 00-.83-1.65 3.41 3.41 0 00-1.57-.94 3.27 3.27 0 00-1.45 0c-.8.12-1.16.52-1.09.67zM103.18 86.87c0 4.44 2.12 8 4.73 8s4.73-3.6 4.73-8-2.11-8-4.73-8-4.73 3.56-4.73 8z"/><path d="M113.7 76.1c-.2.11 0 .79 0 1.82v.84a7.22 7.22 0 01-.2.94 7.5 7.5 0 01-1 2 7.1 7.1 0 01-1.5 1.53 5 5 0 01-.81.49 5 5 0 01-.77.34c-1 .33-1.7.33-1.74.56s.15.2.48.31a1.86 1.86 0 00.63.12 3 3 0 00.84 0 4 4 0 001-.22 4.89 4.89 0 001.08-.49 6.48 6.48 0 002-1.84 7 7 0 001.03-2.5 6.07 6.07 0 00.1-1.18v-.53c0-.17-.07-.33-.1-.49-.31-1.24-.91-1.8-1.04-1.7z"/><path d="M116.61 81.48c-.22 0-.42.51-.92 1.12a5.41 5.41 0 01-1 1 8.34 8.34 0 01-1.52.82 12.65 12.65 0 01-3.17.8c-.85.12-1.41.14-1.46.35s.48.52 1.44.66a7.32 7.32 0 003.73-.48 6.78 6.78 0 001.82-1.14 4.18 4.18 0 001-1.45c.47-1.02.24-1.67.08-1.68zM76.93 86.87c0 4.44-2.12 8-4.74 8s-4.73-3.6-4.73-8 2.12-8 4.73-8 4.74 3.56 4.74 8z"/><path d="M66.41 76.1c-.13-.08-.74.46-1 1.71l-.09.49a4.61 4.61 0 000 .53 5.38 5.38 0 00.1 1.18 7 7 0 001.07 2.48 6.72 6.72 0 002 1.84 5 5 0 001.09.49 4 4 0 001 .22 3 3 0 00.84 0 1.75 1.75 0 00.62-.12c.33-.11.5-.21.48-.31s-.75-.23-1.73-.56a7.32 7.32 0 01-1.59-.83 7.33 7.33 0 01-1.53-1.56 7.77 7.77 0 01-1-2 7.22 7.22 0 01-.2-.94c0-.15 0-.29-.06-.43s0-.28 0-.41c-.03-.99.2-1.67 0-1.78z"/><path d="M63.5 81.48c-.17 0-.35.66 0 1.63a4.18 4.18 0 001 1.45 6.63 6.63 0 001.9 1.14 7.29 7.29 0 003.72.48c1-.14 1.5-.49 1.45-.66s-.62-.23-1.46-.35a12.55 12.55 0 01-3.17-.8 8.34 8.34 0 01-1.52-.82 5.19 5.19 0 01-1-1c-.51-.55-.7-1.1-.92-1.07zM81 118.91c-.07.17.8.71 2.33 1.33a19 19 0 006.34 1.37 14 14 0 006.33-1.34c1.51-.74 2.28-1.44 2.19-1.59s-1 .18-2.55.65a19.14 19.14 0 01-6 .85 31.55 31.55 0 01-6.08-.91c-1.56-.36-2.51-.56-2.56-.36zM77.62 114.87s.1.08.3.09h.37l.49-.09a10.46 10.46 0 002.8-1.32 18.44 18.44 0 011.78-.93 2.46 2.46 0 011.82-.28c.55.2 1.33.91 2.3 1.25A7 7 0 0089 114a4 4 0 00.86 0 4.11 4.11 0 00.85-.16 9.14 9.14 0 002.67-1.47 6.88 6.88 0 012.09-1.11 3.18 3.18 0 011.94.15 9.23 9.23 0 011.67 1 22 22 0 002.53 1.69c.67.33 1.08.39 1.11.31s-.27-.33-.8-.78-1.24-1.16-2.21-2a9.94 9.94 0 00-1.8-1.28 5 5 0 00-1.29-.4 4.12 4.12 0 00-1.44 0c-2 .43-3.32 2.06-4.86 2.5a4.08 4.08 0 01-.57.11 2.79 2.79 0 01-.57 0 5.18 5.18 0 01-1.19-.29 5.83 5.83 0 01-1.1-.53 6.79 6.79 0 00-1.27-.66 3.26 3.26 0 00-.81-.13 3.47 3.47 0 00-.75.11 3.43 3.43 0 00-.64.21 4.29 4.29 0 00-.57.27A18.49 18.49 0 0081 112.7a17.41 17.41 0 01-2.44 1.65l-.41.2a3.24 3.24 0 00-.31.13c-.14.08-.23.14-.22.19z"/></svg>