<svg id="Capa_1" data-name="Capa 1" xmlns="http://www.w3.org/2000/svg" viewBox="0 0 179.21 156.23"><polygon points="75.9 138.13 103.31 138.13 89.6 130.93 75.9 138.13" style="fill:#f9b617"/><polygon points="89.6 0.37 79.96 19.91 99.25 19.91 89.6 0.37" style="fill:#f9b617"/><polygon points="131.45 103.52 47.76 103.52 44.29 123.76 134.92 123.76 131.45 103.52" style="fill:#f9b617"/><polygon points="140.76 157.83 137.39 138.13 103.31 138.13 140.76 157.83" style="fill:#f9b617"/><polygon points="163.78 68.9 15.43 68.9 36.19 89.14 143.02 89.14 163.78 68.9" style="fill:#f9b617"/><polygon points="75.9 138.13 41.82 138.13 38.44 157.83 75.9 138.13" style="fill:#f9b617"/><polygon points="115.18 52.2 106.34 34.28 72.87 34.28 64.02 52.2 115.18 52.2" style="fill:#f9b617"/><path d="M65.94,106.1c-.26.42,2,2.29,6.19,4.08a45.06,45.06,0,0,0,17.5,3.37,46.72,46.72,0,0,0,9.81-1.07A44.74,44.74,0,0,0,107.1,110c4.19-1.81,6.45-3.53,6.24-3.94s-2.85.43-7.06,1.55a76,76,0,0,1-7.45,1.59,59.9,59.9,0,0,1-9.22.74A64.23,64.23,0,0,1,73,107.79C68.73,106.69,66.2,105.67,65.94,106.1Z"/><path d="M64.94,108.79c.2-.06.21-.55.23-1.25a4.13,4.13,0,0,1,.62-2.31,4.25,4.25,0,0,1,2-1.23c.67-.23,1.14-.38,1.14-.59s-.47-.4-1.28-.41a4.18,4.18,0,0,0-1.46.24,3.34,3.34,0,0,0-1.58,1.13,3.4,3.4,0,0,0-.65,1.84,4.07,4.07,0,0,0,.17,1.47C64.42,108.46,64.76,108.84,64.94,108.79Z"/><path d="M111.32,104.08c.08.2.53.19,1.14.28a3.38,3.38,0,0,1,1.93,1,3.17,3.17,0,0,1,.79,2c0,.62,0,1.08.18,1.16s.21,0,.36-.19a2.18,2.18,0,0,0,.46-.82,3.26,3.26,0,0,0,.08-1.46,3.07,3.07,0,0,0-.83-1.64,3.41,3.41,0,0,0-1.57-.94,3.14,3.14,0,0,0-1.45-.05C111.61,103.54,111.25,103.92,111.32,104.08Z"/><path d="M103.18,81.81c0,4.44,2.12,8,4.73,8s4.73-3.6,4.73-8-2.11-8-4.73-8S103.18,77.36,103.18,81.81Z"/><path d="M113.69,71c-.2.1,0,.78,0,1.82,0,.13,0,.26,0,.4s0,.29,0,.44a7.22,7.22,0,0,1-.2.94,7.44,7.44,0,0,1-1,2A6.89,6.89,0,0,1,111,78.16a5.08,5.08,0,0,1-.81.5,5,5,0,0,1-.77.33c-1,.33-1.7.34-1.74.57s.15.2.48.31a2.13,2.13,0,0,0,.62.12,4.06,4.06,0,0,0,.85,0,5.12,5.12,0,0,0,1-.22,6,6,0,0,0,1.08-.49,6.73,6.73,0,0,0,2-1.84A7.08,7.08,0,0,0,114.74,75a6.2,6.2,0,0,0,.1-1.18c0-.19,0-.37,0-.54s-.07-.33-.1-.49C114.43,71.5,113.83,71,113.69,71Z"/><path d="M116.61,76.42c-.22,0-.42.5-.92,1.12a5.39,5.39,0,0,1-1,.94,8.36,8.36,0,0,1-1.52.83,13.1,13.1,0,0,1-3.17.8c-.85.11-1.41.14-1.46.34s.48.52,1.44.67a7.23,7.23,0,0,0,3.73-.49,6.52,6.52,0,0,0,1.82-1.13,4.31,4.31,0,0,0,1-1.46C117,77.07,116.77,76.43,116.61,76.42Z"/><path d="M76.93,81.81c0,4.44-2.12,8-4.74,8s-4.73-3.6-4.73-8,2.12-8,4.73-8S76.93,77.36,76.93,81.81Z"/><path d="M66.41,71c-.13-.09-.74.46-1,1.7l-.09.49a4.7,4.7,0,0,0,0,.54,5.48,5.48,0,0,0,.1,1.18,7.05,7.05,0,0,0,1.07,2.48,6.85,6.85,0,0,0,2,1.84,6.11,6.11,0,0,0,1.09.49,5.12,5.12,0,0,0,1,.22,4,4,0,0,0,.84,0,2.07,2.07,0,0,0,.62-.12c.33-.11.5-.22.48-.31s-.75-.24-1.73-.57a5,5,0,0,1-.77-.33,5.15,5.15,0,0,1-.82-.5,7.1,7.1,0,0,1-1.53-1.56,7.72,7.72,0,0,1-1-2,7.22,7.22,0,0,1-.2-.94c0-.15,0-.3-.06-.44s0-.27,0-.4C66.38,71.82,66.61,71.14,66.41,71Z"/><path d="M63.5,76.42c-.17,0-.35.65,0,1.62a4.31,4.31,0,0,0,1,1.46,6.46,6.46,0,0,0,1.81,1.13,7.25,7.25,0,0,0,3.73.49c1-.15,1.49-.49,1.44-.67s-.61-.23-1.45-.34a13,13,0,0,1-3.17-.8,8,8,0,0,1-1.52-.83,5.17,5.17,0,0,1-1-.94C63.91,76.92,63.72,76.39,63.5,76.42Z"/><path d="M81,113.84c-.07.18.8.71,2.33,1.33a19,19,0,0,0,6.34,1.37A14,14,0,0,0,96,115.2c1.51-.74,2.28-1.43,2.19-1.58s-1,.18-2.55.64a18.82,18.82,0,0,1-6,.86,33.2,33.2,0,0,1-6.08-.91C82,113.85,81.05,113.65,81,113.84Z"/><path d="M77.62,109.81s.1.08.3.08a2.26,2.26,0,0,0,.37,0,4,4,0,0,0,.49-.09,10,10,0,0,0,2.79-1.32c.54-.3,1.15-.64,1.79-.93a2.45,2.45,0,0,1,1.82-.27c.55.2,1.33.9,2.3,1.24a6.45,6.45,0,0,0,1.51.39,4.77,4.77,0,0,0,.86,0,6.07,6.07,0,0,0,.85-.16,9.63,9.63,0,0,0,2.67-1.47,6.6,6.6,0,0,1,2.09-1.12,3.18,3.18,0,0,1,1.94.15,9.84,9.84,0,0,1,1.67,1A20.74,20.74,0,0,0,101.6,109c.67.33,1.08.4,1.11.32s-.27-.34-.8-.78-1.24-1.16-2.21-2a9.27,9.27,0,0,0-1.81-1.29,5.16,5.16,0,0,0-1.28-.39,4.12,4.12,0,0,0-1.44,0c-2,.43-3.32,2.06-4.86,2.49a3.06,3.06,0,0,1-.57.12,2.83,2.83,0,0,1-.57,0,5.18,5.18,0,0,1-1.19-.29,5.83,5.83,0,0,1-1.1-.53,6.25,6.25,0,0,0-1.27-.65,2.85,2.85,0,0,0-.81-.13,3.49,3.49,0,0,0-.75.1,2.83,2.83,0,0,0-.64.22,4.27,4.27,0,0,0-.57.26A18.49,18.49,0,0,0,81,107.63a16.56,16.56,0,0,1-2.44,1.65l-.41.2-.31.13C77.7,109.69,77.61,109.76,77.62,109.81Z"/></svg>