<svg id="Capa_1" data-name="Capa 1" xmlns="http://www.w3.org/2000/svg" viewBox="0 0 179.21 156.23"><path d="M65.5,108.91c-.26.41,2,2.29,6.18,4.08a45.06,45.06,0,0,0,17.5,3.37A46.89,46.89,0,0,0,99,115.29a45.5,45.5,0,0,0,7.65-2.44c4.19-1.81,6.45-3.53,6.24-3.94s-2.85.42-7.06,1.55a75.35,75.35,0,0,1-7.45,1.59,59.87,59.87,0,0,1-9.21.74A64.25,64.25,0,0,1,72.5,110.6C68.28,109.5,65.75,108.48,65.5,108.91Z"/><path d="M64.49,111.6c.2-.06.21-.55.23-1.25a4.21,4.21,0,0,1,.62-2.31,4.15,4.15,0,0,1,2-1.23c.67-.23,1.13-.38,1.13-.59s-.47-.4-1.28-.41a4.18,4.18,0,0,0-1.46.24,3.34,3.34,0,0,0-1.58,1.13,3.4,3.4,0,0,0-.65,1.84,4.31,4.31,0,0,0,.17,1.47C64,111.27,64.31,111.65,64.49,111.6Z"/><path d="M110.88,106.89c.07.2.53.19,1.13.28a3.38,3.38,0,0,1,1.93,1,3.17,3.17,0,0,1,.79,2c0,.62,0,1.08.18,1.16s.21,0,.37-.19a2.34,2.34,0,0,0,.45-.82,3.27,3.27,0,0,0,.08-1.46,3.13,3.13,0,0,0-.83-1.65,3.39,3.39,0,0,0-1.57-.93,3.14,3.14,0,0,0-1.45,0C111.16,106.35,110.81,106.73,110.88,106.89Z"/><path d="M102.73,84.61c0,4.45,2.12,8,4.73,8s4.73-3.6,4.73-8-2.11-8-4.73-8S102.73,80.17,102.73,84.61Z"/><path d="M113.25,73.85c-.2.1,0,.78,0,1.82,0,.13,0,.26,0,.4s0,.29-.05.44a6.76,6.76,0,0,1-.2.93,7.35,7.35,0,0,1-1,2A7.1,7.1,0,0,1,110.51,81a5.08,5.08,0,0,1-.81.5,5,5,0,0,1-.77.33c-1,.33-1.7.34-1.73.56s.14.21.48.32a2.35,2.35,0,0,0,.62.12,4,4,0,0,0,.84,0,4.54,4.54,0,0,0,1-.23,5.34,5.34,0,0,0,1.08-.48,6.61,6.61,0,0,0,2-1.84,7.16,7.16,0,0,0,1.08-2.48,6.2,6.2,0,0,0,.1-1.18c0-.19,0-.37,0-.54s-.07-.33-.09-.49C114,74.31,113.38,73.76,113.25,73.85Z"/><path d="M116.16,79.23c-.22,0-.42.5-.92,1.12a5.39,5.39,0,0,1-1,.94,9,9,0,0,1-1.52.83,13.1,13.1,0,0,1-3.17.8c-.85.11-1.41.14-1.46.34s.48.52,1.44.67a7.23,7.23,0,0,0,3.73-.49,6.38,6.38,0,0,0,1.82-1.13,4.31,4.31,0,0,0,1-1.46C116.51,79.88,116.33,79.23,116.16,79.23Z"/><path d="M76.48,84.61c0,4.45-2.12,8-4.73,8s-4.74-3.6-4.74-8,2.12-8,4.74-8S76.48,80.17,76.48,84.61Z"/><path d="M66,73.85c-.13-.09-.74.46-1,1.7l-.09.49a4.7,4.7,0,0,0,0,.54,5.48,5.48,0,0,0,.1,1.18A7.32,7.32,0,0,0,66,80.24a6.76,6.76,0,0,0,2,1.84,5.11,5.11,0,0,0,1.08.48,4.54,4.54,0,0,0,1,.23,4,4,0,0,0,.84,0,2.35,2.35,0,0,0,.62-.12c.33-.11.5-.22.48-.32s-.75-.23-1.73-.56a5,5,0,0,1-.77-.33,5.15,5.15,0,0,1-.82-.5,7.33,7.33,0,0,1-1.53-1.56,7.61,7.61,0,0,1-1-2,6.76,6.76,0,0,1-.2-.93c0-.15,0-.3-.06-.44v-.4C65.93,74.63,66.16,74,66,73.85Z"/><path d="M63.05,79.23c-.17,0-.35.65,0,1.62a4.31,4.31,0,0,0,1,1.46A6.38,6.38,0,0,0,66,83.44a7.21,7.21,0,0,0,3.72.49c1-.15,1.5-.49,1.45-.67s-.62-.23-1.46-.34a13.1,13.1,0,0,1-3.17-.8A9,9,0,0,1,65,81.29a4.82,4.82,0,0,1-1-.94C63.47,79.73,63.27,79.2,63.05,79.23Z"/><path d="M80.53,116.65c-.07.18.8.71,2.33,1.33a19.08,19.08,0,0,0,6.34,1.37A14,14,0,0,0,95.6,118c1.5-.74,2.27-1.43,2.18-1.58s-1,.18-2.55.64a18.85,18.85,0,0,1-6,.85,31.55,31.55,0,0,1-6.08-.91C81.59,116.66,80.6,116.46,80.53,116.65Z"/><path d="M77.17,112.62s.11.07.3.08h.37a3.7,3.7,0,0,0,.49-.09,10.16,10.16,0,0,0,2.8-1.32c.54-.3,1.14-.64,1.78-.93a2.45,2.45,0,0,1,1.82-.27c.55.2,1.33.9,2.3,1.24a6.45,6.45,0,0,0,1.51.39,4.77,4.77,0,0,0,.86,0,6.07,6.07,0,0,0,.85-.16,9.49,9.49,0,0,0,2.67-1.47A6.82,6.82,0,0,1,95,109a3.18,3.18,0,0,1,1.94.15,9.84,9.84,0,0,1,1.67,1,22,22,0,0,0,2.53,1.69c.67.33,1.08.4,1.11.32s-.27-.34-.8-.78-1.24-1.17-2.21-2a9.18,9.18,0,0,0-1.8-1.29,5.37,5.37,0,0,0-1.29-.39,4.12,4.12,0,0,0-1.44,0c-2,.42-3.31,2.06-4.86,2.49a2.9,2.9,0,0,1-.57.12,2.83,2.83,0,0,1-.57,0,5.31,5.31,0,0,1-1.19-.29,5.48,5.48,0,0,1-1.09-.53,6.63,6.63,0,0,0-1.28-.65,2.85,2.85,0,0,0-.81-.13,3,3,0,0,0-.75.1A3,3,0,0,0,83,109a4.27,4.27,0,0,0-.57.26,18.49,18.49,0,0,0-1.81,1.15,16.56,16.56,0,0,1-2.44,1.65l-.41.2-.31.13C77.25,112.5,77.16,112.57,77.17,112.62Z"/><path d="M168.72,67.38c2.65-2.58,1.83-5.13-1.83-5.66l-44.7-6.49a14.34,14.34,0,0,1-9.62-7l-20-40.49c-1.64-3.32-4.32-3.32-6,0l-20,40.49a14.34,14.34,0,0,1-9.63,7L12.32,61.72c-3.66.53-4.48,3.08-1.84,5.66L42.82,98.9a14.36,14.36,0,0,1,3.68,11.32l-7.63,44.51c-.63,3.65,1.54,5.22,4.81,3.5l40-21a14.37,14.37,0,0,1,11.9,0l40,21c3.27,1.72,5.44.15,4.81-3.5l-7.63-44.51a14.36,14.36,0,0,1,3.68-11.32ZM95.57,123.81a14.61,14.61,0,0,0-11.94,0L56.3,138c-3.28,1.7-5.45.11-4.81-3.53l5.19-29.83A14.18,14.18,0,0,0,53,93.33L30.91,72.14c-2.66-2.56-1.85-5.09,1.81-5.61l30.59-4.38a14.46,14.46,0,0,0,9.67-7L86.59,28c1.66-3.31,4.37-3.31,6,0l13.61,27.17a14.44,14.44,0,0,0,9.66,7l30.6,4.38c3.66.52,4.48,3,1.81,5.61L126.22,93.33a14.17,14.17,0,0,0-3.69,11.28l5.19,29.83c.64,3.64-1.53,5.23-4.81,3.53Z" style="fill:#f9b617"/></svg>