<svg id="Capa_1" data-name="Capa 1" xmlns="http://www.w3.org/2000/svg" viewBox="0 0 179.21 156.23"><path d="M89.46,4.3c-.07.16,0,.28.05.28h.19c.1,0,.12-.12,0-.28S89.54,4.15,89.46,4.3Z" style="fill:#f9b617"/><path d="M113.52,124.16c-8.83,0-14.63,8.59-14.63,8.59a5.91,5.91,0,0,0,2.19,8.7l20.89,11a7.24,7.24,0,0,0,9.42-2.64s1.14-1.9,1.14-6.63A19,19,0,0,0,113.52,124.16Z" style="fill:#f9b617"/><path d="M65.69,124.16a19,19,0,0,0-19,19c0,4.73,1.14,6.63,1.14,6.63a7.23,7.23,0,0,0,9.42,2.64l20.88-11a5.91,5.91,0,0,0,2.2-8.7S74.51,124.16,65.69,124.16Z" style="fill:#f9b617"/><path d="M118.43,104.9c0,9.48,10.19,15.4,10.19,15.4,3.2,1.85,5.3.39,4.68-3.25l-.9-5.27a14.38,14.38,0,0,1,3.67-11.32l7-6.77c2.64-2.58,2.07-6-1.27-7.57,0,0-.48-.23-4.32-.23A19,19,0,0,0,118.43,104.9Z" style="fill:#f9b617"/><path d="M70.6,104.9a19,19,0,1,0,19-19A19,19,0,0,0,70.6,104.9Z" style="fill:#f9b617"/><path d="M60.78,104.9a19,19,0,0,0-19-19c-3.84,0-4.32.23-4.32.23-3.35,1.58-3.91,5-1.27,7.57l7,6.77a14.35,14.35,0,0,1,3.68,11.32l-.9,5.27c-.63,3.64,1.48,5.1,4.68,3.25C50.59,120.3,60.78,114.38,60.78,104.9Z" style="fill:#f9b617"/><path d="M151.15,76.59a8.74,8.74,0,0,0,10.42-1l6.53-6.37c2.65-2.58,1.82-5.12-1.84-5.66l-17.18-2.49c-3.66-.54-6.69-.45-6.74.18v.58C142.34,70.77,151.15,76.59,151.15,76.59Z" style="fill:#f9b617"/><path d="M94.51,61.85a19,19,0,0,0,38,0V60.76c-.15-1.17-3.27-2.55-6.93-3.09l-3.6-.52a14.38,14.38,0,0,1-9.63-7l-.37-.75a5.8,5.8,0,0,0-8.59-2.34S94.51,52.9,94.51,61.85Z" style="fill:#f9b617"/><path d="M65.69,80.86a19,19,0,0,0,19-19c0-9-8.9-14.78-8.9-14.78a5.82,5.82,0,0,0-8.6,2.34l-.37.75a14.34,14.34,0,0,1-9.62,7l-3.6.52c-3.66.54-6.78,1.92-6.93,3.09v1.09A19,19,0,0,0,65.69,80.86Z" style="fill:#f9b617"/><path d="M36.87,61.85v-.58c0-.63-3.08-.72-6.74-.18L12.94,63.58c-3.65.54-4.48,3.08-1.83,5.66l6.53,6.37a8.74,8.74,0,0,0,10.42,1S36.87,70.77,36.87,61.85Z" style="fill:#f9b617"/><path d="M89.51,4.58c-.1,0-1.52,2.72-3.16,6l-9,18.29a9.11,9.11,0,0,0,2.15,10.39,17.17,17.17,0,0,0,20.27,0,9.11,9.11,0,0,0,2.15-10.39l-9-18.29c-1.64-3.31-3.06-6-3.16-6h-.19Z" style="fill:#f9b617"/><path d="M66,111.17c-.26.41,2,2.29,6.18,4.07a44.86,44.86,0,0,0,17.5,3.38,46,46,0,0,0,9.81-1.08,44.79,44.79,0,0,0,7.66-2.43c4.19-1.81,6.45-3.54,6.24-3.94s-2.85.42-7.06,1.55c-2.12.54-4.63,1.15-7.45,1.59a62.51,62.51,0,0,1-9.22.74A64.62,64.62,0,0,1,73,112.85C68.73,111.75,66.2,110.74,66,111.17Z"/><path d="M64.94,113.86c.2-.06.21-.55.23-1.26a3.21,3.21,0,0,1,2.66-3.54c.67-.22,1.14-.37,1.14-.58s-.47-.4-1.28-.42a4.22,4.22,0,0,0-1.46.25,3.27,3.27,0,0,0-1.58,1.13,3.35,3.35,0,0,0-.65,1.84,4.21,4.21,0,0,0,.17,1.46C64.42,113.52,64.76,113.91,64.94,113.86Z"/><path d="M111.32,109.15c.08.2.53.18,1.14.28a3.32,3.32,0,0,1,1.93.95,3.15,3.15,0,0,1,.79,2c0,.62,0,1.07.18,1.16s.21,0,.36-.19a2.16,2.16,0,0,0,.46-.83,3.23,3.23,0,0,0,.08-1.45,3.09,3.09,0,0,0-.83-1.65,3.41,3.41,0,0,0-1.57-.94,3.27,3.27,0,0,0-1.45,0C111.61,108.6,111.25,109,111.32,109.15Z"/><path d="M103.18,86.87c0,4.44,2.12,8,4.73,8s4.73-3.6,4.73-8-2.11-8-4.73-8S103.18,82.43,103.18,86.87Z"/><path d="M113.7,76.1c-.2.11,0,.79,0,1.82,0,.13,0,.27,0,.41s0,.28,0,.43a7.22,7.22,0,0,1-.2.94,7.5,7.5,0,0,1-1,2A7.1,7.1,0,0,1,111,83.23a5,5,0,0,1-.81.49,5,5,0,0,1-.77.34c-1,.33-1.7.33-1.74.56s.15.2.48.31a1.86,1.86,0,0,0,.63.12,3,3,0,0,0,.84,0,4,4,0,0,0,1-.22,4.89,4.89,0,0,0,1.08-.49,6.48,6.48,0,0,0,2-1.84A7,7,0,0,0,114.74,80a6.07,6.07,0,0,0,.1-1.18c0-.18,0-.36,0-.53s-.07-.33-.1-.49C114.43,76.56,113.83,76,113.7,76.1Z"/><path d="M116.61,81.48c-.22,0-.42.51-.92,1.12a5.41,5.41,0,0,1-1,1,8.34,8.34,0,0,1-1.52.82,12.65,12.65,0,0,1-3.17.8c-.85.12-1.41.14-1.46.35s.48.52,1.44.66a7.32,7.32,0,0,0,3.73-.48,6.78,6.78,0,0,0,1.82-1.14,4.18,4.18,0,0,0,1-1.45C117,82.14,116.77,81.49,116.61,81.48Z"/><path d="M76.93,86.87c0,4.44-2.12,8-4.74,8s-4.73-3.6-4.73-8,2.12-8,4.73-8S76.93,82.43,76.93,86.87Z"/><path d="M66.41,76.1c-.13-.08-.74.46-1,1.71l-.09.49a4.61,4.61,0,0,0,0,.53,5.38,5.38,0,0,0,.1,1.18,7,7,0,0,0,1.07,2.48,6.72,6.72,0,0,0,2,1.84,5,5,0,0,0,1.09.49,4,4,0,0,0,1,.22,3,3,0,0,0,.84,0,1.75,1.75,0,0,0,.62-.12c.33-.11.5-.21.48-.31s-.75-.23-1.73-.56a7.32,7.32,0,0,1-1.59-.83,7.33,7.33,0,0,1-1.53-1.56,7.77,7.77,0,0,1-1-2,7.22,7.22,0,0,1-.2-.94c0-.15,0-.29-.06-.43s0-.28,0-.41C66.38,76.89,66.61,76.21,66.41,76.1Z"/><path d="M63.5,81.48c-.17,0-.35.66,0,1.63a4.18,4.18,0,0,0,1,1.45A6.63,6.63,0,0,0,66.4,85.7a7.29,7.29,0,0,0,3.72.48c1-.14,1.5-.49,1.45-.66s-.62-.23-1.46-.35a12.55,12.55,0,0,1-3.17-.8,8.34,8.34,0,0,1-1.52-.82,5.19,5.19,0,0,1-1-1C63.91,82,63.72,81.45,63.5,81.48Z"/><path d="M81,118.91c-.07.17.8.71,2.33,1.33a19,19,0,0,0,6.34,1.37A14,14,0,0,0,96,120.27c1.51-.74,2.28-1.44,2.19-1.59s-1,.18-2.55.65a19.14,19.14,0,0,1-6,.85,31.55,31.55,0,0,1-6.08-.91C82,118.91,81.05,118.71,81,118.91Z"/><path d="M77.62,114.87s.1.08.3.09h.37l.49-.09a10.46,10.46,0,0,0,2.8-1.32,18.44,18.44,0,0,1,1.78-.93,2.46,2.46,0,0,1,1.82-.28c.55.2,1.33.91,2.3,1.25A7,7,0,0,0,89,114a4,4,0,0,0,.86,0,4.11,4.11,0,0,0,.85-.16,9.14,9.14,0,0,0,2.67-1.47,6.88,6.88,0,0,1,2.09-1.11,3.18,3.18,0,0,1,1.94.15,9.23,9.23,0,0,1,1.67,1,22,22,0,0,0,2.53,1.69c.67.33,1.08.39,1.11.31s-.27-.33-.8-.78-1.24-1.16-2.21-2a9.94,9.94,0,0,0-1.8-1.28,5,5,0,0,0-1.29-.4,4.12,4.12,0,0,0-1.44,0c-2,.43-3.32,2.06-4.86,2.5a4.08,4.08,0,0,1-.57.11,2.79,2.79,0,0,1-.57,0,5.18,5.18,0,0,1-1.19-.29,5.83,5.83,0,0,1-1.1-.53,6.79,6.79,0,0,0-1.27-.66,3.26,3.26,0,0,0-.81-.13,3.47,3.47,0,0,0-.75.11,3.43,3.43,0,0,0-.64.21,4.29,4.29,0,0,0-.57.27A18.49,18.49,0,0,0,81,112.7a17.41,17.41,0,0,1-2.44,1.65l-.41.2a3.24,3.24,0,0,0-.31.13C77.7,114.76,77.61,114.82,77.62,114.87Z"/></svg>