<svg data-name="Capa 1" xmlns="http://www.w3.org/2000/svg" viewBox="0 0 179.21 156.23"><path d="M86.63 4.12c1.63-3.32 4.31-3.32 6 0l20 40.49a14.34 14.34 0 009.62 7l44.7 6.49c3.66.54 4.48 3.08 1.83 5.66l-32.39 31.53a14.33 14.33 0 00-3.68 11.31l7.63 44.52c.63 3.64-1.54 5.21-4.81 3.49l-40-21a14.37 14.37 0 00-11.9 0l-40 21c-3.27 1.72-5.44.15-4.81-3.49l7.68-44.52a14.33 14.33 0 00-3.68-11.31L10.48 63.76c-2.64-2.58-1.82-5.12 1.84-5.66L57 51.61a14.34 14.34 0 009.63-7z" fill="#f9b617"/><path d="M65.5 105.29c-.26.42 2 2.29 6.18 4.08a45 45 0 0017.5 3.38 46.87 46.87 0 009.82-1.08 43.74 43.74 0 007.65-2.44c4.19-1.81 6.45-3.53 6.24-3.94s-2.85.43-7.06 1.55a75.35 75.35 0 01-7.45 1.59 59.87 59.87 0 01-9.21.74A64.25 64.25 0 0172.5 107c-4.22-1.12-6.75-2.14-7-1.71z"/><path d="M64.49 108c.2-.06.21-.55.23-1.25a3.21 3.21 0 012.67-3.54c.67-.23 1.13-.38 1.13-.59s-.47-.4-1.28-.41a4.18 4.18 0 00-1.46.24 3.3 3.3 0 00-1.58 1.14 3.34 3.34 0 00-.65 1.83 4.31 4.31 0 00.17 1.47c.28.76.59 1.11.77 1.11zM110.88 103.28c.07.19.53.18 1.13.27a3.4 3.4 0 011.93 1 3.12 3.12 0 01.79 2c0 .62 0 1.08.18 1.17s.21 0 .37-.2a2.34 2.34 0 00.45-.82 3.23 3.23 0 00.08-1.45 3.09 3.09 0 00-.83-1.65 3.41 3.41 0 00-1.57-.94 3.14 3.14 0 00-1.45 0c-.8.07-1.15.45-1.08.62zM102.73 81c0 4.44 2.12 8 4.73 8s4.73-3.6 4.73-8-2.11-8-4.73-8-4.73 3.56-4.73 8z"/><path d="M113.25 70.23c-.2.11 0 .78 0 1.82v.4c0 .14 0 .29-.05.44a7.22 7.22 0 01-.2.94 7.44 7.44 0 01-1 2 6.89 6.89 0 01-1.53 1.56 5.08 5.08 0 01-.81.5 5 5 0 01-.77.33c-1 .34-1.7.34-1.73.57s.14.2.48.31a2 2 0 00.62.12 4 4 0 00.84 0 4.49 4.49 0 001-.22 6 6 0 001.08-.49 6.61 6.61 0 002-1.84 7.08 7.08 0 001.08-2.48 6.2 6.2 0 00.1-1.18v-.54c0-.17-.07-.33-.09-.49-.27-1.29-.89-1.84-1.02-1.75z"/><path d="M116.16 75.61c-.22 0-.42.5-.92 1.12a5.39 5.39 0 01-1 .94 8.36 8.36 0 01-1.52.83 13.1 13.1 0 01-3.17.8c-.85.11-1.41.14-1.46.34s.48.52 1.44.67a7.23 7.23 0 003.73-.49 6.38 6.38 0 001.82-1.13 4.31 4.31 0 001-1.46c.43-.97.25-1.61.08-1.62zM76.48 81c0 4.44-2.12 8-4.73 8S67 85.44 67 81s2.12-8 4.74-8 4.74 3.56 4.74 8z"/><path d="M66 70.23c-.13-.09-.74.46-1 1.7l-.09.49a4.7 4.7 0 000 .54 5.48 5.48 0 00.1 1.18 7.24 7.24 0 00.99 2.48 6.76 6.76 0 002 1.84 5.73 5.73 0 001.08.49 4.49 4.49 0 001 .22 4 4 0 00.84 0 2 2 0 00.62-.12c.33-.11.5-.22.48-.31s-.75-.23-1.73-.57a5 5 0 01-.77-.33 5.15 5.15 0 01-.82-.5 7.1 7.1 0 01-1.53-1.56 7.72 7.72 0 01-1-2 7.22 7.22 0 01-.2-.94c0-.15 0-.3-.06-.44V72c.02-1 .25-1.66.09-1.77z"/><path d="M63.05 75.61c-.17 0-.35.65 0 1.62a4.31 4.31 0 001 1.46A6.38 6.38 0 0066 79.82a7.21 7.21 0 003.72.49c1-.15 1.5-.49 1.45-.67s-.62-.23-1.46-.34a13.1 13.1 0 01-3.17-.8 8.36 8.36 0 01-1.54-.83 5.09 5.09 0 01-1-.94c-.53-.62-.73-1.15-.95-1.12zM80.53 113c-.07.18.8.72 2.33 1.33a19.08 19.08 0 006.34 1.37 14.18 14.18 0 006.4-1.33c1.5-.75 2.27-1.44 2.18-1.59s-1 .18-2.55.64a18.82 18.82 0 01-6 .86 33.2 33.2 0 01-6.08-.91c-1.56-.37-2.55-.53-2.62-.37zM77.17 109s.11.08.3.09h.37c.14 0 .31 0 .49-.08a10.23 10.23 0 002.8-1.33c.54-.3 1.14-.64 1.78-.93a2.45 2.45 0 011.82-.27c.55.2 1.33.9 2.3 1.25a7 7 0 001.51.38 4.77 4.77 0 00.86 0 4.9 4.9 0 00.85-.16 9.49 9.49 0 002.67-1.47 7 7 0 012.08-1.09 3.26 3.26 0 011.94.15 10.54 10.54 0 011.67 1 20.74 20.74 0 002.53 1.69c.67.33 1.08.4 1.11.32s-.27-.34-.8-.78-1.24-1.16-2.21-2a9.61 9.61 0 00-1.8-1.29 5.37 5.37 0 00-1.29-.39 4.12 4.12 0 00-1.44 0c-2 .43-3.31 2.06-4.86 2.49a2.9 2.9 0 01-.57.12 2.83 2.83 0 01-.57 0 5.74 5.74 0 01-1.19-.28 6.14 6.14 0 01-1.09-.54 6.63 6.63 0 00-1.28-.65 2.85 2.85 0 00-.81-.13 3.49 3.49 0 00-.75.1 3 3 0 00-.64.22 3.63 3.63 0 00-.56.26 16 16 0 00-1.82 1.16 17.16 17.16 0 01-2.44 1.64l-.41.2-.31.13c-.16.07-.25.19-.24.19z"/></svg>