<svg id="Capa_1" data-name="Capa 1" xmlns="http://www.w3.org/2000/svg" viewBox="0 0 179.21 156.23"><path d="M142.39,136a19,19,0,0,0,19,19,16.22,16.22,0,0,0,9.62-2.92,8.14,8.14,0,0,0,1.87-10.05l-11-19a6.76,6.76,0,0,0-9.19-2.48S142.39,126.47,142.39,136Z" style="fill:#449ed7"/><path d="M94.51,136a19,19,0,1,0,19-19A19,19,0,0,0,94.51,136Z" style="fill:#449ed7"/><path d="M65.67,117a19,19,0,1,0,19,19A19,19,0,0,0,65.67,117Z" style="fill:#449ed7"/><path d="M17.79,155a19,19,0,0,0,19-19c0-9.54-10.33-15.47-10.33-15.47A6.76,6.76,0,0,0,17.3,123l-11,19a8.15,8.15,0,0,0,1.86,10.05A16.27,16.27,0,0,0,17.79,155Z" style="fill:#449ed7"/><path d="M118.45,97.71a19,19,0,0,0,19,19,17.32,17.32,0,0,0,10.94-4A8.85,8.85,0,0,0,150,102.37L139.7,84.54a7.29,7.29,0,0,0-9.39-2.84S118.45,87.58,118.45,97.71Z" style="fill:#449ed7"/><path d="M70.58,97.71a19,19,0,1,0,19-19A19,19,0,0,0,70.58,97.71Z" style="fill:#449ed7"/><path d="M41.73,116.73a19,19,0,0,0,19-19c0-10.13-11.86-16-11.86-16a7.29,7.29,0,0,0-9.39,2.84L29.22,102.37a8.85,8.85,0,0,0,1.57,10.39A17.32,17.32,0,0,0,41.73,116.73Z" style="fill:#449ed7"/><path d="M94.51,54.62a19,19,0,0,0,19,19,16.74,16.74,0,0,0,10.27-3.42A8.46,8.46,0,0,0,125.54,60l-10.68-18.5a7,7,0,0,0-9.29-2.64S94.51,44.8,94.51,54.62Z" style="fill:#449ed7"/><path d="M65.67,73.65a19,19,0,0,0,19-19c0-9.82-11.07-15.74-11.07-15.74a7,7,0,0,0-9.28,2.64L53.67,60A8.46,8.46,0,0,0,55.4,70.23,16.74,16.74,0,0,0,65.67,73.65Z" style="fill:#449ed7"/><path d="M76.63,20.25a9.19,9.19,0,0,0,1.42,10.54,16.93,16.93,0,0,0,23.11,0,9.2,9.2,0,0,0,1.42-10.55L93,3.6C91.12.4,88.09.4,86.24,3.6Z" style="fill:#449ed7"/><path d="M65.39,114.26c-.27.42,2,2.29,6.18,4.08a45.06,45.06,0,0,0,17.5,3.37,46.06,46.06,0,0,0,9.81-1.07,45.34,45.34,0,0,0,7.66-2.44c4.19-1.81,6.45-3.53,6.24-3.94s-2.85.42-7.06,1.55a76,76,0,0,1-7.45,1.59,60,60,0,0,1-9.22.74A64.17,64.17,0,0,1,72.39,116C68.17,114.85,65.64,113.83,65.39,114.26Z"/><path d="M64.38,117c.2-.06.21-.55.23-1.25a3.19,3.19,0,0,1,2.67-3.54c.66-.23,1.13-.38,1.13-.59s-.47-.4-1.28-.41a4.18,4.18,0,0,0-1.46.24,3.34,3.34,0,0,0-1.58,1.13,3.4,3.4,0,0,0-.65,1.84,4.07,4.07,0,0,0,.17,1.47C63.87,116.62,64.2,117,64.38,117Z"/><path d="M110.76,112.24c.08.2.53.19,1.14.28a3.4,3.4,0,0,1,1.93,1,3.12,3.12,0,0,1,.79,2c0,.62,0,1.08.18,1.16s.21,0,.36-.19a2.18,2.18,0,0,0,.46-.82,3.26,3.26,0,0,0,.08-1.46,3.1,3.1,0,0,0-.83-1.64,3.41,3.41,0,0,0-1.57-.94,3.14,3.14,0,0,0-1.45,0C111.05,111.7,110.7,112.08,110.76,112.24Z"/><path d="M76.37,90c0,4.44-2.12,8-4.74,8s-4.73-3.6-4.73-8,2.12-8,4.73-8S76.37,85.52,76.37,90Z"/><path d="M112.31,90c0,4.44-2.12,8-4.73,8s-4.74-3.6-4.74-8,2.12-8,4.74-8S112.31,85.52,112.31,90Z"/></svg>