<svg data-name="Capa 1" xmlns="http://www.w3.org/2000/svg" viewBox="0 0 179.21 156.23"><path fill="#449ed7" d="M89.6-1L78.15 18.84h22.91L89.6-1zM149.55 102.83H29.66l-11.74 20.33h143.37l-11.74-20.33zM109.4 33.29H69.81L58.07 53.62h63.07L109.4 33.29zM180.86 157.05l-11.23-19.45H9.58l-11.23 19.45h182.51zM129.48 68.06H49.73L37.99 88.39h103.22l-11.73-20.33z"/><path d="M65.39 117.45c-.27.42 2 2.29 6.18 4.08a45.23 45.23 0 0017.5 3.38 47.37 47.37 0 009.81-1.08 44.45 44.45 0 007.66-2.44c4.19-1.81 6.45-3.53 6.24-3.94s-2.85.43-7.06 1.55a76 76 0 01-7.45 1.59 60 60 0 01-9.22.74 64.17 64.17 0 01-16.66-2.19c-4.22-1.14-6.75-2.14-7-1.69z"/><path d="M64.38 120.14c.2-.06.21-.55.23-1.25a3.21 3.21 0 012.66-3.54c.67-.23 1.14-.38 1.14-.59s-.47-.4-1.28-.41a4.18 4.18 0 00-1.46.24 3.34 3.34 0 00-1.58 1.13 3.4 3.4 0 00-.65 1.84 4.07 4.07 0 00.17 1.47c.25.78.59 1.16.77 1.11zM110.76 115.43c.08.2.53.19 1.14.28a3.45 3.45 0 011.93 1 3.17 3.17 0 01.79 2c0 .62 0 1.08.18 1.16s.21 0 .36-.19a2.18 2.18 0 00.46-.82 3.26 3.26 0 00.08-1.46 3.1 3.1 0 00-.83-1.64 3.41 3.41 0 00-1.57-.94 3.14 3.14 0 00-1.45 0c-.8.07-1.15.45-1.09.61zM76.37 93.16c0 4.44-2.12 8-4.74 8s-4.73-3.6-4.73-8 2.12-8 4.73-8 4.74 3.55 4.74 8zM112.31 93.16c0 4.44-2.12 8-4.74 8s-4.73-3.6-4.73-8 2.12-8 4.73-8 4.74 3.55 4.74 8z"/></svg>