<svg id="Capa_1" data-name="Capa 1" xmlns="http://www.w3.org/2000/svg" viewBox="0 0 179.21 156.23"><path d="M4.15,156.23c-3.7,0-5.21-2.62-3.36-5.82L86.24,2.4C88.09-.8,91.12-.8,93,2.4l85.46,148c1.85,3.2.33,5.82-3.36,5.82Z" style="fill:#449ed7"/><path d="M65.39,116.63c-.27.41,2,2.29,6.18,4.08a45.06,45.06,0,0,0,17.5,3.37A46.72,46.72,0,0,0,98.88,123a45.34,45.34,0,0,0,7.66-2.44c4.19-1.81,6.45-3.53,6.24-3.94s-2.85.42-7.06,1.55c-2.12.54-4.63,1.15-7.45,1.59a60,60,0,0,1-9.22.74,64.17,64.17,0,0,1-16.66-2.19C68.17,117.22,65.64,116.2,65.39,116.63Z"/><path d="M64.38,119.32c.2-.06.21-.55.23-1.26a3.19,3.19,0,0,1,2.66-3.53c.67-.23,1.14-.38,1.14-.59s-.47-.4-1.28-.41a4.18,4.18,0,0,0-1.46.24,3.24,3.24,0,0,0-2.23,3,4.07,4.07,0,0,0,.17,1.47C63.86,119,64.2,119.37,64.38,119.32Z"/><path d="M110.76,114.61c.08.2.53.19,1.14.28a3.32,3.32,0,0,1,1.93,1,3.17,3.17,0,0,1,.79,2c0,.62,0,1.08.18,1.16s.21,0,.36-.19a2.18,2.18,0,0,0,.46-.82,3.27,3.27,0,0,0,.08-1.46,3.09,3.09,0,0,0-.83-1.65,3.39,3.39,0,0,0-1.57-.93,3.14,3.14,0,0,0-1.45-.05C111.05,114.07,110.7,114.45,110.76,114.61Z"/><path d="M76.37,92.33c0,4.44-2.12,8-4.74,8s-4.73-3.61-4.73-8,2.12-8,4.73-8S76.37,87.89,76.37,92.33Z"/><path d="M112.31,92.33c0,4.44-2.12,8-4.74,8s-4.73-3.61-4.73-8,2.12-8,4.73-8S112.31,87.89,112.31,92.33Z"/></svg>