<svg data-name="Capa 1" xmlns="http://www.w3.org/2000/svg" viewBox="0 0 179.21 156.23"><path d="M65.39 116.26c-.27.41 2 2.29 6.18 4.08a45.06 45.06 0 0017.5 3.37 46.72 46.72 0 009.81-1.07 45.34 45.34 0 007.66-2.44c4.19-1.81 6.45-3.53 6.24-3.94s-2.85.42-7.06 1.55a76 76 0 01-7.45 1.59 60 60 0 01-9.22.74A64.17 64.17 0 0172.39 118c-4.22-1.15-6.75-2.17-7-1.74z"/><path d="M64.38 119c.2-.06.21-.55.23-1.25a4.21 4.21 0 01.62-2.31 4.17 4.17 0 012-1.23c.67-.23 1.14-.38 1.14-.59s-.47-.4-1.28-.41a4.18 4.18 0 00-1.46.24 3.34 3.34 0 00-1.58 1.13 3.4 3.4 0 00-.65 1.84 4.07 4.07 0 00.17 1.47c.29.73.63 1.11.81 1.11zM110.76 114.24c.08.2.53.19 1.14.28a3.38 3.38 0 011.93 1 3.17 3.17 0 01.79 2c0 .62 0 1.08.18 1.16s.21 0 .36-.19a2.18 2.18 0 00.46-.82 3.26 3.26 0 00.08-1.46 3.07 3.07 0 00-.83-1.64 3.33 3.33 0 00-1.57-.94 3.14 3.14 0 00-1.45 0c-.8.07-1.15.45-1.09.61zM76.37 92c0 4.45-2.12 8.05-4.74 8.05S66.9 96.41 66.9 92s2.12-8 4.73-8 4.74 3.52 4.74 8zM112.31 92c0 4.45-2.12 8.05-4.74 8.05s-4.73-3.6-4.73-8.05 2.12-8 4.73-8 4.74 3.52 4.74 8z"/><path d="M93 2c-1.84-3.2-4.87-3.2-6.72 0L.79 150c-1.85 3.2-.34 5.82 3.36 5.82h170.91c3.69 0 5.21-2.62 3.36-5.82zm-6.66 19.92c1.79-3.23 4.73-3.23 6.53 0l65.81 118.46c1.8 3.23.24 5.88-3.46 5.88H24c-3.69 0-5.25-2.65-3.45-5.88z" fill="#449ed7"/></svg>