<svg data-name="Capa 1" xmlns="http://www.w3.org/2000/svg" viewBox="0 0 179.21 156.23"><path d="M142.39 136a19 19 0 0019 19 16.22 16.22 0 009.62-2.92 8.14 8.14 0 001.87-10.05l-11-19a6.76 6.76 0 00-9.19-2.48s-10.3 5.92-10.3 15.45zM94.51 136a19 19 0 1019-19 19 19 0 00-19 19zM65.67 117a19 19 0 1019 19 19 19 0 00-19-19zM17.79 155a19 19 0 0019-19c0-9.54-10.33-15.47-10.33-15.47A6.76 6.76 0 0017.3 123l-11 19a8.15 8.15 0 001.86 10.05 16.27 16.27 0 009.63 2.95zM118.45 97.71a19 19 0 0019 19 17.32 17.32 0 0010.94-4 8.85 8.85 0 001.61-10.34l-10.3-17.83a7.29 7.29 0 00-9.39-2.84s-11.86 5.88-11.86 16.01zM70.58 97.71a19 19 0 1019-19 19 19 0 00-19 19zM41.73 116.73a19 19 0 0019-19c0-10.13-11.86-16-11.86-16a7.29 7.29 0 00-9.39 2.84l-10.26 17.8a8.85 8.85 0 001.57 10.39 17.32 17.32 0 0010.94 3.97zM94.51 54.62a19 19 0 0019 19 16.74 16.74 0 0010.27-3.42 8.46 8.46 0 001.76-10.2l-10.68-18.5a7 7 0 00-9.29-2.64S94.51 44.8 94.51 54.62zM65.67 73.65a19 19 0 0019-19c0-9.82-11.07-15.74-11.07-15.74a7 7 0 00-9.28 2.64L53.67 60a8.46 8.46 0 001.73 10.23 16.74 16.74 0 0010.27 3.42zM76.63 20.25a9.19 9.19 0 001.42 10.54 16.93 16.93 0 0023.11 0 9.2 9.2 0 001.42-10.55L93 3.6c-1.88-3.2-4.91-3.2-6.76 0z" fill="#449ed7"/><path d="M65.39 114.26c-.27.42 2 2.29 6.18 4.08a45.06 45.06 0 0017.5 3.37 46.06 46.06 0 009.81-1.07 45.34 45.34 0 007.66-2.44c4.19-1.81 6.45-3.53 6.24-3.94s-2.85.42-7.06 1.55a76 76 0 01-7.45 1.59 60 60 0 01-9.22.74A64.17 64.17 0 0172.39 116c-4.22-1.15-6.75-2.17-7-1.74z"/><path d="M64.38 117c.2-.06.21-.55.23-1.25a3.19 3.19 0 012.67-3.54c.66-.23 1.13-.38 1.13-.59s-.47-.4-1.28-.41a4.18 4.18 0 00-1.46.24 3.34 3.34 0 00-1.58 1.13 3.4 3.4 0 00-.65 1.84 4.07 4.07 0 00.17 1.47c.26.73.59 1.11.77 1.11zM110.76 112.24c.08.2.53.19 1.14.28a3.4 3.4 0 011.93 1 3.12 3.12 0 01.79 2c0 .62 0 1.08.18 1.16s.21 0 .36-.19a2.18 2.18 0 00.46-.82 3.26 3.26 0 00.08-1.46 3.1 3.1 0 00-.83-1.64 3.41 3.41 0 00-1.57-.94 3.14 3.14 0 00-1.45 0c-.8.07-1.15.45-1.09.61zM76.37 90c0 4.44-2.12 8-4.74 8s-4.73-3.6-4.73-8 2.12-8 4.73-8 4.74 3.52 4.74 8zM112.31 90c0 4.44-2.12 8-4.73 8s-4.74-3.6-4.74-8 2.12-8 4.74-8 4.73 3.52 4.73 8z"/></svg>