<svg id="Capa_1" data-name="Capa 1" xmlns="http://www.w3.org/2000/svg" viewBox="0 0 179.21 156.23"><polygon points="89.6 -1 78.15 18.84 101.06 18.84 89.6 -1" style="fill:#449ed7"/><polygon points="149.55 102.83 29.66 102.83 17.92 123.16 161.29 123.16 149.55 102.83" style="fill:#449ed7"/><polygon points="109.4 33.29 69.81 33.29 58.07 53.62 121.14 53.62 109.4 33.29" style="fill:#449ed7"/><polygon points="180.86 157.05 169.63 137.6 9.58 137.6 -1.65 157.05 180.86 157.05" style="fill:#449ed7"/><polygon points="129.48 68.06 49.73 68.06 37.99 88.39 141.21 88.39 129.48 68.06" style="fill:#449ed7"/><path d="M65.39,117.45c-.27.42,2,2.29,6.18,4.08a45.23,45.23,0,0,0,17.5,3.38,47.37,47.37,0,0,0,9.81-1.08,44.45,44.45,0,0,0,7.66-2.44c4.19-1.81,6.45-3.53,6.24-3.94s-2.85.43-7.06,1.55a76,76,0,0,1-7.45,1.59,60,60,0,0,1-9.22.74,64.17,64.17,0,0,1-16.66-2.19C68.17,118,65.64,117,65.39,117.45Z"/><path d="M64.38,120.14c.2-.06.21-.55.23-1.25a3.21,3.21,0,0,1,2.66-3.54c.67-.23,1.14-.38,1.14-.59s-.47-.4-1.28-.41a4.18,4.18,0,0,0-1.46.24,3.34,3.34,0,0,0-1.58,1.13,3.4,3.4,0,0,0-.65,1.84,4.07,4.07,0,0,0,.17,1.47C63.86,119.81,64.2,120.19,64.38,120.14Z"/><path d="M110.76,115.43c.08.2.53.19,1.14.28a3.45,3.45,0,0,1,1.93,1,3.17,3.17,0,0,1,.79,2c0,.62,0,1.08.18,1.16s.21,0,.36-.19a2.18,2.18,0,0,0,.46-.82,3.26,3.26,0,0,0,.08-1.46,3.1,3.1,0,0,0-.83-1.64,3.41,3.41,0,0,0-1.57-.94,3.14,3.14,0,0,0-1.45,0C111.05,114.89,110.7,115.27,110.76,115.43Z"/><path d="M76.37,93.16c0,4.44-2.12,8-4.74,8s-4.73-3.6-4.73-8,2.12-8,4.73-8S76.37,88.71,76.37,93.16Z"/><path d="M112.31,93.16c0,4.44-2.12,8-4.74,8s-4.73-3.6-4.73-8,2.12-8,4.73-8S112.31,88.71,112.31,93.16Z"/></svg>