<svg data-name="Capa 1" xmlns="http://www.w3.org/2000/svg" viewBox="0 0 179.21 156.23"><path d="M4.15 156.23c-3.7 0-5.21-2.62-3.36-5.82L86.24 2.4c1.85-3.2 4.88-3.2 6.76 0l85.46 148c1.85 3.2.33 5.82-3.36 5.82z" fill="#449ed7"/><path d="M65.39 116.63c-.27.41 2 2.29 6.18 4.08a45.06 45.06 0 0017.5 3.37 46.72 46.72 0 009.81-1.08 45.34 45.34 0 007.66-2.44c4.19-1.81 6.45-3.53 6.24-3.94s-2.85.42-7.06 1.55c-2.12.54-4.63 1.15-7.45 1.59a60 60 0 01-9.22.74 64.17 64.17 0 01-16.66-2.19c-4.22-1.09-6.75-2.11-7-1.68z"/><path d="M64.38 119.32c.2-.06.21-.55.23-1.26a3.19 3.19 0 012.66-3.53c.67-.23 1.14-.38 1.14-.59s-.47-.4-1.28-.41a4.18 4.18 0 00-1.46.24 3.24 3.24 0 00-2.23 3 4.07 4.07 0 00.17 1.47c.25.76.59 1.13.77 1.08zM110.76 114.61c.08.2.53.19 1.14.28a3.32 3.32 0 011.93 1 3.17 3.17 0 01.79 2c0 .62 0 1.08.18 1.16s.21 0 .36-.19a2.18 2.18 0 00.46-.82 3.27 3.27 0 00.08-1.46 3.09 3.09 0 00-.83-1.65 3.39 3.39 0 00-1.57-.93 3.14 3.14 0 00-1.45-.05c-.8.12-1.15.5-1.09.66zM76.37 92.33c0 4.44-2.12 8-4.74 8s-4.73-3.61-4.73-8 2.12-8 4.73-8 4.74 3.56 4.74 8zM112.31 92.33c0 4.44-2.12 8-4.74 8s-4.73-3.61-4.73-8 2.12-8 4.73-8 4.74 3.56 4.74 8z"/></svg>