<svg id="Capa_1" data-name="Capa 1" xmlns="http://www.w3.org/2000/svg" viewBox="0 0 179.21 156.23"><path d="M32,156.73h115.3a21,21,0,0,0,8.13-1.63H23.83A20.91,20.91,0,0,0,32,156.73Z" style="fill:#ef4c23"/><path d="M147.25-.5H32a20.89,20.89,0,0,0-7,1.22H154.31A20.91,20.91,0,0,0,147.25-.5Z" style="fill:#ef4c23"/><path d="M154.31.72H24.9A21,21,0,0,0,11,20.4H168.22A21,21,0,0,0,154.31.72Z" style="fill:#ef4c23"/><rect x="10.99" y="34.39" width="157.24" height="19.69" style="fill:#ef4c23"/><path d="M168.22,135.77v-.36H11v.36A21,21,0,0,0,23.83,155.1H155.38A21,21,0,0,0,168.22,135.77Z" style="fill:#ef4c23"/><rect x="10.99" y="101.74" width="157.24" height="19.69" style="fill:#ef4c23"/><rect x="10.99" y="68.06" width="157.24" height="19.69" style="fill:#ef4c23"/><polygon points="97.83 110.17 83.2 110.17 83.81 98.64 97.21 98.64 97.83 110.17" style="fill:#fff"/><path d="M97.83,110.17c0-.14-1.5-.27-4.07-.38-1.29-.06-2.85-.11-4.63-.15l-5.26-.11v-.06c0-.17,0-.35,0-.52,0-.43,0-.86.08-1.29,0-.88.11-1.77.16-2.68.11-1.81.21-3.7.32-5.63h0l6.44,0,3.26,0,1.55,0h.75c.08,0,.07,0,.08,0h.09c.12,1.53.24,2.93.33,4.17.12,1.4.23,2.63.34,3.63a11.21,11.21,0,0,0,.51,3.14A11.11,11.11,0,0,0,98,107c0-1,0-2.23-.06-3.64q0-1.06-.06-2.25c0-.39,0-.8,0-1.21,0-.6,0-1.21-.07-1.84L90.92,98l-7.78,0-.06,1.23c-.1,2-.2,3.89-.29,5.73-.09,2.06-.18,4-.27,5.91l2.27,0,1.52,0,2.82-.06c1.78,0,3.34-.09,4.63-.15C96.33,110.44,97.83,110.31,97.83,110.17Z" style="fill:#231f20"/><path d="M58.34,91.15c-.25.41,2.73,2.74,8.29,5a59.06,59.06,0,0,0,10.09,3A62.39,62.39,0,0,0,112.49,96c5.54-2.28,8.57-4.42,8.37-4.81s-3.63.85-9.18,2.45a92,92,0,0,1-9.85,2.23,75.37,75.37,0,0,1-12.26,1,79.7,79.7,0,0,1-22.13-3.09C61.88,92.21,58.59,90.73,58.34,91.15Z"/><path d="M57,94.7c.21-.06.17-.69.15-1.63a5.3,5.3,0,0,1,.79-3.2,3.69,3.69,0,0,1,1.37-1.09,7.26,7.26,0,0,1,.77-.34l.72-.23c.91-.25,1.53-.39,1.52-.6s-.15-.19-.44-.26a4,4,0,0,0-1.23-.12,5.45,5.45,0,0,0-1.85.35,4.28,4.28,0,0,0-2,1.44A4.35,4.35,0,0,0,56,91.33a5.91,5.91,0,0,0,.18,1.88C56.46,94.23,56.84,94.75,57,94.7Z"/><path d="M118.2,88.49c.08.21.66.13,1.49.2a5.14,5.14,0,0,1,1.38.34,3.8,3.8,0,0,1,2.38,3.72c0,.42,0,.78,0,1s0,.43.12.47.23-.06.4-.29a3.09,3.09,0,0,0,.52-1.08,8.15,8.15,0,0,0,.14-.84,4.39,4.39,0,0,0-.08-1,3.92,3.92,0,0,0-1-2.06,4.42,4.42,0,0,0-2-1.2,4.2,4.2,0,0,0-1.84-.09C118.62,87.89,118.14,88.34,118.2,88.49Z"/><path d="M72.83,59.11c0,5.85-2.79,10.6-6.24,10.6S60.34,65,60.34,59.11s2.8-10.61,6.25-10.61S72.83,53.25,72.83,59.11Z"/><path d="M120.24,59.11c0,5.85-2.8,10.6-6.24,10.6s-6.25-4.75-6.25-10.6S110.55,48.5,114,48.5,120.24,53.25,120.24,59.11Z"/><path d="M90.51,98.63c-.39,0-.7,2.23-.7,5s.31,5,.7,5,.71-2.24.71-5S90.9,98.63,90.51,98.63Z" style="fill:#231f20"/><path d="M122.3,72.76a1.44,1.44,0,1,0,1.43-1.44A1.43,1.43,0,0,0,122.3,72.76Z"/><path d="M116.22,74.38a1.63,1.63,0,1,0,1.62-1.62A1.62,1.62,0,0,0,116.22,74.38Z"/><path d="M119.47,77.81a1.42,1.42,0,1,0,1.41-1.42A1.41,1.41,0,0,0,119.47,77.81Z"/><circle cx="126.61" cy="79.24" r="1.44"/><path d="M115.08,82.06a1.38,1.38,0,1,0,1.38-1.38A1.38,1.38,0,0,0,115.08,82.06Z"/><path d="M58.73,72.76a1.44,1.44,0,1,1-1.44-1.44A1.44,1.44,0,0,1,58.73,72.76Z"/><path d="M64.81,74.38a1.63,1.63,0,1,1-3.25,0,1.63,1.63,0,0,1,3.25,0Z"/><path d="M61.56,77.81a1.42,1.42,0,1,1-1.42-1.42A1.42,1.42,0,0,1,61.56,77.81Z"/><path d="M55.85,79.24a1.44,1.44,0,1,1-1.44-1.43A1.43,1.43,0,0,1,55.85,79.24Z"/><path d="M65.94,82.06a1.38,1.38,0,1,1-1.38-1.38A1.38,1.38,0,0,1,65.94,82.06Z"/></svg>