<svg data-name="Capa 1" xmlns="http://www.w3.org/2000/svg" viewBox="0 0 179.21 156.23"><path d="M142.25 137.8a19 19 0 0012.1 17.68A20.91 20.91 0 00168 135.86v-15.78a19 19 0 00-25.77 17.72zM132.45 137.8a19 19 0 10-19 19 19 19 0 0019-19zM84.71 137.8a19 19 0 10-19 19 19 19 0 0019-19zM37 137.8a19 19 0 00-25.77-17.72v15.78a20.91 20.91 0 0013.67 19.62A19 19 0 0037 137.8zM168 107.89V91.32a19 19 0 000 16.57zM118.37 99.6a19 19 0 1019-19 19 19 0 00-19 19zM70.63 99.6a19 19 0 1019-19 19 19 0 00-19 19zM22.88 99.6a19 19 0 1019-19 19 19 0 00-19 19zM11.19 91.32v16.56a18.83 18.83 0 001.9-8.28 18.83 18.83 0 00-1.9-8.28zM142.25 56.63A19 19 0 00168 74.35V38.91a19 19 0 00-25.77 17.72z" fill="#ef4c23"/><circle cx="113.48" cy="56.63" r="18.98" fill="#ef4c23"/><path d="M65.73 75.61a19 19 0 10-19-19 19 19 0 0019 19zM37 56.63a19 19 0 00-25.81-17.72v35.44A19 19 0 0037 56.63zM168 26.72v-5.86a20.87 20.87 0 00-1.29-7.23A19.09 19.09 0 00168 26.72zM118.37 18.44A19 19 0 10141.6-.06h-8.5a19 19 0 00-14.73 18.5zM70.63 18.44A19 19 0 1093.86-.06h-8.51a19 19 0 00-14.72 18.5zM22.88 18.44A19 19 0 1046.11-.06h-8.5a19 19 0 00-14.73 18.5zM11.19 26.72a18.86 18.86 0 001.9-8.28 19 19 0 00-.61-4.81 20.64 20.64 0 00-1.29 7.23z" fill="#ef4c23"/><path fill="#fff" d="M97.93 109.79H83.12l.63-11.67H97.3l.63 11.67z"/><path d="M97.93 109.79c0-.15-1.52-.28-4.12-.39-1.31-.06-2.88-.11-4.68-.15l-5.33-.11v-.06-.53c0-.43.06-.87.08-1.31.06-.88.11-1.79.17-2.71.1-1.83.21-3.74.32-5.69h12.31c.13 1.54.24 3 .34 4.21.12 1.42.24 2.66.34 3.68a10.93 10.93 0 00.52 3.18 11.47 11.47 0 00.17-3.22c0-1 0-2.26-.06-3.69 0-.71 0-1.47-.06-2.27V99.5c0-.61 0-1.22-.07-1.86l-6.94-.08h-7.86c0 .41 0 .83-.07 1.25-.1 2-.2 3.93-.29 5.79-.1 2.09-.19 4.09-.27 6h3.83l2.86-.06c1.8 0 3.37-.09 4.68-.15 2.61-.33 4.13-.46 4.13-.6z" fill="#231f20"/><path d="M58 90.54c-.26.42 2.75 2.78 8.38 5a58.45 58.45 0 0010.21 3 63.24 63.24 0 0036.19-3.21c5.61-2.31 8.67-4.47 8.47-4.87s-3.67.86-9.29 2.48a96.21 96.21 0 01-10 2.26 78.07 78.07 0 01-12.4 1 80.64 80.64 0 01-22.39-3.13c-5.61-1.46-8.94-2.96-9.17-2.53z"/><path d="M56.63 94.13c.2-.06.16-.69.15-1.65a5.37 5.37 0 01.8-3.24 3.62 3.62 0 011.42-1.1 7.26 7.26 0 01.77-.34l.73-.23c.92-.26 1.55-.4 1.54-.61s-.15-.19-.44-.27a5 5 0 00-1.25-.12c-.26 0-.56.05-.87.08a6.06 6.06 0 00-1 .28 4.23 4.23 0 00-2 1.45 4.37 4.37 0 00-.84 2.34 5.75 5.75 0 00.17 1.9c.26 1.03.65 1.57.82 1.51zM118.54 87.85c.08.21.67.13 1.51.21a4.89 4.89 0 011.39.33 4.25 4.25 0 011.37.94 4.08 4.08 0 011 2.83v1c0 .21 0 .44.13.48s.22-.06.4-.29a3.32 3.32 0 00.52-1.1 6.28 6.28 0 00.14-.85 4.44 4.44 0 00-.07-1 4.12 4.12 0 00-1.07-2.09 4.56 4.56 0 00-2-1.21 4.3 4.3 0 00-1.86-.09c-1 .23-1.52.69-1.46.84zM72.63 58.12c0 5.93-2.82 10.73-6.31 10.73S60 64.05 60 58.12s2.83-10.73 6.32-10.73 6.31 4.8 6.31 10.73zM120.6 58.12c0 5.93-2.83 10.73-6.31 10.73S108 64.05 108 58.12s2.83-10.73 6.32-10.73 6.28 4.8 6.28 10.73z"/><path d="M90.52 98.11c-.39 0-.71 2.26-.71 5s.32 5 .71 5 .72-2.26.72-5-.32-5-.72-5z" fill="#231f20"/><path d="M122.68 71.93a1.46 1.46 0 101.46-1.45 1.46 1.46 0 00-1.46 1.45zM116.53 73.57a1.65 1.65 0 101.65-1.64 1.65 1.65 0 00-1.65 1.64zM119.82 77a1.43 1.43 0 101.43-1.43 1.43 1.43 0 00-1.43 1.43z"/><circle cx="127.05" cy="78.49" r="1.45"/><path d="M115.39 81.34a1.4 1.4 0 101.39-1.34 1.4 1.4 0 00-1.39 1.34zM58.36 71.93a1.46 1.46 0 11-1.45-1.45 1.45 1.45 0 011.45 1.45z"/><circle cx="62.87" cy="73.57" r="1.64"/><path d="M61.23 77a1.44 1.44 0 11-1.43-1.43A1.43 1.43 0 0161.23 77zM55.45 78.49A1.45 1.45 0 1154 77a1.45 1.45 0 011.45 1.49z"/><circle cx="64.27" cy="81.34" r="1.4"/></svg>