<svg id="Capa_1" data-name="Capa 1" xmlns="http://www.w3.org/2000/svg" viewBox="0 0 179.21 156.23"><rect x="10.71" y="-0.78" width="157.79" height="157.79" rx="21.04" style="fill:#ef4c23"/><polygon points="96.92 108.95 82.29 108.95 82.91 97.42 96.3 97.42 96.92 108.95" style="fill:#fff"/><path d="M96.92,109c0-.14-1.5-.27-4.07-.38l-4.63-.15L83,108.31v-.06c0-.17,0-.34,0-.52,0-.43,0-.86.08-1.29,0-.88.11-1.77.17-2.68.1-1.81.2-3.7.31-5.63h0l6.44,0,3.26,0,1.55,0h.75c.08,0,.07,0,.08,0h.09c.12,1.53.24,2.93.34,4.17.11,1.4.23,2.63.33,3.63a11.21,11.21,0,0,0,.51,3.14,11.11,11.11,0,0,0,.17-3.18c0-1,0-2.23,0-3.64,0-.71-.05-1.46-.07-2.25,0-.39,0-.8,0-1.21,0-.6,0-1.21-.08-1.84L90,96.75l-7.77,0c0,.41,0,.82-.07,1.23-.1,2-.2,3.89-.29,5.73q-.13,3.1-.27,5.91l2.27,0,1.52,0,2.82-.06c1.78,0,3.34-.09,4.63-.14C95.42,109.23,96.92,109.09,96.92,109Z" style="fill:#231f20"/><path d="M57.44,89.93c-.26.41,2.72,2.74,8.29,5a58.71,58.71,0,0,0,10.08,3,63.49,63.49,0,0,0,25.71-.11,61.81,61.81,0,0,0,10.06-3.07c5.54-2.28,8.57-4.42,8.38-4.81s-3.63.85-9.19,2.45a92,92,0,0,1-9.85,2.23,76.47,76.47,0,0,1-12.26,1,80.1,80.1,0,0,1-22.13-3.1C61,91,57.68,89.51,57.44,89.93Z"/><path d="M56.11,93.48c.2-.06.16-.69.14-1.63a5.3,5.3,0,0,1,.79-3.2,3.74,3.74,0,0,1,1.38-1.09,6.24,6.24,0,0,1,.76-.33L59.9,87c.91-.26,1.53-.4,1.53-.61s-.16-.19-.44-.26A4.13,4.13,0,0,0,59.76,86a5.45,5.45,0,0,0-1.86.35,4.28,4.28,0,0,0-2,1.44,4.35,4.35,0,0,0-.83,2.31A5.91,5.91,0,0,0,55.26,92C55.55,93,55.93,93.53,56.11,93.48Z"/><path d="M117.3,87.27c.07.21.65.13,1.48.2a5.14,5.14,0,0,1,1.38.34,4,4,0,0,1,1.35.93,4,4,0,0,1,1,2.79c0,.42,0,.78,0,1s0,.43.12.47.22-.06.39-.28a3.25,3.25,0,0,0,.52-1.09,8.15,8.15,0,0,0,.14-.84,4.39,4.39,0,0,0-.08-1,3.92,3.92,0,0,0-1-2.06,4.31,4.31,0,0,0-2-1.19,4,4,0,0,0-1.83-.1C117.71,86.67,117.23,87.12,117.3,87.27Z"/><path d="M71.92,57.89c0,5.85-2.79,10.6-6.24,10.6s-6.24-4.75-6.24-10.6,2.79-10.61,6.24-10.61S71.92,52,71.92,57.89Z"/><path d="M119.33,57.89c0,5.85-2.8,10.6-6.24,10.6s-6.25-4.75-6.25-10.6,2.8-10.61,6.25-10.61S119.33,52,119.33,57.89Z"/><path d="M89.6,97.41c-.39,0-.7,2.23-.7,5s.31,5,.7,5,.71-2.24.71-5S90,97.41,89.6,97.41Z" style="fill:#231f20"/><path d="M121.39,71.54a1.44,1.44,0,1,0,1.44-1.44A1.43,1.43,0,0,0,121.39,71.54Z"/><path d="M115.31,73.16a1.63,1.63,0,1,0,1.62-1.62A1.63,1.63,0,0,0,115.31,73.16Z"/><path d="M118.56,76.59A1.42,1.42,0,1,0,120,75.17,1.41,1.41,0,0,0,118.56,76.59Z"/><circle cx="125.7" cy="78.02" r="1.44"/><path d="M114.17,80.84a1.38,1.38,0,1,0,1.38-1.38A1.38,1.38,0,0,0,114.17,80.84Z"/><path d="M57.82,71.54a1.44,1.44,0,1,1-1.44-1.44A1.44,1.44,0,0,1,57.82,71.54Z"/><path d="M63.9,73.16a1.63,1.63,0,1,1-1.63-1.62A1.63,1.63,0,0,1,63.9,73.16Z"/><path d="M60.65,76.59a1.42,1.42,0,1,1-1.42-1.42A1.41,1.41,0,0,1,60.65,76.59Z"/><path d="M54.94,78a1.44,1.44,0,1,1-1.43-1.43A1.43,1.43,0,0,1,54.94,78Z"/><path d="M65,80.84a1.38,1.38,0,1,1-1.38-1.38A1.38,1.38,0,0,1,65,80.84Z"/></svg>