<svg id="Capa_1" data-name="Capa 1" xmlns="http://www.w3.org/2000/svg" viewBox="0 0 179.21 156.23"><path d="M142.25,137.8a19,19,0,0,0,12.1,17.68A20.91,20.91,0,0,0,168,135.86V120.08a19,19,0,0,0-25.77,17.72Z" style="fill:#ef4c23"/><path d="M132.45,137.8a19,19,0,1,0-19,19A19,19,0,0,0,132.45,137.8Z" style="fill:#ef4c23"/><path d="M84.71,137.8a19,19,0,1,0-19,19A19,19,0,0,0,84.71,137.8Z" style="fill:#ef4c23"/><path d="M37,137.8a19,19,0,0,0-25.77-17.72v15.78a20.91,20.91,0,0,0,13.67,19.62A19,19,0,0,0,37,137.8Z" style="fill:#ef4c23"/><path d="M168,107.89V91.32a19,19,0,0,0,0,16.57Z" style="fill:#ef4c23"/><path d="M118.37,99.6a19,19,0,1,0,19-19A19,19,0,0,0,118.37,99.6Z" style="fill:#ef4c23"/><path d="M70.63,99.6a19,19,0,1,0,19-19A19,19,0,0,0,70.63,99.6Z" style="fill:#ef4c23"/><path d="M22.88,99.6a19,19,0,1,0,19-19A19,19,0,0,0,22.88,99.6Z" style="fill:#ef4c23"/><path d="M11.19,91.32v16.56a18.83,18.83,0,0,0,1.9-8.28A18.83,18.83,0,0,0,11.19,91.32Z" style="fill:#ef4c23"/><path d="M142.25,56.63A19,19,0,0,0,168,74.35V38.91a19,19,0,0,0-25.77,17.72Z" style="fill:#ef4c23"/><circle cx="113.48" cy="56.63" r="18.98" style="fill:#ef4c23"/><path d="M65.73,75.61a19,19,0,1,0-19-19A19,19,0,0,0,65.73,75.61Z" style="fill:#ef4c23"/><path d="M37,56.63A19,19,0,0,0,11.19,38.91V74.35A19,19,0,0,0,37,56.63Z" style="fill:#ef4c23"/><path d="M168,26.72V20.86a20.87,20.87,0,0,0-1.29-7.23A19.09,19.09,0,0,0,168,26.72Z" style="fill:#ef4c23"/><path d="M118.37,18.44A19,19,0,1,0,141.6-.06h-8.5A19,19,0,0,0,118.37,18.44Z" style="fill:#ef4c23"/><path d="M70.63,18.44A19,19,0,1,0,93.86-.06H85.35A19,19,0,0,0,70.63,18.44Z" style="fill:#ef4c23"/><path d="M22.88,18.44A19,19,0,1,0,46.11-.06h-8.5A19,19,0,0,0,22.88,18.44Z" style="fill:#ef4c23"/><path d="M11.19,26.72a18.86,18.86,0,0,0,1.9-8.28,19,19,0,0,0-.61-4.81,20.64,20.64,0,0,0-1.29,7.23Z" style="fill:#ef4c23"/><polygon points="97.93 109.79 83.12 109.79 83.75 98.12 97.3 98.12 97.93 109.79" style="fill:#fff"/><path d="M97.93,109.79c0-.15-1.52-.28-4.12-.39-1.31-.06-2.88-.11-4.68-.15l-5.33-.11v-.06c0-.18,0-.35,0-.53,0-.43.06-.87.08-1.31.06-.88.11-1.79.17-2.71.1-1.83.21-3.74.32-5.69h0l6.51,0,3.31,0,1.56,0h.93c.13,1.54.24,3,.34,4.21.12,1.42.24,2.66.34,3.68a10.93,10.93,0,0,0,.52,3.18,11.47,11.47,0,0,0,.17-3.22c0-1,0-2.26-.06-3.69,0-.71,0-1.47-.06-2.27,0-.4,0-.81,0-1.23,0-.61,0-1.22-.07-1.86l-6.94-.08-7.86,0c0,.41,0,.83-.07,1.25-.1,2-.2,3.93-.29,5.79-.1,2.09-.19,4.09-.27,6l2.29,0,1.54,0,2.86-.06c1.8,0,3.37-.09,4.68-.15C96.41,110.06,97.93,109.93,97.93,109.79Z" style="fill:#231f20"/><path d="M58,90.54c-.26.42,2.75,2.78,8.38,5a58.45,58.45,0,0,0,10.21,3,63.24,63.24,0,0,0,36.19-3.21c5.61-2.31,8.67-4.47,8.47-4.87s-3.67.86-9.29,2.48a96.21,96.21,0,0,1-10,2.26,78.07,78.07,0,0,1-12.4,1,80.64,80.64,0,0,1-22.39-3.13C61.56,91.61,58.23,90.11,58,90.54Z"/><path d="M56.63,94.13c.2-.06.16-.69.15-1.65a5.37,5.37,0,0,1,.8-3.24A3.62,3.62,0,0,1,59,88.14a7.26,7.26,0,0,1,.77-.34l.73-.23c.92-.26,1.55-.4,1.54-.61s-.15-.19-.44-.27a5,5,0,0,0-1.25-.12c-.26,0-.56.05-.87.08a6.06,6.06,0,0,0-1,.28,4.23,4.23,0,0,0-2,1.45,4.37,4.37,0,0,0-.84,2.34,5.75,5.75,0,0,0,.17,1.9C56.07,93.65,56.46,94.19,56.63,94.13Z"/><path d="M118.54,87.85c.08.21.67.13,1.51.21a4.89,4.89,0,0,1,1.39.33,4.25,4.25,0,0,1,1.37.94,4.08,4.08,0,0,1,1,2.83c0,.42,0,.79,0,1s0,.44.13.48.22-.06.4-.29a3.32,3.32,0,0,0,.52-1.1,6.28,6.28,0,0,0,.14-.85,4.44,4.44,0,0,0-.07-1,4.12,4.12,0,0,0-1.07-2.09,4.56,4.56,0,0,0-2-1.21,4.3,4.3,0,0,0-1.86-.09C119,87.24,118.48,87.7,118.54,87.85Z"/><path d="M72.63,58.12c0,5.93-2.82,10.73-6.31,10.73S60,64.05,60,58.12s2.83-10.73,6.32-10.73S72.63,52.19,72.63,58.12Z"/><path d="M120.6,58.12c0,5.93-2.83,10.73-6.31,10.73S108,64.05,108,58.12s2.83-10.73,6.32-10.73S120.6,52.19,120.6,58.12Z"/><path d="M90.52,98.11c-.39,0-.71,2.26-.71,5s.32,5,.71,5,.72-2.26.72-5S90.92,98.11,90.52,98.11Z" style="fill:#231f20"/><path d="M122.68,71.93a1.46,1.46,0,1,0,1.46-1.45A1.46,1.46,0,0,0,122.68,71.93Z"/><path d="M116.53,73.57a1.65,1.65,0,1,0,1.65-1.64A1.65,1.65,0,0,0,116.53,73.57Z"/><path d="M119.82,77a1.43,1.43,0,1,0,1.43-1.43A1.43,1.43,0,0,0,119.82,77Z"/><circle cx="127.05" cy="78.49" r="1.45"/><path d="M115.39,81.34A1.4,1.4,0,1,0,116.78,80,1.4,1.4,0,0,0,115.39,81.34Z"/><path d="M58.36,71.93a1.46,1.46,0,1,1-1.45-1.45A1.45,1.45,0,0,1,58.36,71.93Z"/><circle cx="62.87" cy="73.57" r="1.64"/><path d="M61.23,77a1.44,1.44,0,1,1-1.43-1.43A1.43,1.43,0,0,1,61.23,77Z"/><path d="M55.45,78.49A1.45,1.45,0,1,1,54,77,1.45,1.45,0,0,1,55.45,78.49Z"/><circle cx="64.27" cy="81.34" r="1.4"/></svg>