<svg data-name="Capa 1" xmlns="http://www.w3.org/2000/svg" viewBox="0 0 179.21 156.23"><path d="M32 156.73h115.3a21 21 0 008.13-1.63H23.83a20.91 20.91 0 008.17 1.63zM147.25-.5H32a20.89 20.89 0 00-7 1.22h129.31a20.91 20.91 0 00-7.06-1.22zM154.31.72H24.9A21 21 0 0011 20.4h157.22A21 21 0 00154.31.72zM10.99 34.39h157.24v19.69H10.99z" fill="#ef4c23"/><path d="M168.22 135.77v-.36H11v.36a21 21 0 0012.83 19.33h131.55a21 21 0 0012.84-19.33zM10.99 101.74h157.24v19.69H10.99zM10.99 68.06h157.24v19.69H10.99z" fill="#ef4c23"/><path fill="#fff" d="M97.83 110.17H83.2l.61-11.53h13.4l.62 11.53z"/><path d="M97.83 110.17c0-.14-1.5-.27-4.07-.38-1.29-.06-2.85-.11-4.63-.15l-5.26-.11v-.06-.52c0-.43 0-.86.08-1.29 0-.88.11-1.77.16-2.68.11-1.81.21-3.7.32-5.63H96.6c.12 1.53.24 2.93.33 4.17.12 1.4.23 2.63.34 3.63a11.21 11.21 0 00.51 3.14A11.11 11.11 0 0098 107c0-1 0-2.23-.06-3.64q0-1.06-.06-2.25V99.9c0-.6 0-1.21-.07-1.84L90.92 98h-7.78l-.06 1.23c-.1 2-.2 3.89-.29 5.73-.09 2.06-.18 4-.27 5.91h3.79l2.82-.06c1.78 0 3.34-.09 4.63-.15 2.57-.22 4.07-.35 4.07-.49z" fill="#231f20"/><path d="M58.34 91.15c-.25.41 2.73 2.74 8.29 5a59.06 59.06 0 0010.09 3A62.39 62.39 0 00112.49 96c5.54-2.28 8.57-4.42 8.37-4.81s-3.63.85-9.18 2.45a92 92 0 01-9.85 2.23 75.37 75.37 0 01-12.26 1 79.7 79.7 0 01-22.13-3.09c-5.56-1.57-8.85-3.05-9.1-2.63z"/><path d="M57 94.7c.21-.06.17-.69.15-1.63a5.3 5.3 0 01.79-3.2 3.69 3.69 0 011.37-1.09 7.26 7.26 0 01.77-.34l.72-.23c.91-.25 1.53-.39 1.52-.6s-.15-.19-.44-.26a4 4 0 00-1.23-.12 5.45 5.45 0 00-1.85.35 4.28 4.28 0 00-2 1.44 4.35 4.35 0 00-.8 2.31 5.91 5.91 0 00.18 1.88c.28 1.02.66 1.54.82 1.49zM118.2 88.49c.08.21.66.13 1.49.2a5.14 5.14 0 011.38.34 3.8 3.8 0 012.38 3.72v1c0 .22 0 .43.12.47s.23-.06.4-.29a3.09 3.09 0 00.52-1.08 8.15 8.15 0 00.14-.84 4.39 4.39 0 00-.08-1 3.92 3.92 0 00-1-2.06 4.42 4.42 0 00-2-1.2 4.2 4.2 0 00-1.84-.09c-1.09.23-1.57.68-1.51.83zM72.83 59.11c0 5.85-2.79 10.6-6.24 10.6s-6.25-4.71-6.25-10.6 2.8-10.61 6.25-10.61 6.24 4.75 6.24 10.61zM120.24 59.11c0 5.85-2.8 10.6-6.24 10.6s-6.25-4.75-6.25-10.6 2.8-10.61 6.25-10.61 6.24 4.75 6.24 10.61z"/><path d="M90.51 98.63c-.39 0-.7 2.23-.7 5s.31 5 .7 5 .71-2.24.71-5-.32-5-.71-5z" fill="#231f20"/><path d="M122.3 72.76a1.44 1.44 0 101.43-1.44 1.43 1.43 0 00-1.43 1.44zM116.22 74.38a1.63 1.63 0 101.62-1.62 1.62 1.62 0 00-1.62 1.62zM119.47 77.81a1.42 1.42 0 101.41-1.42 1.41 1.41 0 00-1.41 1.42z"/><circle cx="126.61" cy="79.24" r="1.44"/><path d="M115.08 82.06a1.38 1.38 0 101.38-1.38 1.38 1.38 0 00-1.38 1.38zM58.73 72.76a1.44 1.44 0 11-1.44-1.44 1.44 1.44 0 011.44 1.44zM64.81 74.38a1.63 1.63 0 11-3.25 0 1.63 1.63 0 013.25 0zM61.56 77.81a1.42 1.42 0 11-1.42-1.42 1.42 1.42 0 011.42 1.42zM55.85 79.24a1.44 1.44 0 11-1.44-1.43 1.43 1.43 0 011.44 1.43zM65.94 82.06a1.38 1.38 0 11-1.38-1.38 1.38 1.38 0 011.38 1.38z"/></svg>