<svg data-name="Capa 1" xmlns="http://www.w3.org/2000/svg" viewBox="0 0 179.21 156.23"><path fill="#fff" d="M96.92 108.95H82.29l.62-11.53H96.3l.62 11.53z"/><path d="M96.92 109c0-.14-1.5-.27-4.07-.38l-4.63-.15-5.22-.16v-.06-.52c0-.43 0-.86.08-1.29 0-.88.11-1.77.17-2.68.1-1.81.2-3.7.31-5.63h12.17c.12 1.53.24 2.93.34 4.17.11 1.4.23 2.63.33 3.63a11.21 11.21 0 00.51 3.14 11.11 11.11 0 00.17-3.18v-3.64c0-.71 0-1.46-.07-2.25v-1.21c0-.6 0-1.21-.08-1.84l-6.93-.2h-7.77c0 .41 0 .82-.07 1.23-.1 2-.2 3.89-.29 5.73q-.13 3.1-.27 5.91h3.79l2.82-.06c1.78 0 3.34-.09 4.63-.14 2.58-.19 4.08-.33 4.08-.42z" fill="#231f20"/><path d="M57.44 89.94c-.26.4 2.72 2.73 8.29 5a58.71 58.71 0 0010.08 3 63.49 63.49 0 0025.71-.11 60.84 60.84 0 0010.06-3.07c5.54-2.28 8.57-4.42 8.38-4.8s-3.63.84-9.19 2.44a92 92 0 01-9.85 2.23 76.47 76.47 0 01-12.26 1 80.1 80.1 0 01-22.13-3.1C61 91 57.68 89.51 57.44 89.94z"/><path d="M56.11 93.48c.2-.06.16-.69.14-1.63a5.3 5.3 0 01.79-3.2 3.74 3.74 0 011.38-1.09 6.24 6.24 0 01.76-.33l.72-.23c.91-.26 1.53-.4 1.53-.61s-.16-.19-.44-.26a4.13 4.13 0 00-1.23-.13 5.45 5.45 0 00-1.86.35 4.28 4.28 0 00-2 1.44 4.35 4.35 0 00-.83 2.31 5.91 5.91 0 00.19 1.9c.29 1 .67 1.54.85 1.48zM117.3 87.27c.07.21.65.13 1.48.2a5.14 5.14 0 011.38.34 4.09 4.09 0 011.35.93 4 4 0 011 2.79v1c0 .22 0 .43.12.47s.22-.06.39-.28a3.25 3.25 0 00.52-1.09 8.15 8.15 0 00.14-.84 4.39 4.39 0 00-.08-1 3.92 3.92 0 00-1-2.06 4.31 4.31 0 00-2-1.19 4 4 0 00-1.83-.1c-1.06.23-1.54.68-1.47.83zM71.92 57.89c0 5.86-2.79 10.6-6.24 10.6s-6.24-4.74-6.24-10.6 2.79-10.61 6.24-10.61 6.24 4.72 6.24 10.61zM119.33 57.89c0 5.86-2.8 10.6-6.24 10.6s-6.25-4.74-6.25-10.6 2.8-10.61 6.25-10.61 6.24 4.72 6.24 10.61z"/><path d="M89.6 97.41c-.39 0-.7 2.23-.7 5s.31 5 .7 5 .71-2.24.71-5-.31-5-.71-5z" fill="#231f20"/><path d="M121.39 71.54a1.44 1.44 0 101.44-1.44 1.43 1.43 0 00-1.44 1.44zM115.31 73.16a1.63 1.63 0 101.62-1.62 1.63 1.63 0 00-1.62 1.62zM118.56 76.59a1.42 1.42 0 101.44-1.42 1.41 1.41 0 00-1.44 1.42z"/><circle cx="125.7" cy="78.02" r="1.44"/><path d="M114.17 80.84a1.38 1.38 0 101.38-1.38 1.38 1.38 0 00-1.38 1.38zM57.82 71.54a1.44 1.44 0 11-1.44-1.44 1.44 1.44 0 011.44 1.44zM63.9 73.16a1.63 1.63 0 11-1.63-1.62 1.63 1.63 0 011.63 1.62zM60.65 76.59a1.42 1.42 0 11-1.42-1.42 1.41 1.41 0 011.42 1.42zM54.94 78a1.44 1.44 0 11-1.43-1.43A1.43 1.43 0 0154.94 78zM65 80.84a1.38 1.38 0 11-1.38-1.38A1.38 1.38 0 0165 80.84z"/><path d="M147.46-.78H31.75a21 21 0 00-21 21V136a21 21 0 0021 21h115.71a21 21 0 0021-21V20.26a21 21 0 00-21-21.04zm11 129.36a18.35 18.35 0 01-18.35 18.36H39.14a18.36 18.36 0 01-18.36-18.36V27.65A18.35 18.35 0 0139.14 9.3h100.93a18.34 18.34 0 0118.35 18.35z" fill="#ef4c23"/></svg>