<svg data-name="Capa 1" xmlns="http://www.w3.org/2000/svg" viewBox="0 0 179.21 156.23"><path d="M94.5 1.48a19.08 19.08 0 00-9.8 0c1.62-.1 3.26-.16 4.9-.16s3.28.06 4.9.16z" fill="#ef4c23"/><path d="M142.35 137.93a79 79 0 0014.11-17 19 19 0 00-14.11 17zM113.5 120.31a19 19 0 00-7.77 36.32 78 78 0 0025.37-10.2 19 19 0 00-17.6-26.12zM84.7 139.3a19 19 0 00-38 0 18.79 18.79 0 001.39 7.13 77.9 77.9 0 0025.37 10.2A19 19 0 0084.7 139.3zM22.74 120.93a79 79 0 0014.12 17 19 19 0 00-14.12-17zM118.4 101.07a19 19 0 1019-19 19 19 0 00-19 19zM70.61 101.07a19 19 0 1019-19 19 19 0 00-19 19zM41.82 82.08a19 19 0 1019 19 19 19 0 00-19-19zM142.29 58.06A19 19 0 00168 75.83a78 78 0 00-11-36.27 19 19 0 00-14.71 18.5zM113.5 77.05a19 19 0 10-19-19 19 19 0 0019 19zM46.72 58.06a19 19 0 1019-19 19 19 0 00-19 19zM36.91 58.06a19 19 0 00-14.7-18.5 78.11 78.11 0 00-11 36.27 19 19 0 0025.7-17.77zM137.39 38.82a19 19 0 0014.51-6.74 78.59 78.59 0 00-29.68-23.67 19 19 0 0015.17 30.41zM70.61 19.83A19 19 0 1094.5 1.48c-1.62-.1-3.25-.16-4.9-.16s-3.28.06-4.9.16a19 19 0 00-14.09 18.35zM27.3 32.08A19 19 0 0057 8.41a78.62 78.62 0 00-29.7 23.67z" fill="#643e64"/><path d="M68.11 97.17c-.26.4 1.85 2.23 5.9 4a42.27 42.27 0 0016.8 3.31 44.61 44.61 0 009.43-1 42.4 42.4 0 007.33-2.38c4-1.77 6.17-3.45 6-3.85s-2.74.4-6.78 1.5c-2 .53-4.43 1.11-7.13 1.54a56.37 56.37 0 01-8.83.72 60.63 60.63 0 01-16-2.14c-4.04-1.14-6.47-2.12-6.72-1.7z"/><path d="M121.35 101c0-.1-.27-.18-.73-.26a17.69 17.69 0 01-1.87-.36 10.31 10.31 0 01-1.21-.42l-.65-.29-.64-.38a9 9 0 01-2.41-2.24 13.54 13.54 0 01-2.26-5.68c-.27-1.59-.29-2.63-.51-2.65s-.5 1-.48 2.74a11.39 11.39 0 002.12 6.43 9.14 9.14 0 002.89 2.53l.78.38.77.26a3.38 3.38 0 00.73.18l.69.11a6.6 6.6 0 002.06-.06c.48-.06.73-.15.72-.29zM60.51 101c0 .1.24.19.72.29a6.58 6.58 0 002.06.06l.68-.11a3.46 3.46 0 00.74-.18l.77-.26.78-.38a9.14 9.14 0 002.89-2.53 11.54 11.54 0 002.12-6.43c0-1.73-.31-2.76-.48-2.74s-.25 1.06-.51 2.65A13.68 13.68 0 0168 97.09a9.18 9.18 0 01-2.41 2.24l-.65.38-.64.29a9.84 9.84 0 01-1.22.42 16.78 16.78 0 01-1.87.36c-.43.08-.7.16-.7.22zM111.7 67.21a8.86 8.86 0 00-5.47 1.87 16.45 16.45 0 01-.42-3.73c0-5.66 2.7-10.25 6-10.25s6 4.59 6 10.25a16.94 16.94 0 01-.46 3.93 8.85 8.85 0 00-5.65-2.07zM68.72 67.21a8.82 8.82 0 015.47 1.87 16.45 16.45 0 00.42-3.73c0-5.66-2.7-10.25-6-10.25s-6 4.59-6 10.25a16.41 16.41 0 00.39 3.93 8.82 8.82 0 015.72-2.07z"/></svg>