<svg id="Capa_1" data-name="Capa 1" xmlns="http://www.w3.org/2000/svg" viewBox="0 0 179.21 156.23"><path d="M94.5,1.48a19.08,19.08,0,0,0-9.8,0c1.62-.1,3.26-.16,4.9-.16S92.88,1.38,94.5,1.48Z" style="fill:#ef4c23"/><path d="M142.35,137.93a79,79,0,0,0,14.11-17A19,19,0,0,0,142.35,137.93Z" style="fill:#643e64"/><path d="M113.5,120.31a19,19,0,0,0-7.77,36.32,78,78,0,0,0,25.37-10.2,19,19,0,0,0-17.6-26.12Z" style="fill:#643e64"/><path d="M84.7,139.3a19,19,0,0,0-38,0,18.79,18.79,0,0,0,1.39,7.13,77.9,77.9,0,0,0,25.37,10.2A19,19,0,0,0,84.7,139.3Z" style="fill:#643e64"/><path d="M22.74,120.93a79,79,0,0,0,14.12,17A19,19,0,0,0,22.74,120.93Z" style="fill:#643e64"/><path d="M118.4,101.07a19,19,0,1,0,19-19A19,19,0,0,0,118.4,101.07Z" style="fill:#643e64"/><path d="M70.61,101.07a19,19,0,1,0,19-19A19,19,0,0,0,70.61,101.07Z" style="fill:#643e64"/><path d="M41.82,82.08a19,19,0,1,0,19,19A19,19,0,0,0,41.82,82.08Z" style="fill:#643e64"/><path d="M142.29,58.06A19,19,0,0,0,168,75.83a78,78,0,0,0-11-36.27A19,19,0,0,0,142.29,58.06Z" style="fill:#643e64"/><path d="M113.5,77.05a19,19,0,1,0-19-19A19,19,0,0,0,113.5,77.05Z" style="fill:#643e64"/><path d="M46.72,58.06a19,19,0,1,0,19-19A19,19,0,0,0,46.72,58.06Z" style="fill:#643e64"/><path d="M36.91,58.06a19,19,0,0,0-14.7-18.5,78.11,78.11,0,0,0-11,36.27A19,19,0,0,0,36.91,58.06Z" style="fill:#643e64"/><path d="M137.39,38.82a19,19,0,0,0,14.51-6.74A78.59,78.59,0,0,0,122.22,8.41a19,19,0,0,0,15.17,30.41Z" style="fill:#643e64"/><path d="M70.61,19.83A19,19,0,1,0,94.5,1.48c-1.62-.1-3.25-.16-4.9-.16s-3.28.06-4.9.16A19,19,0,0,0,70.61,19.83Z" style="fill:#643e64"/><path d="M27.3,32.08A19,19,0,0,0,57,8.41,78.62,78.62,0,0,0,27.3,32.08Z" style="fill:#643e64"/><path d="M68.11,97.17c-.26.4,1.85,2.23,5.9,4a42.27,42.27,0,0,0,16.8,3.31,44.61,44.61,0,0,0,9.43-1,42.4,42.4,0,0,0,7.33-2.38c4-1.77,6.17-3.45,6-3.85s-2.74.4-6.78,1.5c-2,.53-4.43,1.11-7.13,1.54a56.37,56.37,0,0,1-8.83.72,60.63,60.63,0,0,1-16-2.14C70.79,97.73,68.36,96.75,68.11,97.17Z"/><path d="M121.35,101c0-.1-.27-.18-.73-.26a17.69,17.69,0,0,1-1.87-.36,10.31,10.31,0,0,1-1.21-.42l-.65-.29-.64-.38a9,9,0,0,1-2.41-2.24,13.54,13.54,0,0,1-2.26-5.68c-.27-1.59-.29-2.63-.51-2.65s-.5,1-.48,2.74a11.39,11.39,0,0,0,2.12,6.43,9.14,9.14,0,0,0,2.89,2.53l.78.38.77.26a3.38,3.38,0,0,0,.73.18l.69.11a6.6,6.6,0,0,0,2.06-.06C121.11,101.23,121.36,101.14,121.35,101Z"/><path d="M60.51,101c0,.1.24.19.72.29a6.58,6.58,0,0,0,2.06.06l.68-.11a3.46,3.46,0,0,0,.74-.18l.77-.26.78-.38a9.14,9.14,0,0,0,2.89-2.53,11.54,11.54,0,0,0,2.12-6.43c0-1.73-.31-2.76-.48-2.74s-.25,1.06-.51,2.65A13.68,13.68,0,0,1,68,97.09a9.18,9.18,0,0,1-2.41,2.24l-.65.38-.64.29a9.84,9.84,0,0,1-1.22.42,16.78,16.78,0,0,1-1.87.36C60.78,100.86,60.51,100.94,60.51,101Z"/><path d="M111.7,67.21a8.86,8.86,0,0,0-5.47,1.87,16.45,16.45,0,0,1-.42-3.73c0-5.66,2.7-10.25,6-10.25s6,4.59,6,10.25a16.94,16.94,0,0,1-.46,3.93A8.85,8.85,0,0,0,111.7,67.21Z"/><path d="M68.72,67.21a8.82,8.82,0,0,1,5.47,1.87,16.45,16.45,0,0,0,.42-3.73c0-5.66-2.7-10.25-6-10.25s-6,4.59-6,10.25A16.41,16.41,0,0,0,63,69.28,8.82,8.82,0,0,1,68.72,67.21Z"/></svg>