<svg id="Capa_1" data-name="Capa 1" xmlns="http://www.w3.org/2000/svg" viewBox="0 0 179.21 156.23"><path d="M89.6.5A77.59,77.59,0,0,0,38.39,19.71H140.82A77.59,77.59,0,0,0,89.6.5Z" style="fill:#643e64"/><path d="M163.13,104h-147a77.51,77.51,0,0,0,10.76,20.41H152.37A77.51,77.51,0,0,0,163.13,104Z" style="fill:#643e64"/><path d="M138.51,139H40.7a77.88,77.88,0,0,0,97.81,0Z" style="fill:#643e64"/><path d="M153.74,34.21H25.46a77.46,77.46,0,0,0-10,20.42H163.78A77.48,77.48,0,0,0,153.74,34.21Z" style="fill:#643e64"/><path d="M167.47,78.37a78.25,78.25,0,0,0-.55-9.24H12.28a80.45,80.45,0,0,0-.54,9.24,77.7,77.7,0,0,0,.8,11.17H166.67A79.17,79.17,0,0,0,167.47,78.37Z" style="fill:#643e64"/><path d="M67,96.65c-.26.4,1.84,2.2,5.84,3.93a41.88,41.88,0,0,0,16.62,3.27,43,43,0,0,0,9.33-1,41.63,41.63,0,0,0,7.26-2.35c4-1.75,6.11-3.42,5.9-3.81s-2.71.4-6.71,1.48a72.07,72.07,0,0,1-7.05,1.53,56.44,56.44,0,0,1-8.74.71,60.27,60.27,0,0,1-15.8-2.11C69.67,97.2,67.27,96.23,67,96.65Z"/><path d="M119.71,100.48c0-.1-.27-.18-.72-.26a17,17,0,0,1-1.85-.36,9.48,9.48,0,0,1-1.2-.41l-.64-.28-.64-.38a9,9,0,0,1-2.38-2.22A13.41,13.41,0,0,1,110,91c-.26-1.58-.29-2.61-.51-2.63s-.49,1-.47,2.72a11.36,11.36,0,0,0,2.1,6.36A8.94,8.94,0,0,0,114,99.9l.77.38.76.26a4.09,4.09,0,0,0,.73.18l.68.11a7.13,7.13,0,0,0,2-.06C119.47,100.67,119.72,100.57,119.71,100.48Z"/><path d="M59.5,100.48c0,.09.24.19.71.29a7.13,7.13,0,0,0,2,.06l.68-.11a3.79,3.79,0,0,0,.72-.18l.77-.26.77-.38a8.94,8.94,0,0,0,2.86-2.5A11.36,11.36,0,0,0,70.15,91c0-1.72-.31-2.74-.47-2.72s-.25,1.05-.51,2.63a13.54,13.54,0,0,1-2.24,5.62,9.16,9.16,0,0,1-2.38,2.22l-.64.38-.64.28a9.48,9.48,0,0,1-1.2.41,17,17,0,0,1-1.85.36C59.77,100.3,59.51,100.38,59.5,100.48Z"/><path d="M110.16,67a8.8,8.8,0,0,0-5.41,1.85,16.1,16.1,0,0,1-.42-3.69c0-5.6,2.68-10.14,6-10.14s6,4.54,6,10.14a16.54,16.54,0,0,1-.45,3.89A8.8,8.8,0,0,0,110.16,67Z"/><path d="M67.63,67A8.78,8.78,0,0,1,73,68.85a16.1,16.1,0,0,0,.42-3.69c0-5.6-2.67-10.14-6-10.14s-6,4.54-6,10.14A16,16,0,0,0,62,69.05,8.75,8.75,0,0,1,67.63,67Z"/></svg>