<svg data-name="Capa 1" xmlns="http://www.w3.org/2000/svg" viewBox="0 0 179.21 156.23"><path d="M67 96.37c-.26.4 1.84 2.22 5.85 3.95a42.27 42.27 0 0016.67 3.28 43.86 43.86 0 009.36-1 40.74 40.74 0 007.28-2.36c4-1.75 6.12-3.42 5.92-3.81s-2.72.4-6.73 1.48a70 70 0 01-7.08 1.53 57.93 57.93 0 01-8.76.72A60.57 60.57 0 0173.62 98c-4-1.07-6.42-2-6.62-1.63z"/><path d="M119.8 100.22c0-.1-.27-.19-.73-.26a17 17 0 01-1.85-.36 9.6 9.6 0 01-1.2-.42l-.65-.28-.63-.38a9.23 9.23 0 01-2.4-2.22 13.66 13.66 0 01-2.24-5.64c-.26-1.59-.29-2.62-.51-2.63s-.49 1-.47 2.72a11.33 11.33 0 002.1 6.38 9.13 9.13 0 002.87 2.51l.77.38.77.25a3.93 3.93 0 00.73.19l.68.11a6.72 6.72 0 002-.07c.52-.09.76-.19.76-.28zM59.41 100.22c0 .09.24.19.72.28a6.72 6.72 0 002 .07l.68-.11a4.14 4.14 0 00.73-.19l.77-.25.77-.38A9.24 9.24 0 0068 97.13a11.33 11.33 0 002.1-6.38c0-1.72-.31-2.74-.47-2.72s-.25 1-.51 2.63a13.66 13.66 0 01-2.24 5.64 9.23 9.23 0 01-2.4 2.22l-.63.38-.65.28a9.6 9.6 0 01-1.2.42 16.68 16.68 0 01-1.86.36c-.46.04-.72.16-.73.26zM110.22 66.64a8.8 8.8 0 00-5.43 1.86 16.87 16.87 0 01-.41-3.71c0-5.62 2.68-10.17 6-10.17s6 4.55 6 10.17a16.18 16.18 0 01-.46 3.91 8.76 8.76 0 00-5.7-2.06zM67.56 66.64A8.83 8.83 0 0173 68.5a16.87 16.87 0 00.41-3.71c0-5.62-2.68-10.17-6-10.17s-6 4.55-6 10.17a16.18 16.18 0 00.46 3.91 8.73 8.73 0 015.69-2.06z"/><path d="M89.6.23a78 78 0 1078 78 78 78 0 00-78-78zm0 145.29a67.28 67.28 0 1167.28-67.28 67.28 67.28 0 01-67.28 67.28z" fill="#643e64"/></svg>