<svg id="Capa_1" data-name="Capa 1" xmlns="http://www.w3.org/2000/svg" viewBox="0 0 179.21 156.23"><circle cx="89.6" cy="78.23" r="78" transform="translate(7.01 163.83) rotate(-87.14)" style="fill:#643e64"/><path d="M67,96.36c-.26.4,1.84,2.22,5.85,4a42.31,42.31,0,0,0,16.67,3.28,43.86,43.86,0,0,0,9.36-1,41,41,0,0,0,7.28-2.36c4-1.75,6.12-3.42,5.92-3.81s-2.73.4-6.73,1.48c-2,.52-4.4,1.11-7.08,1.53a57.93,57.93,0,0,1-8.76.72A60.64,60.64,0,0,1,73.62,98C69.62,96.92,67.21,95.94,67,96.36Z"/><path d="M119.79,100.2c0-.09-.27-.18-.72-.25a17.59,17.59,0,0,1-1.86-.36,10.86,10.86,0,0,1-1.2-.42l-.64-.28-.64-.38a9,9,0,0,1-2.39-2.22,13.39,13.39,0,0,1-2.24-5.64c-.27-1.58-.29-2.62-.51-2.63s-.5,1-.48,2.72a11.36,11.36,0,0,0,2.11,6.38,9,9,0,0,0,2.87,2.51l.77.38.77.25a3.16,3.16,0,0,0,.72.18l.68.12a6.79,6.79,0,0,0,2-.07C119.55,100.4,119.8,100.3,119.79,100.2Z"/><path d="M59.41,100.2c0,.1.25.2.72.29a6.72,6.72,0,0,0,2,.07l.68-.12a3.12,3.12,0,0,0,.73-.18l.77-.25.77-.38A9,9,0,0,0,68,97.12a11.43,11.43,0,0,0,2.11-6.38c0-1.72-.32-2.74-.48-2.72s-.25,1-.51,2.63a13.66,13.66,0,0,1-2.24,5.64,9.19,9.19,0,0,1-2.39,2.22l-.64.38-.64.28a10.31,10.31,0,0,1-1.21.42,17,17,0,0,1-1.85.36C59.68,100,59.42,100.11,59.41,100.2Z"/><path d="M110.22,66.63a8.78,8.78,0,0,0-5.43,1.86,16.84,16.84,0,0,1-.41-3.7c0-5.62,2.68-10.18,6-10.18s6,4.56,6,10.18a16.68,16.68,0,0,1-.46,3.9A8.78,8.78,0,0,0,110.22,66.63Z"/><path d="M67.57,66.63A8.8,8.8,0,0,1,73,68.49a16.84,16.84,0,0,0,.41-3.7c0-5.62-2.68-10.18-6-10.18s-6,4.56-6,10.18a16.16,16.16,0,0,0,.46,3.9A8.78,8.78,0,0,1,67.57,66.63Z"/></svg>