<svg data-name="Capa 1" xmlns="http://www.w3.org/2000/svg" viewBox="0 0 179.21 156.23"><path d="M89.6.5a77.59 77.59 0 00-51.21 19.21h102.43A77.59 77.59 0 0089.6.5zM163.13 104h-147a77.51 77.51 0 0010.76 20.41h125.48A77.51 77.51 0 00163.13 104zM138.51 139H40.7a77.88 77.88 0 0097.81 0zM153.74 34.21H25.46a77.46 77.46 0 00-10 20.42h148.32a77.48 77.48 0 00-10.04-20.42zM167.47 78.37a78.25 78.25 0 00-.55-9.24H12.28a80.45 80.45 0 00-.54 9.24 77.7 77.7 0 00.8 11.17h154.13a79.17 79.17 0 00.8-11.17z" fill="#643e64"/><path d="M67 96.65c-.26.4 1.84 2.2 5.84 3.93a41.88 41.88 0 0016.62 3.27 43 43 0 009.33-1 41.63 41.63 0 007.26-2.35c4-1.75 6.11-3.42 5.9-3.81s-2.71.4-6.71 1.48a72.07 72.07 0 01-7.05 1.53 56.44 56.44 0 01-8.74.71 60.27 60.27 0 01-15.8-2.11c-3.98-1.1-6.38-2.07-6.65-1.65z"/><path d="M119.71 100.48c0-.1-.27-.18-.72-.26a17 17 0 01-1.85-.36 9.48 9.48 0 01-1.2-.41l-.64-.28-.64-.38a9 9 0 01-2.38-2.22A13.41 13.41 0 01110 91c-.26-1.58-.29-2.61-.51-2.63s-.49 1-.47 2.72a11.36 11.36 0 002.1 6.36A8.94 8.94 0 00114 99.9l.77.38.76.26a4.09 4.09 0 00.73.18l.68.11a7.13 7.13 0 002-.06c.53-.1.78-.2.77-.29zM59.5 100.48c0 .09.24.19.71.29a7.13 7.13 0 002 .06l.68-.11a3.79 3.79 0 00.72-.18l.77-.26.77-.38a8.94 8.94 0 002.86-2.5 11.36 11.36 0 002.14-6.4c0-1.72-.31-2.74-.47-2.72s-.25 1.05-.51 2.63a13.54 13.54 0 01-2.24 5.62 9.16 9.16 0 01-2.38 2.22l-.64.38-.64.28a9.48 9.48 0 01-1.2.41 17 17 0 01-1.85.36c-.45.12-.71.2-.72.3zM110.16 67a8.8 8.8 0 00-5.41 1.85 16.1 16.1 0 01-.42-3.69c0-5.6 2.68-10.14 6-10.14s6 4.54 6 10.14a16.54 16.54 0 01-.45 3.89 8.8 8.8 0 00-5.72-2.05zM67.63 67A8.78 8.78 0 0173 68.85a16.1 16.1 0 00.42-3.69c0-5.6-2.67-10.14-6-10.14s-6 4.54-6 10.14a16 16 0 00.58 3.89A8.75 8.75 0 0167.63 67z"/></svg>