<svg id="Capa_1" data-name="Capa 1" xmlns="http://www.w3.org/2000/svg" viewBox="0 0 248 356.03"><rect y="5.01" width="248" height="351.04" rx="20" style="fill:#ab2424"/><rect y="0.01" width="248" height="351.03" rx="20" style="fill:#d02b27"/><path d="M237.5,323.06c0,10.48-8.2,19-18.31,19H28.81c-10.11,0-18.31-8.49-18.31-19V28c0-10.48,8.2-19,18.31-19H219.19c10.11,0,18.31,8.49,18.31,19Z" style="fill:none;stroke:#fff;stroke-miterlimit:10;stroke-width:5.66929px"/><path d="M179.29,234.5l2,3.41a83.8,83.8,0,0,0,3-119.36l-2,3.46a80,80,0,0,1-3,112.49Z" style="fill:#fff"/><path d="M180.81,241.13l-4.08-7,1.16-1.11a77.93,77.93,0,0,0,2.93-109.63l-1-1.1,4.14-7.09,1.86,1.93a85.78,85.78,0,0,1-3.11,122.25Z" style="fill:#fff"/><path d="M66.71,237.91l2-3.41A80,80,0,0,1,65.7,122l-2-3.46a83.81,83.81,0,0,0,3,119.36Z" style="fill:#fff"/><path d="M67.18,241.13l-1.85-1.74a85.83,85.83,0,0,1-3.11-122.25l1.86-1.93,4.13,7.09-1,1.1A77.91,77.91,0,0,0,70.11,233l1.15,1.11Z" style="fill:#fff"/><path d="M173.61,186a17.85,17.85,0,0,0-5.36-8.7A45.58,45.58,0,0,0,135.64,138a8,8,0,0,0-.58-5c-1.89-4-7.32-9.67-12.28-9.44,3.54,3.31,3.31,6.61.48,10.15-.48-2.12-4.25-1.89-6.14-2.36a6.94,6.94,0,0,1,2.34,5,45.56,45.56,0,0,0-41.95,41.81A17.14,17.14,0,0,0,72.9,186c1.41-.24,3.07-1.18,4.48-1.42-3.07,4-4,12.28-1.41,17a11.49,11.49,0,0,1,3.69-5.6q.38,1.14.81,2.25c-.2,2.06-.67,4.07,0,6.19a24.2,24.2,0,0,0,4.72,8.73c.31-1.69.32-3.47.48-5.29a46.44,46.44,0,0,0,3.45,4.33A64.8,64.8,0,0,0,95.32,221a11.54,11.54,0,0,0-.17-3.16,45.43,45.43,0,0,0,4.37,3c2.45,2.35,5.27,4.29,7.83,4.66a2.8,2.8,0,0,0-.06-1c1.35.5,2.73.93,4.14,1.3a41.49,41.49,0,0,0,3.95,2.49,6.11,6.11,0,0,0-.62-1.76c1,.18,2.1.34,3.17.45a13.93,13.93,0,0,0,1.22.84,4,4,0,0,0,.11-.71c1.21.09,2.42.14,3.65.14,1.46,0,2.91-.07,4.34-.2a3.76,3.76,0,0,0,.11.77,13.37,13.37,0,0,0,1.34-.93c1.05-.13,2.1-.3,3.13-.51a6.48,6.48,0,0,0-.7,1.91,40.34,40.34,0,0,0,4.37-2.8c1.29-.37,2.56-.8,3.8-1.28a2.93,2.93,0,0,0-.14,1.25c3-.43,6.3-3,9-5.83,1.15-.77,2.27-1.59,3.34-2.46a12.19,12.19,0,0,0-.3,3.81c3.2-4,5.43-6.88,7.23-10.74.83-1,1.61-2.11,2.35-3.21.26,2.12.22,4.21.57,6.16a24.2,24.2,0,0,0,4.72-8.73c.83-2.7-.16-5.21-.1-7.86.12-.32.22-.64.33-1,2.21,1.42,3.34,3.48,4.25,6,2.6-4.71,1.66-13-1.41-17C170.54,184.86,172.2,185.8,173.61,186Z" style="fill:#fff"/><path d="M157.67,168a17,17,0,0,0-2.21-3.35,25.4,25.4,0,0,0-4.07-3.61,9.34,9.34,0,0,0-4.71-2.13,10.44,10.44,0,0,0-4.51,1.09c-1.52.64-3.08,1.22-4.59,1.88-5.72,2.49-11.8,6.16-18.31,5.24a18.1,18.1,0,0,1-4.49-1.38,24.23,24.23,0,0,0-4.53-1.75,22.82,22.82,0,0,0-5.66-.36,43.87,43.87,0,0,0-5.6.55,16.68,16.68,0,0,0-7.3,3,19.81,19.81,0,0,1-3.38,2.45,11.5,11.5,0,0,1-2,.83,22.06,22.06,0,0,0-2.48,9.63,30.18,30.18,0,0,0,.62,9,6.09,6.09,0,0,1,1.46-3,.3.3,0,0,1,.49.14c1.16,3.57.63,7.65,2.64,10.92a9.56,9.56,0,0,1,1.82-3.63.3.3,0,0,1,.49.14,29.74,29.74,0,0,0,2.14,5.95,10,10,0,0,0,4,4.07c-.07-1.61-.33-3.2-.35-4.82a.3.3,0,0,1,.58-.07c.86,3.74,2.21,7.7,5,10.45,0-.18,0-.35,0-.53a8.77,8.77,0,0,1-.81-2.94.3.3,0,0,1,.56-.14,9.26,9.26,0,0,1,.81,2.82,15.26,15.26,0,0,0,1,1.68,27.16,27.16,0,0,0,2.42,3.15c-.06-.83-.18-1.66-.31-2.48,0-.26.29-.54.49-.28.84,1.07,1.85,2.3,3.28,2.51a8.37,8.37,0,0,0,4.22-1c1.35-.59,2.64-1.3,3.94-2,2.55-1.39,5.21-2.75,8.16-3a9.73,9.73,0,0,1,7.81,2.7c.88.91,1.78,2.14,3.08,2.4a3.27,3.27,0,0,1,1.35.41,1.94,1.94,0,0,1,.59.72,21.16,21.16,0,0,0,2.47-5,.3.3,0,0,1,.44-.17,4.14,4.14,0,0,1,1.74,2.53,11.58,11.58,0,0,0,3-5.54.28.28,0,0,1,.43-.17,5.35,5.35,0,0,1,1.79,3.13,11.1,11.1,0,0,0,2.8-3.52c.75-1.38,1.62-3.34.84-4.88-.17-.34.35-.63.52-.29.44.89.79,1.83,1.2,2.73a28.39,28.39,0,0,0,2.64-4.88,11.55,11.55,0,0,0,1.1-5.77.3.3,0,0,1,.5-.28c.63.66,1.08,1.45,1.66,2.15a11.51,11.51,0,0,0,1-5.15c-.08-1.75-.41-3.48-.65-5.22a.3.3,0,0,1,.21-.36,1.11,1.11,0,0,0,.29-.14c1.12-.68,1-2.4.83-3.52a24.28,24.28,0,0,0-1.7-5.62A49.31,49.31,0,0,0,157.67,168Z" style="fill:#fff"/><path d="M161.72,171.65a21.11,21.11,0,0,0-38.81-11.51,21.11,21.11,0,1,0-20.45,32.45l3.89,20.93a2.13,2.13,0,0,0,2.11,2.16h28.91a2.13,2.13,0,0,0,2.1-2.16l3.89-20.93A21.12,21.12,0,0,0,161.72,171.65Z" style="fill:#d02b27"/><path d="M138.38,186.9c-1.78-3-7.75-5.2-14.85-5.2s-13.08,2.21-14.85,5.2a5.71,5.71,0,0,0-1.32,3.58c0,3.68,3.78,6.66,8.44,6.66,3.45,0,6.43-1.64,7.73-4,1.3,2.36,4.27,4,7.73,4,4.65,0,8.43-3,8.43-6.66A5.75,5.75,0,0,0,138.38,186.9Z" style="fill:#fff"/><path d="M136.81,192.42a3,3,0,1,1-3-3A3,3,0,0,1,136.81,192.42Z" style="fill:#d02b27"/><path d="M116.75,192.42a3,3,0,1,1-3-3A3,3,0,0,1,116.75,192.42Z" style="fill:#d02b27"/><path d="M98.65,192.75c.88-1.06,1.77-2.3,2.65-3.36a16,16,0,0,1-.18,3,8,8,0,0,0,1.42-2c.53,2.13-.89,4.07-1.42,6" style="fill:#fff"/><path d="M144,194.52a4,4,0,0,1-2.48-2.83,14.31,14.31,0,0,1,2.13.71,5.21,5.21,0,0,1-.71-2.83c1.24,1.06,2.12,2.83,3.54,3.54" style="fill:#fff"/><path d="M137.83,175.45c-.16.24.35.9,1.45,1.53a9.55,9.55,0,0,0,2.06.85,10.92,10.92,0,0,0,2.73.37,11.09,11.09,0,0,0,1.43-.09c.23,0,.45-.08.67-.12l.63-.15a10.1,10.1,0,0,0,1.14-.4,3.12,3.12,0,0,0,.49-.23l.43-.24a4.5,4.5,0,0,0,1.19-.92c.24-.27.34-.48.26-.6s-.3-.17-.65-.14-.79.16-1.36.25a18.05,18.05,0,0,1-4.22.49,17,17,0,0,1-2.33-.16c-.72-.11-1.37-.21-1.92-.33C138.71,175.35,138,175.19,137.83,175.45Z" style="fill:#fff"/><path d="M94.88,175.45c-.16.24.35.9,1.45,1.53a9.55,9.55,0,0,0,2.06.85,10.62,10.62,0,0,0,4.16.28c.23,0,.45-.08.67-.12l.63-.15a10.1,10.1,0,0,0,1.14-.4,2.75,2.75,0,0,0,.49-.23l.44-.24a4.6,4.6,0,0,0,1.18-.92c.25-.27.34-.48.26-.6s-.3-.17-.65-.14-.79.16-1.35.25a18.15,18.15,0,0,1-4.23.49,17.06,17.06,0,0,1-2.33-.16c-.72-.11-1.37-.21-1.92-.33C95.76,175.35,95,175.19,94.88,175.45Z" style="fill:#fff"/><path d="M150.86,116.23c-.09-2.35.18-4.13,1.36-8.69s1.8-6.24,3-8.26c2.87-4.6,7.59-6.06,12.8-4.71s8.62,4.91,8.9,10.33c.09,2.36-.18,4.13-1.36,8.69s-1.8,6.24-3,8.26c-2.87,4.6-7.59,6.06-12.79,4.71S151.13,121.65,150.86,116.23Zm16,2.25c.65-1,1.18-2.57,2.22-6.58s1.31-5.59,1.25-6.82a5.1,5.1,0,0,0-9.36-2.42c-.64,1-1.18,2.56-2.21,6.57s-1.31,5.59-1.26,6.82a5.1,5.1,0,0,0,9.36,2.43Z" style="fill:#fff"/><path d="M125.34,115.23a2.88,2.88,0,0,1,3.25-2.57A4.28,4.28,0,0,1,131,114a5,5,0,0,0,2.64,1.16c2.52.28,4.34-1,4.79-4.9l2-17.49c.26-2.25,1.81-3.49,3.7-3.27s3.16,1.78,2.9,4l-1.95,17c-.9,7.81-5.37,11.46-12.37,10.66-2.83-.33-5.66-1.84-6.75-3.48A3.79,3.79,0,0,1,125.34,115.23Z" style="fill:#fff"/><path d="M100.44,115.14c-.92-2.17-1.3-3.93-1.82-8.61s-.54-6.48-.12-8.8c1-5.32,4.94-8.36,10.28-9s9.81,1.52,12,6.48c.92,2.17,1.3,3.93,1.82,8.61s.54,6.48.11,8.8c-1,5.32-4.93,8.36-10.27,9S102.63,120.1,100.44,115.14Zm15.74-3.6c.23-1.21.19-2.82-.27-6.94s-.77-5.69-1.26-6.82A5.1,5.1,0,0,0,105,98.85c-.23,1.21-.19,2.82.27,6.94s.77,5.69,1.26,6.82a5.1,5.1,0,0,0,9.61-1.07Z" style="fill:#fff"/><path d="M68.22,101.93a2.77,2.77,0,0,1,1.72-3.84l6.86-2.41c6.18-2.18,10.74-1.48,14,2.91,1.17,1.54,2.2,3.52,3.71,7.83s1.95,6.5,2,8.42c.2,5.47-2.92,8.86-9.1,11l-6.87,2.42a2.75,2.75,0,0,1-3.72-1.89Zm14.08,19.2,2.9-1c2.89-1,4.62-2.78,4.51-5.43a24,24,0,0,0-1.55-6A23.93,23.93,0,0,0,85.59,103c-1.57-2.15-4-2.44-6.92-1.42l-2.9,1a.25.25,0,0,0-.16.36L82,121A.24.24,0,0,0,82.3,121.13Z" style="fill:#fff"/><path d="M156.85,257c-1.22-2-1.84-3.71-3-8.27s-1.44-6.34-1.34-8.69c.29-5.42,3.72-9,8.93-10.3s9.93.13,12.78,4.74c1.22,2,1.84,3.71,3,8.27s1.44,6.34,1.34,8.7c-.29,5.41-3.72,9-8.93,10.3S159.71,261.6,156.85,257Zm15.09-5.75c.05-1.23-.21-2.82-1.24-6.83s-1.55-5.53-2.19-6.58a5.1,5.1,0,0,0-9.37,2.4c-.06,1.23.2,2.81,1.23,6.82s1.55,5.53,2.2,6.58a5.1,5.1,0,0,0,9.37-2.39Z" style="fill:#fff"/><path d="M132.22,263.22a2.88,2.88,0,0,1,2.36-3.41,4.23,4.23,0,0,1,2.67.56,4.94,4.94,0,0,0,2.87.33c2.49-.46,3.86-2.2,3.14-6.09l-3.21-17.31c-.41-2.22.71-3.87,2.58-4.21s3.54.78,4,3l3.13,16.85c1.43,7.73-1.77,12.53-8.7,13.82-2.8.52-5.95-.1-7.46-1.35A3.74,3.74,0,0,1,132.22,263.22Z" style="fill:#fff"/><path d="M107.83,259.52c-.66-2.27-.83-4.06-.79-8.77s.23-6.49.93-8.74c1.67-5.17,5.89-7.72,11.27-7.68s9.56,2.67,11.14,7.86c.66,2.27.83,4.06.79,8.76s-.24,6.5-.93,8.75c-1.67,5.16-5.9,7.72-11.27,7.67S109.41,264.71,107.83,259.52Zm16-1.71c.37-1.17.52-2.77.56-6.91s-.09-5.75-.44-6.93a5.1,5.1,0,0,0-9.67-.08c-.37,1.18-.52,2.78-.56,6.92s.09,5.74.44,6.92a5.09,5.09,0,0,0,9.67.08Z" style="fill:#fff"/><path d="M75.07,231.88c.59-2.48,2.37-3.7,4.52-3.19,1.93.46,2.73,1.8,3.18,4.42l2.82,16.54.17,0,9.8-13.55c1.53-2.15,2.85-3,4.78-2.54,2.16.51,3.15,2.39,2.57,4.86l-5.78,24.42c-.49,2.06-1.95,3-3.71,2.55s-2.67-1.89-2.18-3.95l3.56-15-.22-.05-7.27,10.08c-1.44,2-2.34,2.44-3.83,2.09S81.39,257.41,81,255l-2-12.28-.21-.05-3.56,15c-.49,2.07-2,3-3.67,2.57a3,3,0,0,1-2.22-4Z" style="fill:#fff"/><path d="M116.67,202.7c-.16.25.35.91,1.45,1.54a9.08,9.08,0,0,0,2.06.84,10.12,10.12,0,0,0,2.73.37,9.57,9.57,0,0,0,1.43-.08c.23,0,.45-.08.67-.12l.64-.15c.4-.11.78-.27,1.13-.4a3.12,3.12,0,0,0,.49-.23l.43-.24a4.72,4.72,0,0,0,1.19-.92c.24-.27.34-.48.26-.61s-.3-.16-.65-.13-.79.16-1.35.25a18.7,18.7,0,0,1-4.23.49,21,21,0,0,1-2.33-.16c-.71-.11-1.37-.22-1.92-.33C117.55,202.6,116.83,202.45,116.67,202.7Z" style="fill:#fff"/></svg>