<svg id="Capa_1" data-name="Capa 1" xmlns="http://www.w3.org/2000/svg" viewBox="0 0 248 384.92"><rect y="33.88" width="248" height="351.04" rx="20" style="fill:#ab2424"/><rect y="28.88" width="248" height="351.04" rx="20" style="fill:#d02b27"/><path d="M237.5,351.93c0,10.48-8.2,19-18.31,19H28.81c-10.11,0-18.31-8.5-18.31-19V56.86c0-10.48,8.2-19,18.31-19H219.19c10.11,0,18.31,8.49,18.31,19Z" style="fill:none;stroke:#fff;stroke-miterlimit:10;stroke-width:5.66929px"/><path d="M144,179.85c-8.37,0-15.73-.16-20,6.45-4.25-6.61-11.62-6.45-20-6.45a24.14,24.14,0,0,0-3.11,48c.52.07,1.72,6.36,1.91,7.05.86,3,2.15,6.79,4.38,9.16,1.59,1.69,3.79,2.23,6,2.66a60.14,60.14,0,0,0,15.68.7c5.55-.38,10.67.3,13.21-5.33a100.06,100.06,0,0,0,5-14.24,24.14,24.14,0,0,0-3.11-48Zm-15.31,33.86a2.37,2.37,0,1,1,2.12,4.23c-1.25.64-5.47.31-5.67.21S127.42,214.35,128.68,213.71Zm-12.7,1a2.47,2.47,0,0,1,3.34-1c1.26.64,3.75,4.33,3.55,4.44s-4.42.43-5.67-.21A2.47,2.47,0,0,1,116,214.68Zm-16.21-4.41a3.61,3.61,0,1,1,3.61-3.61A3.61,3.61,0,0,1,99.77,210.27Zm39.11,25.32,0,0-1,.49h0l-.45.21-.07,0-.44.2h0l-.44.19-.23.11-.21.09-.46.21c-7.29,3.3-14.95,3.11-22.37.35l-.84-.33c-.26-.1-.51-.21-.77-.33h0a16.93,16.93,0,0,1-5-3.29c-1.26-1.24-3-3.32-3.06-5.17a1.71,1.71,0,0,1,.56-1.44,3.6,3.6,0,0,1,2.73-.29l.44.07h0c1.37.24,2.71.54,4.07.77l.09,0,.72.11.22,0,.67.08.25,0,.92.08a142.72,142.72,0,0,0,17.18-.07c1.81-.1,3.62-.23,5.43-.36.22,0,.43,0,.65-.07h.11c1.43-.21,2.83-.67,4.26-.82h0l.25,0a2.34,2.34,0,0,1,2.59,2.64C144.47,232.13,141.66,234.15,138.88,235.59Zm9.35-25.32a3.61,3.61,0,1,1,3.61-3.61A3.61,3.61,0,0,1,148.23,210.27Z" style="fill:#d02b27"/><path d="M189.84,185.5a14.5,14.5,0,0,0-26.79-7.69,40.43,40.43,0,0,0-6.35-5.36c-4.58-2.75-11.24-3.42-17.85-3.42a7.72,7.72,0,0,0,.2-4.43c-1.12-4.87-7.49-10.29-12.54-10.11,2.44,4.31,2.62,10.48-2.43,13.29-1.12-2.06-3.74-2.25-6-2.06a4.72,4.72,0,0,1,1.66,3.66c-9.07-.5-20.69-1.08-27.6,3.07a41.44,41.44,0,0,0-6.88,5.9,14.5,14.5,0,1,0-17.62,20.76,13.22,13.22,0,0,0-1.32,3.65c.84-.57,2.25-.85,3.09-1.69a20.67,20.67,0,0,0-3.09,12.63,20.93,20.93,0,0,0,3.09-3.93c-1.12,3.93-2,8.14-1.12,12.07a16.37,16.37,0,0,0,3.08-4.21c.28,3.93-1.4,11.22,2.81,13.47a45.52,45.52,0,0,0,.84-5.61c1.12,2.24,2.25,4.77,4.21,5.89,0-.84.28-2,.28-2.81,2,2.25,3.93,4.78,6.74,5.62,1.68-3.93,9.82,2.24,11.5,4.77,2.81,3.64,1.69,8.7,4.49,12.06.56-.56,1.69-1.12,2-2,1.68,2.53,2.52,5.89,5.33,7.3a32,32,0,0,1,1.4-3.09c2.53,1.68,3.93,4.77,7.3,5.33,0-1.4.28-2.52-.28-3.65a49,49,0,0,1,5,3.09,16.77,16.77,0,0,1,2-4.83c.33,1.61.63,3.39.81,4.83a47.9,47.9,0,0,1,5-3.09c-.56,1.13-.28,2.25-.28,3.65,3.36-.56,4.77-3.65,7.29-5.33a31.86,31.86,0,0,1,1.41,3.09c2.8-1.41,3.65-4.77,5.33-7.3.28.84,1.4,1.4,2,2,2.81-3.36,1.69-8.42,4.49-12.06,1.69-2.53,9.82-8.7,11.51-4.77,2.8-.84,4.77-3.37,6.73-5.62,0,.85.28,2,.28,2.81,2-1.12,3.09-3.65,4.21-5.89a43.81,43.81,0,0,0,.85,5.61c4.21-2.25,2.52-9.54,2.8-13.47a16.4,16.4,0,0,0,3.09,4.21c.84-3.93,0-8.14-1.12-12.07a20.89,20.89,0,0,0,3.08,3.93,20.73,20.73,0,0,0-3.08-12.63c.84.84,2.24,1.12,3.08,1.69a13.36,13.36,0,0,0-1.46-3.93A14.52,14.52,0,0,0,189.84,185.5ZM147.1,227.88a100.06,100.06,0,0,1-5,14.24c-2.54,5.63-7.66,4.95-13.21,5.33a60.14,60.14,0,0,1-15.68-.7c-2.26-.43-4.46-1-6-2.66-2.23-2.37-3.52-6.15-4.38-9.16-.19-.69-1.39-7-1.91-7.05a24.14,24.14,0,0,1,3.11-48c8.37,0,15.74-.16,20,6.45,4.26-6.61,11.62-6.45,20-6.45a24.14,24.14,0,0,1,3.11,48Z" style="fill:#fff"/><path d="M148.23,203.05a3.61,3.61,0,1,0,3.61,3.61A3.61,3.61,0,0,0,148.23,203.05Z" style="fill:#fff"/><path d="M99.77,203.05a3.61,3.61,0,1,0,3.61,3.61A3.61,3.61,0,0,0,99.77,203.05Z" style="fill:#fff"/><path d="M130.8,217.94a2.37,2.37,0,1,0-2.12-4.23c-1.26.64-3.75,4.33-3.55,4.44S129.55,218.58,130.8,217.94Z" style="fill:#fff"/><path d="M117.2,217.94c1.25.64,5.47.31,5.67.21s-2.29-3.8-3.55-4.44a2.37,2.37,0,1,0-2.12,4.23Z" style="fill:#fff"/><path d="M80.29,287.91c2.92-7.55,6.46-15.37,11.58-21.7l-5.09-2.11c-.56,5.57.61,11.24,2.35,16.51.73,2.23,4.28,3.22,5.45.71,2.87-6.14,8-10.7,12.44-15.67l-5-1.32c2.1,10.41-1,21.26,2.8,31.43a3.05,3.05,0,0,0,3.67,2.09,3,3,0,0,0,2.09-3.67c-1.83-4.84-2-9.86-1.93-15,.07-5.53.22-11-.88-16.46a3,3,0,0,0-5-1.32c-4.76,5.33-10.3,10.3-13.37,16.88l5.45.71c-1.59-4.83-2.65-9.82-2.14-14.92.25-2.51-3.5-4.08-5.09-2.11-5.81,7.19-9.8,15.75-13.11,24.33A3,3,0,0,0,76.62,290a3.05,3.05,0,0,0,3.67-2.08Z" style="fill:#fff"/><path d="M119.65,273.89c-4.49-3.37-5.61,11.23-3.93,14.59,9.54,21.33,18-20.76,4.49-15.15" style="fill:#fff"/><path d="M121.15,271.31a4.67,4.67,0,0,0-6.3.79,12.71,12.71,0,0,0-2.45,6.31,29.57,29.57,0,0,0-.3,7.28,15.61,15.61,0,0,0,2,6.25c1.74,3.2,4.49,6.1,8.41,5.46,3.11-.51,4.87-3.9,5.94-6.5a24.88,24.88,0,0,0,1.28-14.2c-1-4.89-5.31-8.27-10.31-6.25a3.05,3.05,0,0,0-2.09,3.67c.4,1.43,2.16,2.7,3.67,2.09a7.11,7.11,0,0,1,1-.34l.46-.1c.58-.12-.78.08-.21,0,.31,0,1.28.11.14-.06.33.05,1.23.45.23,0,.26.12,1,.66.1,0a4.35,4.35,0,0,1,.53.52c.35.4-.46-.63-.15-.19a3.78,3.78,0,0,1,.22.33c.14.24.6,1.3.19.3a10.71,10.71,0,0,1,.52,1.78c0,.24.22,1.41.09.36.05.41.08.82.11,1.22,0,.74,0,1.47,0,2.2,0,.38,0,.75-.08,1.13,0,.19,0,.37,0,.56-.09.87.06-.4,0,.15a24.27,24.27,0,0,1-1.08,4.45c-.08.23-.53,1.34-.13.39-.13.3-.26.59-.41.87s-.28.54-.44.8-.87,1.18-.18.31a5.57,5.57,0,0,1-.52.57c-.61.6.5-.32,0,0l-.29.17c-.42.23.77-.3.33-.14-.85.32.52,0,0,.05-.82,0,.69.17,0,0s.72.4,0,0l-.33-.21c-.46-.31.58.48.15.11a7,7,0,0,1-.81-.83c-.19-.24-.15-.19.12.16-.12-.16-.24-.33-.35-.5-.26-.37-.49-.76-.71-1.15s-.5-.92-.72-1.38c-.13-.26-.25-.52-.37-.78.4.88.15.36.08.14a8.65,8.65,0,0,1-.23-.91c0-.15-.13-.87,0-.06,0-.23,0-.47-.07-.7a24.12,24.12,0,0,1-.06-3.18c0-.47,0-.94.09-1.4,0-.28.05-.56.08-.84.11-.92-.09.59,0-.31a16.71,16.71,0,0,1,.72-3c.12-.32.1-.28-.06.1.08-.19.18-.37.27-.55s.19-.31.3-.47c-.46.67-.21.27,0,.11-.58.56.07.07-.71.39.5-.2-.8,0-.25,0-.8,0-.13.08-.77-.2a3,3,0,0,1,.48.3,3,3,0,0,0,4.08-1.07,3,3,0,0,0-1.07-4.09Z" style="fill:#fff"/><path d="M133.12,271.29c7.31.49,14-2.27,21-4,3.72-.95,2.14-6.71-1.59-5.76-6.44,1.64-12.65,4.27-19.41,3.83a3,3,0,0,0-3,3,3,3,0,0,0,3,3Z" style="fill:#fff"/><path d="M138.55,268.31c.08,9.19,3.91,17.73,5.72,26.61l4.39-3.37c-3.46-1.95-7.72-3.48-10.16-6.79a3,3,0,0,0-4.08-1.07c-1.29.76-2,2.78-1.07,4.08,3.19,4.32,7.75,6.37,12.29,8.93a3,3,0,0,0,4.39-3.37c-1.71-8.33-5.44-16.42-5.51-25,0-3.85-6-3.85-6,0Z" style="fill:#fff"/><path d="M162.94,267.79c-4.49,0-4.49,12.91-2.8,16.84,7.29,17.4,16.27-7.3,5.61-14.59" style="fill:#fff"/><path d="M162.94,264.81c-5.82.23-6.71,7.61-6.82,12.07-.12,5.22,1,10.33,4.53,14.36a6.53,6.53,0,0,0,5.36,2.43,7.25,7.25,0,0,0,5.16-3.41c2.54-3.63,2.79-8.73,2.15-12.95a14.75,14.75,0,0,0-6.06-9.85,3,3,0,0,0-4.09,1.07,3,3,0,0,0,1.07,4.08c.72.51-.42-.37.24.18.2.17.39.36.58.54s.35.37.52.57c.56.63-.32-.48.17.21a13.54,13.54,0,0,1,.79,1.32c.12.23.22.46.33.7-.28-.63,0,.16.07.25.17.49.31,1,.43,1.49.06.25.1.51.15.77,0,.1.13.95,0,.23a16.84,16.84,0,0,1,.06,3.33c0,.25,0,.5-.07.74.08-.75,0,.06,0,.18a13.23,13.23,0,0,1-.3,1.39,11.38,11.38,0,0,1-.41,1.29c-.05.15-.35.82,0,.08-.08.18-.18.37-.27.55a8.72,8.72,0,0,1-.6,1c.52-.75-.13.12-.32.3-.44.42.58-.41.11-.08a2.5,2.5,0,0,1-.39.23c.77-.4.44-.18.18-.1-.48.14.86,0,.1,0-.56,0,.79.16.22,0-.21,0-.72-.27.12.1a5.05,5.05,0,0,1-.45-.25c-.55-.33.53.46,0,0a7.12,7.12,0,0,1-.92-1c.43.53-.11-.18-.16-.25-.16-.25-.31-.5-.46-.76a10.8,10.8,0,0,1-1.24-2.72,12.23,12.23,0,0,1-.32-1.36c0-.25-.09-.51-.12-.77.1.68,0-.47-.06-.59a31.44,31.44,0,0,1-.1-3.63c0-.61.05-1.22.11-1.83,0,0,.12-1,0-.39,0-.29.09-.57.14-.86.1-.53.24-1.06.39-1.58.07-.24.16-.47.25-.71-.26.68,0,0,.08-.12s.22-.37.33-.54c-.42.63-.11.16,0,0-.52.52-.26.19,0,.06-.45.17-.53.21-.23.12-.51,0-.6.06-.27,0,3.84-.14,3.85-6.11,0-6Z" style="fill:#fff"/><path d="M73.7,133.36c0-.56-1-1.68,0-1.68,4.36,6.73,7.76,17.4,9.7,23" style="fill:#fff"/><path d="M69.34,130.56c6.79-6.18,18.9-9.55,26.17,0,8.24,11.78-4.84,24.13-13.08,30.3" style="fill:#fff"/><path d="M112.2,115.29c-6.17.06-6,17.79-3.64,23.16,10.25,23.79,22.25-10.23,7.52-20.11" style="fill:#fff"/><path d="M112.16,111.2c-8,.39-9.12,10.54-9.21,16.66-.1,7.17,1.55,14.17,6.4,19.66,1.77,2,4.65,3.64,7.4,3.26,3.13-.43,5.28-2.18,7-4.74,3.44-5,3.72-12,2.78-17.82a20.2,20.2,0,0,0-8.45-13.44c-1.84-1.27-4.55-.29-5.59,1.53A4.18,4.18,0,0,0,114,121.9c1,.68-.58-.51.34.24.27.23.53.48.79.73a10.57,10.57,0,0,1,.73.77c.77.87-.45-.64.23.29a15.74,15.74,0,0,1,1.1,1.8c.17.31.31.64.46,1-.39-.86.06.22.1.34a17.91,17.91,0,0,1,.61,2.05c.09.34.15.69.22,1,0,.14.19,1.32.06.32a24.09,24.09,0,0,1,.13,4.57c0,.34-.06.69-.09,1,.1-1,0,.07,0,.24-.1.65-.24,1.28-.4,1.92s-.34,1.19-.54,1.77c-.07.2-.48,1.13,0,.1-.11.26-.24.51-.36.76a13,13,0,0,1-.81,1.35c.71-1-.18.17-.44.42-.6.57.8-.58.15-.11a5.64,5.64,0,0,1-.53.31c1.05-.56.6-.25.25-.14-.66.2,1.18,0,.13,0-.77,0,1.08.2.3.05-.29-.06-1-.36.17.13-.21-.09-.41-.22-.62-.33-.76-.46.73.61,0,0a9.46,9.46,0,0,1-1.28-1.33c.6.72-.15-.26-.21-.35-.24-.33-.44-.68-.65-1a15.44,15.44,0,0,1-1.75-3.72c-.18-.61-.32-1.24-.44-1.86-.07-.36-.13-.71-.18-1.06.14.94-.07-.65-.09-.81a41.38,41.38,0,0,1-.19-5c0-.84.06-1.68.13-2.52,0,0,.15-1.4,0-.54.05-.39.12-.78.18-1.17A20.32,20.32,0,0,1,112,121c.09-.33.2-.65.32-1-.34.93,0,0,.12-.18a6.47,6.47,0,0,1,.45-.75c-.58.88-.15.23,0,0-.71.71-.36.27,0,.08-.62.24-.73.3-.32.16-.7.08-.82.1-.37.07,5.27-.26,5.21-8.45-.07-8.19Z" style="fill:#fff"/><path d="M169.09,127.71c-5.83-2-11.58,14.77-11.14,20.62,1.73,25.85,24.39-2.23,13.79-16.45" style="fill:#fff"/><path d="M170.42,123.84c-7.67-2.3-12.11,6.9-14.23,12.64-2.49,6.73-3.26,13.88-.52,20.67,1,2.46,3.17,5,5.89,5.54,3.1.64,5.7-.3,8.21-2.13,4.92-3.59,7.52-10.1,8.56-15.87a20.25,20.25,0,0,0-3.49-15.49c-1.31-1.81-4.2-1.79-5.78-.42a4.17,4.17,0,0,0-.43,5.77c.71,1-.38-.67.24.35.18.3.34.62.51.94s.29.65.42,1c.44,1.08-.21-.76.12.35a16.06,16.06,0,0,1,.44,2.06c0,.35.09.71.12,1.06-.09-.94,0,.23,0,.35a18.87,18.87,0,0,1-.11,2.13c0,.36-.09.71-.14,1.07,0,.14-.26,1.3-.05.32a24,24,0,0,1-1.41,4.35c-.13.31-.28.62-.42.93.44-.94,0,.07-.13.22-.31.57-.65,1.13-1,1.67s-.72,1-1.1,1.49c-.14.17-.83.91-.07.09-.19.21-.39.4-.59.6a11.8,11.8,0,0,1-1.22,1c1-.74-.22.09-.55.24-.75.34,1-.27.18-.05a4.25,4.25,0,0,1-.6.12c1.17-.18.65,0,.28,0-.69,0,1.13.34.13,0-.73-.24.95.55.27.15-.25-.15-.81-.67.12.18a4.69,4.69,0,0,1-.48-.52c-.57-.68.48.82,0,0a10.17,10.17,0,0,1-.76-1.68c.33.88-.06-.29-.08-.4-.11-.39-.19-.79-.27-1.18a15.37,15.37,0,0,1-.41-4.09c0-.64.11-1.28.2-1.91l.18-1.06c-.17.93.16-.63.2-.79a41.56,41.56,0,0,1,1.47-4.76c.29-.79.62-1.56,1-2.33,0,0,.61-1.27.22-.5.18-.35.37-.7.57-1A18.75,18.75,0,0,1,167,133a9.77,9.77,0,0,1,.63-.81c-.63.76,0,0,.16-.13a7.11,7.11,0,0,1,.68-.55c-.84.63-.22.16,0,0-.91.43-.43.13-.06.06-.67,0-.79,0-.36.05-.68-.17-.8-.19-.37-.06,5.05,1.51,7.72-6.23,2.66-7.75Z" style="fill:#fff"/><path d="M136.83,117.65c7,3.93,14.85,4.07,22.47,5.38,4.09.7,5-6.3.87-7-7.06-1.21-14.31-1.23-20.82-4.87-1.56-.87-3.55.18-4.21,1.86a3.75,3.75,0,0,0,1.69,4.64Z" style="fill:#fff"/><path d="M143.47,116.93c-3.8,10-3.63,21.13-5.59,31.65l5.76-1.63c-2.6-3.73-6.15-7.38-7.18-12.12-.4-1.87-1.7-3.33-3.58-3.06a3.49,3.49,0,0,0-2.78,3.95c1.34,6.18,5,10.53,8.39,15.44,1.79,2.58,5.2,1.36,5.75-1.63,1.83-9.86,1.57-20.41,5.13-29.82,1.59-4.21-4.31-7-5.9-2.78Z" style="fill:#fff"/><path d="M104,227.23a3.6,3.6,0,0,1,2.73-.29c2.48.39,4.87,1,7.39,1.2a142.72,142.72,0,0,0,17.18-.06c1.81-.1,3.62-.23,5.43-.36s3.49-.8,5.28-.93a2.34,2.34,0,0,1,2.59,2.64c-.15,4.27-5.8,6.55-9,8-7.29,3.3-14.95,3.11-22.37.34a18.65,18.65,0,0,1-6.69-3.95c-1.26-1.24-3-3.32-3.06-5.17A1.71,1.71,0,0,1,104,227.23Z" style="fill:#fff"/><path d="M139.36,232.88c-15.1-.14-29.74-.37-29.74-.37s.19,2.13.33,3.84a24.35,24.35,0,0,0,3.22,1.44c7.42,2.77,15.08,3,22.37-.34,1.1-.5,2.47-1.09,3.82-1.82Z" style="fill:#fff"/><path d="M108.5,232.17s11.36,4.07,32.13.5l1.11-5.85c-1.7.17-3.34.78-5,.9s-3.62.26-5.43.36a142.72,142.72,0,0,1-17.18.06,64.91,64.91,0,0,1-6.95-1.13C107.64,229,108.5,232.17,108.5,232.17Z" style="fill:#fff"/><path d="M178.2,266.32l2,3.34a82.12,82.12,0,0,0,3-117l-2,3.39a78.38,78.38,0,0,1-3,110.26Z" style="fill:#fff"/><path d="M67.85,269.66l2-3.34a78.38,78.38,0,0,1-3-110.26l-2-3.39a82.12,82.12,0,0,0,3,117Z" style="fill:#fff"/><rect y="26.88" width="248" height="351.04" rx="20" style="fill:#ab2424"/><rect y="21.88" width="248" height="351.04" rx="20" style="fill:#d02b27"/><path d="M237.5,344.93c0,10.48-8.2,19-18.31,19H28.81c-10.11,0-18.31-8.5-18.31-19V49.86c0-10.48,8.2-19,18.31-19H219.19c10.11,0,18.31,8.49,18.31,19Z" style="fill:none;stroke:#fff;stroke-miterlimit:10;stroke-width:5.66929px"/><path d="M144,172.85c-8.37,0-15.73-.16-20,6.45-4.25-6.61-11.62-6.45-20-6.45a24.14,24.14,0,0,0-3.11,48c.52.07,1.72,6.36,1.91,7.05.86,3,2.15,6.79,4.38,9.16,1.59,1.69,3.79,2.23,6,2.66a60.14,60.14,0,0,0,15.68.7c5.55-.38,10.67.3,13.21-5.33a100.06,100.06,0,0,0,5-14.24,24.14,24.14,0,0,0-3.11-48Zm-15.31,33.86a2.37,2.37,0,1,1,2.12,4.23c-1.25.64-5.47.31-5.67.21S127.42,207.35,128.68,206.71Zm-12.7,1a2.47,2.47,0,0,1,3.34-1c1.26.64,3.75,4.33,3.55,4.44s-4.42.43-5.67-.21A2.47,2.47,0,0,1,116,207.68Zm-16.21-4.41a3.61,3.61,0,1,1,3.61-3.61A3.61,3.61,0,0,1,99.77,203.27Zm39.11,25.32,0,0-1,.49h0l-.45.21-.07,0-.44.2h0l-.44.19-.23.11-.21.09-.46.21c-7.29,3.3-14.95,3.11-22.37.35l-.84-.33c-.26-.1-.51-.21-.77-.33h0a16.93,16.93,0,0,1-5-3.29c-1.26-1.24-3-3.32-3.06-5.17a1.71,1.71,0,0,1,.56-1.44,3.6,3.6,0,0,1,2.73-.29l.44.07h0c1.37.24,2.71.54,4.07.77l.09,0,.72.11.22,0,.67.08.25,0,.92.08a142.72,142.72,0,0,0,17.18-.07c1.81-.1,3.62-.23,5.43-.36.22,0,.43,0,.65-.07h.11c1.43-.21,2.83-.67,4.26-.82h0l.25,0a2.34,2.34,0,0,1,2.59,2.64C144.47,225.13,141.66,227.15,138.88,228.59Zm9.35-25.32a3.61,3.61,0,1,1,3.61-3.61A3.61,3.61,0,0,1,148.23,203.27Z" style="fill:#d02b27"/><path d="M189.84,178.5a14.5,14.5,0,0,0-26.79-7.69,40.43,40.43,0,0,0-6.35-5.36c-4.58-2.75-11.24-3.42-17.85-3.42a7.72,7.72,0,0,0,.2-4.43c-1.12-4.87-7.49-10.29-12.54-10.11,2.44,4.31,2.62,10.48-2.43,13.29-1.12-2.06-3.74-2.25-6-2.06a4.72,4.72,0,0,1,1.66,3.66c-9.07-.5-20.69-1.08-27.6,3.07a41.44,41.44,0,0,0-6.88,5.9,14.5,14.5,0,1,0-17.62,20.76,13.22,13.22,0,0,0-1.32,3.65c.84-.57,2.25-.85,3.09-1.69a20.67,20.67,0,0,0-3.09,12.63,20.93,20.93,0,0,0,3.09-3.93c-1.12,3.93-2,8.14-1.12,12.07a16.37,16.37,0,0,0,3.08-4.21c.28,3.93-1.4,11.22,2.81,13.47a45.52,45.52,0,0,0,.84-5.61c1.12,2.24,2.25,4.77,4.21,5.89,0-.84.28-2,.28-2.81,2,2.25,3.93,4.78,6.74,5.62,1.68-3.93,9.82,2.24,11.5,4.77,2.81,3.64,1.69,8.7,4.49,12.06.56-.56,1.69-1.12,2-2,1.68,2.53,2.52,5.89,5.33,7.3a32,32,0,0,1,1.4-3.09c2.53,1.68,3.93,4.77,7.3,5.33,0-1.4.28-2.52-.28-3.65a49,49,0,0,1,5,3.09,16.77,16.77,0,0,1,2-4.83c.33,1.61.63,3.39.81,4.83a47.9,47.9,0,0,1,5-3.09c-.56,1.13-.28,2.25-.28,3.65,3.36-.56,4.77-3.65,7.29-5.33a31.86,31.86,0,0,1,1.41,3.09c2.8-1.41,3.65-4.77,5.33-7.3.28.84,1.4,1.4,2,2,2.81-3.36,1.69-8.42,4.49-12.06,1.69-2.53,9.82-8.7,11.51-4.77,2.8-.84,4.77-3.37,6.73-5.62,0,.85.28,2,.28,2.81,2-1.12,3.09-3.65,4.21-5.89a43.81,43.81,0,0,0,.85,5.61c4.21-2.25,2.52-9.54,2.8-13.47a16.4,16.4,0,0,0,3.09,4.21c.84-3.93,0-8.14-1.12-12.07a20.89,20.89,0,0,0,3.08,3.93,20.73,20.73,0,0,0-3.08-12.63c.84.84,2.24,1.12,3.08,1.69a13.36,13.36,0,0,0-1.46-3.93A14.52,14.52,0,0,0,189.84,178.5ZM147.1,220.88a100.06,100.06,0,0,1-5,14.24c-2.54,5.63-7.66,4.95-13.21,5.33a60.14,60.14,0,0,1-15.68-.7c-2.26-.43-4.46-1-6-2.66-2.23-2.37-3.52-6.15-4.38-9.16-.19-.69-1.39-7-1.91-7.05a24.14,24.14,0,0,1,3.11-48c8.37,0,15.74-.16,20,6.45,4.26-6.61,11.62-6.45,20-6.45a24.14,24.14,0,0,1,3.11,48Z" style="fill:#fff"/><path d="M148.23,196.05a3.61,3.61,0,1,0,3.61,3.61A3.61,3.61,0,0,0,148.23,196.05Z" style="fill:#fff"/><path d="M99.77,196.05a3.61,3.61,0,1,0,3.61,3.61A3.61,3.61,0,0,0,99.77,196.05Z" style="fill:#fff"/><path d="M130.8,210.94a2.37,2.37,0,1,0-2.12-4.23c-1.26.64-3.75,4.33-3.55,4.44S129.55,211.58,130.8,210.94Z" style="fill:#fff"/><path d="M117.2,210.94c1.25.64,5.47.31,5.67.21s-2.29-3.8-3.55-4.44a2.37,2.37,0,1,0-2.12,4.23Z" style="fill:#fff"/><path d="M80.29,280.91c2.92-7.55,6.46-15.37,11.58-21.7l-5.09-2.11c-.56,5.57.61,11.24,2.35,16.51.73,2.23,4.28,3.22,5.45.71,2.87-6.14,8-10.7,12.44-15.67l-5-1.32c2.1,10.41-1,21.26,2.8,31.43a3.05,3.05,0,0,0,3.67,2.09,3,3,0,0,0,2.09-3.67c-1.83-4.84-2-9.86-1.93-15,.07-5.53.22-11-.88-16.46a3,3,0,0,0-5-1.32c-4.76,5.33-10.3,10.3-13.37,16.88l5.45.71c-1.59-4.83-2.65-9.82-2.14-14.92.25-2.51-3.5-4.08-5.09-2.11-5.81,7.19-9.8,15.75-13.11,24.33A3,3,0,0,0,76.62,283a3.05,3.05,0,0,0,3.67-2.08Z" style="fill:#fff"/><path d="M119.65,266.89c-4.49-3.37-5.61,11.23-3.93,14.59,9.54,21.33,18-20.76,4.49-15.15" style="fill:#fff"/><path d="M121.15,264.31a4.67,4.67,0,0,0-6.3.79,12.71,12.71,0,0,0-2.45,6.31,29.57,29.57,0,0,0-.3,7.28,15.61,15.61,0,0,0,2,6.25c1.74,3.2,4.49,6.1,8.41,5.46,3.11-.51,4.87-3.9,5.94-6.5a24.88,24.88,0,0,0,1.28-14.2c-1-4.89-5.31-8.27-10.31-6.25a3.05,3.05,0,0,0-2.09,3.67c.4,1.43,2.16,2.7,3.67,2.09a7.11,7.11,0,0,1,1-.34l.46-.1c.58-.12-.78.08-.21,0,.31,0,1.28.11.14-.06.33.05,1.23.45.23,0,.26.12,1,.66.1,0a4.35,4.35,0,0,1,.53.52c.35.4-.46-.63-.15-.19a3.78,3.78,0,0,1,.22.33c.14.24.6,1.3.19.3a10.71,10.71,0,0,1,.52,1.78c0,.24.22,1.41.09.36.05.41.08.82.11,1.22,0,.74,0,1.47,0,2.2,0,.38,0,.75-.08,1.13,0,.19,0,.37,0,.56-.09.87.06-.4,0,.15a24.27,24.27,0,0,1-1.08,4.45c-.08.23-.53,1.34-.13.39-.13.3-.26.59-.41.87s-.28.54-.44.8-.87,1.18-.18.31a5.57,5.57,0,0,1-.52.57c-.61.6.5-.32,0,0l-.29.17c-.42.23.77-.3.33-.14-.85.32.52,0,0,.05-.82,0,.69.17,0,0s.72.4,0,0l-.33-.21c-.46-.31.58.48.15.11a7,7,0,0,1-.81-.83c-.19-.24-.15-.19.12.16-.12-.16-.24-.33-.35-.5-.26-.37-.49-.76-.71-1.15s-.5-.92-.72-1.38c-.13-.26-.25-.52-.37-.78.4.88.15.36.08.14a8.65,8.65,0,0,1-.23-.91c0-.15-.13-.87,0-.06,0-.23,0-.47-.07-.7a24.12,24.12,0,0,1-.06-3.18c0-.47,0-.94.09-1.4,0-.28.05-.56.08-.84.11-.92-.09.59,0-.31a16.71,16.71,0,0,1,.72-3c.12-.32.1-.28-.06.1.08-.19.18-.37.27-.55s.19-.31.3-.47c-.46.67-.21.27,0,.11-.58.56.07.07-.71.39.5-.2-.8,0-.25,0-.8,0-.13.08-.77-.2a3,3,0,0,1,.48.3,3,3,0,0,0,4.08-1.07,3,3,0,0,0-1.07-4.09Z" style="fill:#fff"/><path d="M133.12,264.29c7.31.49,14-2.27,21-4,3.72-.95,2.14-6.71-1.59-5.76-6.44,1.64-12.65,4.27-19.41,3.83a3,3,0,0,0-3,3,3,3,0,0,0,3,3Z" style="fill:#fff"/><path d="M138.55,261.31c.08,9.19,3.91,17.73,5.72,26.61l4.39-3.37c-3.46-1.95-7.72-3.48-10.16-6.79a3,3,0,0,0-4.08-1.07c-1.29.76-2,2.78-1.07,4.08,3.19,4.32,7.75,6.37,12.29,8.93a3,3,0,0,0,4.39-3.37c-1.71-8.33-5.44-16.42-5.51-25,0-3.85-6-3.85-6,0Z" style="fill:#fff"/><path d="M162.94,260.79c-4.49,0-4.49,12.91-2.8,16.84,7.29,17.4,16.27-7.3,5.61-14.59" style="fill:#fff"/><path d="M162.94,257.81c-5.82.23-6.71,7.61-6.82,12.07-.12,5.22,1,10.33,4.53,14.36a6.53,6.53,0,0,0,5.36,2.43,7.25,7.25,0,0,0,5.16-3.41c2.54-3.63,2.79-8.73,2.15-12.95a14.75,14.75,0,0,0-6.06-9.85,3,3,0,0,0-4.09,1.07,3,3,0,0,0,1.07,4.08c.72.51-.42-.37.24.18.2.17.39.36.58.54s.35.37.52.57c.56.63-.32-.48.17.21a13.54,13.54,0,0,1,.79,1.32c.12.23.22.46.33.7-.28-.63,0,.16.07.25.17.49.31,1,.43,1.49.06.25.1.51.15.77,0,.1.13.95,0,.23a16.84,16.84,0,0,1,.06,3.33c0,.25,0,.5-.07.74.08-.75,0,.06,0,.18a13.23,13.23,0,0,1-.3,1.39,11.38,11.38,0,0,1-.41,1.29c-.05.15-.35.82,0,.08-.08.18-.18.37-.27.55a8.72,8.72,0,0,1-.6,1c.52-.75-.13.12-.32.3-.44.42.58-.41.11-.08a2.5,2.5,0,0,1-.39.23c.77-.4.44-.18.18-.1-.48.14.86,0,.1,0-.56,0,.79.16.22,0-.21,0-.72-.27.12.1a5.05,5.05,0,0,1-.45-.25c-.55-.33.53.46,0,0a7.12,7.12,0,0,1-.92-1c.43.53-.11-.18-.16-.25-.16-.25-.31-.5-.46-.76a10.8,10.8,0,0,1-1.24-2.72,12.23,12.23,0,0,1-.32-1.36c0-.25-.09-.51-.12-.77.1.68,0-.47-.06-.59a31.44,31.44,0,0,1-.1-3.63c0-.61.05-1.22.11-1.83,0,0,.12-1,0-.39,0-.29.09-.57.14-.86.1-.53.24-1.06.39-1.58.07-.24.16-.47.25-.71-.26.68,0,0,.08-.12s.22-.37.33-.54c-.42.63-.11.16,0,0-.52.52-.26.19,0,.06-.45.17-.53.21-.23.12-.51,0-.6.06-.27,0,3.84-.14,3.85-6.11,0-6Z" style="fill:#fff"/><path d="M73.7,126.36c0-.56-1-1.68,0-1.68,4.36,6.73,7.76,17.4,9.7,23" style="fill:#fff"/><path d="M69.34,123.56c6.79-6.18,18.9-9.55,26.17,0,8.24,11.78-4.84,24.13-13.08,30.3" style="fill:#fff"/><path d="M112.2,108.29c-6.17.06-6,17.79-3.64,23.16,10.25,23.79,22.25-10.23,7.52-20.11" style="fill:#fff"/><path d="M112.16,104.2c-8,.39-9.12,10.54-9.21,16.66-.1,7.17,1.55,14.17,6.4,19.66,1.77,2,4.65,3.64,7.4,3.26,3.13-.43,5.28-2.18,7-4.74,3.44-5,3.72-12,2.78-17.82a20.2,20.2,0,0,0-8.45-13.44c-1.84-1.27-4.55-.29-5.59,1.53A4.18,4.18,0,0,0,114,114.9c1,.68-.58-.51.34.24.27.23.53.48.79.73a10.57,10.57,0,0,1,.73.77c.77.87-.45-.64.23.29a15.74,15.74,0,0,1,1.1,1.8c.17.31.31.64.46,1-.39-.86.06.22.1.34a17.91,17.91,0,0,1,.61,2c.09.34.15.69.22,1,0,.14.19,1.32.06.32a24.09,24.09,0,0,1,.13,4.57c0,.34-.06.69-.09,1,.1-1,0,.07,0,.24-.1.65-.24,1.28-.4,1.92s-.34,1.19-.54,1.77c-.07.2-.48,1.13,0,.1-.11.26-.24.51-.36.76a13,13,0,0,1-.81,1.35c.71-1-.18.17-.44.42-.6.57.8-.58.15-.11a5.64,5.64,0,0,1-.53.31c1.05-.56.6-.25.25-.14-.66.2,1.18,0,.13,0-.77,0,1.08.2.3.05-.29-.06-1-.36.17.13-.21-.09-.41-.22-.62-.33-.76-.46.73.61,0,0a9.46,9.46,0,0,1-1.28-1.33c.6.72-.15-.26-.21-.35-.24-.33-.44-.68-.65-1a15.44,15.44,0,0,1-1.75-3.72c-.18-.61-.32-1.24-.44-1.86-.07-.36-.13-.71-.18-1.06.14.94-.07-.65-.09-.81a41.38,41.38,0,0,1-.19-5c0-.84.06-1.68.13-2.52,0,0,.15-1.4,0-.54.05-.39.12-.78.18-1.17A20.32,20.32,0,0,1,112,114c.09-.33.2-.65.32-1-.34.93,0,0,.12-.18a6.47,6.47,0,0,1,.45-.75c-.58.88-.15.23,0,0-.71.71-.36.27,0,.08-.62.24-.73.3-.32.16-.7.08-.82.1-.37.07,5.27-.26,5.21-8.45-.07-8.19Z" style="fill:#fff"/><path d="M169.09,120.71c-5.83-2-11.58,14.77-11.14,20.62,1.73,25.85,24.39-2.23,13.79-16.45" style="fill:#fff"/><path d="M170.42,116.84c-7.67-2.3-12.11,6.9-14.23,12.64-2.49,6.73-3.26,13.88-.52,20.67,1,2.46,3.17,5,5.89,5.54,3.1.64,5.7-.3,8.21-2.13,4.92-3.59,7.52-10.1,8.56-15.87a20.25,20.25,0,0,0-3.49-15.49c-1.31-1.81-4.2-1.79-5.78-.42a4.17,4.17,0,0,0-.43,5.77c.71,1-.38-.67.24.35.18.3.34.62.51.94s.29.65.42,1c.44,1.08-.21-.76.12.35a16.06,16.06,0,0,1,.44,2.06c0,.35.09.71.12,1.06-.09-.94,0,.23,0,.35a18.87,18.87,0,0,1-.11,2.13c0,.36-.09.71-.14,1.07,0,.14-.26,1.3-.05.32a24,24,0,0,1-1.41,4.35c-.13.31-.28.62-.42.93.44-.94,0,.07-.13.22-.31.57-.65,1.13-1,1.67s-.72,1-1.1,1.49c-.14.17-.83.91-.07.09-.19.21-.39.4-.59.6a11.8,11.8,0,0,1-1.22,1c1-.74-.22.09-.55.24-.75.34,1-.27.18-.05a4.25,4.25,0,0,1-.6.12c1.17-.18.65,0,.28,0-.69,0,1.13.34.13,0-.73-.24.95.55.27.15-.25-.15-.81-.67.12.18a4.69,4.69,0,0,1-.48-.52c-.57-.68.48.82,0,0a10.17,10.17,0,0,1-.76-1.68c.33.88-.06-.29-.08-.4-.11-.39-.19-.79-.27-1.18a15.37,15.37,0,0,1-.41-4.09c0-.64.11-1.28.2-1.91l.18-1.06c-.17.93.16-.63.2-.79a41.56,41.56,0,0,1,1.47-4.76c.29-.79.62-1.56,1-2.33,0,0,.61-1.27.22-.5.18-.35.37-.7.57-1A18.75,18.75,0,0,1,167,126a9.77,9.77,0,0,1,.63-.81c-.63.76,0,0,.16-.13a7.11,7.11,0,0,1,.68-.55c-.84.63-.22.16,0,0-.91.43-.43.13-.06.06-.67,0-.79,0-.36.05-.68-.17-.8-.19-.37-.06,5.05,1.51,7.72-6.23,2.66-7.75Z" style="fill:#fff"/><path d="M136.83,110.65c7,3.93,14.85,4.07,22.47,5.38,4.09.7,5-6.3.87-7-7.06-1.21-14.31-1.23-20.82-4.87-1.56-.87-3.55.18-4.21,1.86a3.75,3.75,0,0,0,1.69,4.64Z" style="fill:#fff"/><path d="M143.47,109.93c-3.8,10-3.63,21.13-5.59,31.65l5.76-1.63c-2.6-3.73-6.15-7.38-7.18-12.12-.4-1.87-1.7-3.33-3.58-3.06a3.49,3.49,0,0,0-2.78,4c1.34,6.18,5,10.53,8.39,15.44,1.79,2.58,5.2,1.36,5.75-1.63,1.83-9.86,1.57-20.41,5.13-29.82,1.59-4.21-4.31-7-5.9-2.78Z" style="fill:#fff"/><path d="M104,220.23a3.6,3.6,0,0,1,2.73-.29c2.48.39,4.87,1,7.39,1.2a142.72,142.72,0,0,0,17.18-.06c1.81-.1,3.62-.23,5.43-.36s3.49-.8,5.28-.93a2.34,2.34,0,0,1,2.59,2.64c-.15,4.27-5.8,6.55-9,8-7.29,3.3-14.95,3.11-22.37.34a18.65,18.65,0,0,1-6.69-3.95c-1.26-1.24-3-3.32-3.06-5.17A1.71,1.71,0,0,1,104,220.23Z" style="fill:#fff"/><path d="M139.36,225.88c-15.1-.14-29.74-.37-29.74-.37s.19,2.13.33,3.84a24.35,24.35,0,0,0,3.22,1.44c7.42,2.77,15.08,3,22.37-.34,1.1-.5,2.47-1.09,3.82-1.82Z" style="fill:#fff"/><path d="M108.5,225.17s11.36,4.07,32.13.5l1.11-5.85c-1.7.17-3.34.78-5,.9s-3.62.26-5.43.36a142.72,142.72,0,0,1-17.18.06,64.91,64.91,0,0,1-6.95-1.13C107.64,222,108.5,225.17,108.5,225.17Z" style="fill:#fff"/><path d="M178.2,259.32l2,3.34a82.12,82.12,0,0,0,3-117l-2,3.39a78.38,78.38,0,0,1-3,110.26Z" style="fill:#fff"/><path d="M67.85,262.66l2-3.34a78.38,78.38,0,0,1-3-110.26l-2-3.39a82.12,82.12,0,0,0,3,117Z" style="fill:#fff"/><rect y="19.88" width="248" height="351.04" rx="20" style="fill:#ab2424"/><rect y="14.88" width="248" height="351.04" rx="20" style="fill:#d02b27"/><path d="M237.5,337.93c0,10.48-8.2,19-18.31,19H28.81c-10.11,0-18.31-8.5-18.31-19V42.86c0-10.48,8.2-19,18.31-19H219.19c10.11,0,18.31,8.49,18.31,19Z" style="fill:none;stroke:#fff;stroke-miterlimit:10;stroke-width:5.66929px"/><path d="M144,165.85c-8.37,0-15.73-.16-20,6.45-4.25-6.61-11.62-6.45-20-6.45a24.14,24.14,0,0,0-3.11,48c.52.07,1.72,6.36,1.91,7.05.86,3,2.15,6.79,4.38,9.16,1.59,1.69,3.79,2.23,6,2.66a60.14,60.14,0,0,0,15.68.7c5.55-.38,10.67.3,13.21-5.33a100.06,100.06,0,0,0,5-14.24,24.14,24.14,0,0,0-3.11-48Zm-15.31,33.86a2.37,2.37,0,1,1,2.12,4.23c-1.25.64-5.47.31-5.67.21S127.42,200.35,128.68,199.71Zm-12.7,1a2.47,2.47,0,0,1,3.34-1c1.26.64,3.75,4.33,3.55,4.44s-4.42.43-5.67-.21A2.47,2.47,0,0,1,116,200.68Zm-16.21-4.41a3.61,3.61,0,1,1,3.61-3.61A3.61,3.61,0,0,1,99.77,196.27Zm39.11,25.32,0,0-1,.49h0l-.45.21-.07,0-.44.2h0l-.44.19-.23.11-.21.09-.46.21c-7.29,3.3-14.95,3.11-22.37.35l-.84-.33c-.26-.1-.51-.21-.77-.33h0a16.93,16.93,0,0,1-5-3.29c-1.26-1.24-3-3.32-3.06-5.17a1.71,1.71,0,0,1,.56-1.44,3.6,3.6,0,0,1,2.73-.29l.44.07h0c1.37.24,2.71.54,4.07.77l.09,0,.72.11.22,0,.67.08.25,0,.92.08a142.72,142.72,0,0,0,17.18-.07c1.81-.1,3.62-.23,5.43-.36.22,0,.43,0,.65-.07h.11c1.43-.21,2.83-.67,4.26-.82h0l.25,0a2.34,2.34,0,0,1,2.59,2.64C144.47,218.13,141.66,220.15,138.88,221.59Zm9.35-25.32a3.61,3.61,0,1,1,3.61-3.61A3.61,3.61,0,0,1,148.23,196.27Z" style="fill:#d02b27"/><path d="M189.84,171.5a14.5,14.5,0,0,0-26.79-7.69,40.43,40.43,0,0,0-6.35-5.36c-4.58-2.75-11.24-3.42-17.85-3.42a7.72,7.72,0,0,0,.2-4.43c-1.12-4.87-7.49-10.29-12.54-10.11,2.44,4.31,2.62,10.48-2.43,13.29-1.12-2.06-3.74-2.25-6-2.06a4.72,4.72,0,0,1,1.66,3.66c-9.07-.5-20.69-1.08-27.6,3.07a41.44,41.44,0,0,0-6.88,5.9,14.5,14.5,0,1,0-17.62,20.76,13.22,13.22,0,0,0-1.32,3.65c.84-.57,2.25-.85,3.09-1.69a20.67,20.67,0,0,0-3.09,12.63,20.93,20.93,0,0,0,3.09-3.93c-1.12,3.93-2,8.14-1.12,12.07a16.37,16.37,0,0,0,3.08-4.21c.28,3.93-1.4,11.22,2.81,13.47a45.52,45.52,0,0,0,.84-5.61c1.12,2.24,2.25,4.77,4.21,5.89,0-.84.28-2,.28-2.81,2,2.25,3.93,4.78,6.74,5.62,1.68-3.93,9.82,2.24,11.5,4.77,2.81,3.64,1.69,8.7,4.49,12.06.56-.56,1.69-1.12,2-2,1.68,2.53,2.52,5.89,5.33,7.3a32,32,0,0,1,1.4-3.09c2.53,1.68,3.93,4.77,7.3,5.33,0-1.4.28-2.52-.28-3.65a49,49,0,0,1,5,3.09,16.77,16.77,0,0,1,2-4.83c.33,1.61.63,3.39.81,4.83a47.9,47.9,0,0,1,5-3.09c-.56,1.13-.28,2.25-.28,3.65,3.36-.56,4.77-3.65,7.29-5.33a31.86,31.86,0,0,1,1.41,3.09c2.8-1.41,3.65-4.77,5.33-7.3.28.84,1.4,1.4,2,2,2.81-3.36,1.69-8.42,4.49-12.06,1.69-2.53,9.82-8.7,11.51-4.77,2.8-.84,4.77-3.37,6.73-5.62,0,.85.28,2,.28,2.81,2-1.12,3.09-3.65,4.21-5.89a43.81,43.81,0,0,0,.85,5.61c4.21-2.25,2.52-9.54,2.8-13.47a16.4,16.4,0,0,0,3.09,4.21c.84-3.93,0-8.14-1.12-12.07a20.89,20.89,0,0,0,3.08,3.93,20.73,20.73,0,0,0-3.08-12.63c.84.84,2.24,1.12,3.08,1.69a13.36,13.36,0,0,0-1.46-3.93A14.52,14.52,0,0,0,189.84,171.5ZM147.1,213.88a100.06,100.06,0,0,1-5,14.24c-2.54,5.63-7.66,4.95-13.21,5.33a60.14,60.14,0,0,1-15.68-.7c-2.26-.43-4.46-1-6-2.66-2.23-2.37-3.52-6.15-4.38-9.16-.19-.69-1.39-7-1.91-7.05a24.14,24.14,0,0,1,3.11-48c8.37,0,15.74-.16,20,6.45,4.26-6.61,11.62-6.45,20-6.45a24.14,24.14,0,0,1,3.11,48Z" style="fill:#fff"/><path d="M148.23,189.05a3.61,3.61,0,1,0,3.61,3.61A3.61,3.61,0,0,0,148.23,189.05Z" style="fill:#fff"/><path d="M99.77,189.05a3.61,3.61,0,1,0,3.61,3.61A3.61,3.61,0,0,0,99.77,189.05Z" style="fill:#fff"/><path d="M130.8,203.94a2.37,2.37,0,1,0-2.12-4.23c-1.26.64-3.75,4.33-3.55,4.44S129.55,204.58,130.8,203.94Z" style="fill:#fff"/><path d="M117.2,203.94c1.25.64,5.47.31,5.67.21s-2.29-3.8-3.55-4.44a2.37,2.37,0,1,0-2.12,4.23Z" style="fill:#fff"/><path d="M80.29,273.91c2.92-7.55,6.46-15.37,11.58-21.7l-5.09-2.11c-.56,5.57.61,11.24,2.35,16.51.73,2.23,4.28,3.22,5.45.71,2.87-6.14,8-10.7,12.44-15.67l-5-1.32c2.1,10.41-1,21.26,2.8,31.43a3.05,3.05,0,0,0,3.67,2.09,3,3,0,0,0,2.09-3.67c-1.83-4.84-2-9.86-1.93-15,.07-5.53.22-11-.88-16.46a3,3,0,0,0-5-1.32c-4.76,5.33-10.3,10.3-13.37,16.88l5.45.71c-1.59-4.83-2.65-9.82-2.14-14.92.25-2.51-3.5-4.08-5.09-2.11-5.81,7.19-9.8,15.75-13.11,24.33A3,3,0,0,0,76.62,276a3.05,3.05,0,0,0,3.67-2.08Z" style="fill:#fff"/><path d="M119.65,259.89c-4.49-3.37-5.61,11.23-3.93,14.59,9.54,21.33,18-20.76,4.49-15.15" style="fill:#fff"/><path d="M121.15,257.31a4.67,4.67,0,0,0-6.3.79,12.71,12.71,0,0,0-2.45,6.31,29.57,29.57,0,0,0-.3,7.28,15.61,15.61,0,0,0,2,6.25c1.74,3.2,4.49,6.1,8.41,5.46,3.11-.51,4.87-3.9,5.94-6.5a24.88,24.88,0,0,0,1.28-14.2c-1-4.89-5.31-8.27-10.31-6.25a3.05,3.05,0,0,0-2.09,3.67c.4,1.43,2.16,2.7,3.67,2.09a7.11,7.11,0,0,1,1-.34l.46-.1c.58-.12-.78.08-.21,0,.31,0,1.28.11.14-.06.33.05,1.23.45.23,0,.26.12,1,.66.1,0a4.35,4.35,0,0,1,.53.52c.35.4-.46-.63-.15-.19a3.78,3.78,0,0,1,.22.33c.14.24.6,1.3.19.3a10.71,10.71,0,0,1,.52,1.78c0,.24.22,1.41.09.36.05.41.08.82.11,1.22,0,.74,0,1.47,0,2.2,0,.38,0,.75-.08,1.13,0,.19,0,.37,0,.56-.09.87.06-.4,0,.15a24.27,24.27,0,0,1-1.08,4.45c-.08.23-.53,1.34-.13.39-.13.3-.26.59-.41.87s-.28.54-.44.8-.87,1.18-.18.31a5.57,5.57,0,0,1-.52.57c-.61.6.5-.32,0,0l-.29.17c-.42.23.77-.3.33-.14-.85.32.52,0,0,.05-.82,0,.69.17,0,0s.72.4,0,0l-.33-.21c-.46-.31.58.48.15.11a7,7,0,0,1-.81-.83c-.19-.24-.15-.19.12.16-.12-.16-.24-.33-.35-.5-.26-.37-.49-.76-.71-1.15s-.5-.92-.72-1.38c-.13-.26-.25-.52-.37-.78.4.88.15.36.08.14a8.65,8.65,0,0,1-.23-.91c0-.15-.13-.87,0-.06,0-.23,0-.47-.07-.7a24.12,24.12,0,0,1-.06-3.18c0-.47,0-.94.09-1.4,0-.28.05-.56.08-.84.11-.92-.09.59,0-.31a16.71,16.71,0,0,1,.72-3c.12-.32.1-.28-.06.1.08-.19.18-.37.27-.55s.19-.31.3-.47c-.46.67-.21.27,0,.11-.58.56.07.07-.71.39.5-.2-.8,0-.25,0-.8,0-.13.08-.77-.2a3,3,0,0,1,.48.3,3,3,0,0,0,4.08-1.07,3,3,0,0,0-1.07-4.09Z" style="fill:#fff"/><path d="M133.12,257.29c7.31.49,14-2.27,21-4,3.72-.95,2.14-6.71-1.59-5.76-6.44,1.64-12.65,4.27-19.41,3.83a3,3,0,0,0-3,3,3,3,0,0,0,3,3Z" style="fill:#fff"/><path d="M138.55,254.31c.08,9.19,3.91,17.73,5.72,26.61l4.39-3.37c-3.46-1.95-7.72-3.48-10.16-6.79a3,3,0,0,0-4.08-1.07c-1.29.76-2,2.78-1.07,4.08,3.19,4.32,7.75,6.37,12.29,8.93a3,3,0,0,0,4.39-3.37c-1.71-8.33-5.44-16.42-5.51-25,0-3.85-6-3.85-6,0Z" style="fill:#fff"/><path d="M162.94,253.79c-4.49,0-4.49,12.91-2.8,16.84,7.29,17.4,16.27-7.3,5.61-14.59" style="fill:#fff"/><path d="M162.94,250.81c-5.82.23-6.71,7.61-6.82,12.07-.12,5.22,1,10.33,4.53,14.36a6.53,6.53,0,0,0,5.36,2.43,7.25,7.25,0,0,0,5.16-3.41c2.54-3.63,2.79-8.73,2.15-12.95a14.75,14.75,0,0,0-6.06-9.85,3,3,0,0,0-4.09,1.07,3,3,0,0,0,1.07,4.08c.72.51-.42-.37.24.18.2.17.39.36.58.54s.35.37.52.57c.56.63-.32-.48.17.21a13.54,13.54,0,0,1,.79,1.32c.12.23.22.46.33.7-.28-.63,0,.16.07.25.17.49.31,1,.43,1.49.06.25.1.51.15.77,0,.1.13.95,0,.23a16.84,16.84,0,0,1,.06,3.33c0,.25,0,.5-.07.74.08-.75,0,.06,0,.18a13.23,13.23,0,0,1-.3,1.39,11.38,11.38,0,0,1-.41,1.29c-.05.15-.35.82,0,.08-.08.18-.18.37-.27.55a8.72,8.72,0,0,1-.6,1c.52-.75-.13.12-.32.3-.44.42.58-.41.11-.08a2.5,2.5,0,0,1-.39.23c.77-.4.44-.18.18-.1-.48.14.86,0,.1,0-.56,0,.79.16.22,0-.21,0-.72-.27.12.1a5.05,5.05,0,0,1-.45-.25c-.55-.33.53.46,0,0a7.12,7.12,0,0,1-.92-1c.43.53-.11-.18-.16-.25-.16-.25-.31-.5-.46-.76a10.8,10.8,0,0,1-1.24-2.72,12.23,12.23,0,0,1-.32-1.36c0-.25-.09-.51-.12-.77.1.68,0-.47-.06-.59a31.44,31.44,0,0,1-.1-3.63c0-.61.05-1.22.11-1.83,0,0,.12-1,0-.39,0-.29.09-.57.14-.86.1-.53.24-1.06.39-1.58.07-.24.16-.47.25-.71-.26.68,0,0,.08-.12s.22-.37.33-.54c-.42.63-.11.16,0,0-.52.52-.26.19,0,.06-.45.17-.53.21-.23.12-.51,0-.6.06-.27,0,3.84-.14,3.85-6.11,0-6Z" style="fill:#fff"/><path d="M73.7,119.36c0-.56-1-1.68,0-1.68,4.36,6.73,7.76,17.4,9.7,23" style="fill:#fff"/><path d="M69.34,116.56c6.79-6.18,18.9-9.55,26.17,0,8.24,11.78-4.84,24.13-13.08,30.3" style="fill:#fff"/><path d="M112.2,101.29c-6.17.06-6,17.79-3.64,23.16,10.25,23.79,22.25-10.23,7.52-20.11" style="fill:#fff"/><path d="M112.16,97.2c-8,.39-9.12,10.54-9.21,16.66-.1,7.17,1.55,14.17,6.4,19.66,1.77,2,4.65,3.64,7.4,3.26,3.13-.43,5.28-2.18,7-4.74,3.44-5,3.72-12,2.78-17.82a20.2,20.2,0,0,0-8.45-13.44c-1.84-1.27-4.55-.29-5.59,1.53A4.18,4.18,0,0,0,114,107.9c1,.68-.58-.51.34.24.27.23.53.48.79.73a10.57,10.57,0,0,1,.73.77c.77.87-.45-.64.23.29a15.74,15.74,0,0,1,1.1,1.8c.17.31.31.64.46,1-.39-.86.06.22.1.34a17.91,17.91,0,0,1,.61,2c.09.34.15.69.22,1,0,.14.19,1.32.06.32a24.09,24.09,0,0,1,.13,4.57c0,.34-.06.69-.09,1,.1-1,0,.07,0,.24-.1.65-.24,1.28-.4,1.92s-.34,1.19-.54,1.77c-.07.2-.48,1.13,0,.1-.11.26-.24.51-.36.76a13,13,0,0,1-.81,1.35c.71-1-.18.17-.44.42-.6.57.8-.58.15-.11a5.64,5.64,0,0,1-.53.31c1.05-.56.6-.25.25-.14-.66.2,1.18,0,.13,0-.77,0,1.08.2.3.05-.29-.06-1-.36.17.13-.21-.09-.41-.22-.62-.33-.76-.46.73.61,0,0a9.46,9.46,0,0,1-1.28-1.33c.6.72-.15-.26-.21-.35-.24-.33-.44-.68-.65-1a15.44,15.44,0,0,1-1.75-3.72c-.18-.61-.32-1.24-.44-1.86-.07-.36-.13-.71-.18-1.06.14.94-.07-.65-.09-.81a41.38,41.38,0,0,1-.19-5c0-.84.06-1.68.13-2.52,0,0,.15-1.4,0-.54.05-.39.12-.78.18-1.17A20.32,20.32,0,0,1,112,107c.09-.33.2-.65.32-1-.34.93,0,0,.12-.18a6.47,6.47,0,0,1,.45-.75c-.58.88-.15.23,0,0-.71.71-.36.27,0,.08-.62.24-.73.3-.32.16-.7.08-.82.1-.37.07,5.27-.26,5.21-8.45-.07-8.19Z" style="fill:#fff"/><path d="M169.09,113.71c-5.83-2-11.58,14.77-11.14,20.62,1.73,25.85,24.39-2.23,13.79-16.45" style="fill:#fff"/><path d="M170.42,109.84c-7.67-2.3-12.11,6.9-14.23,12.64-2.49,6.73-3.26,13.88-.52,20.67,1,2.46,3.17,5,5.89,5.54,3.1.64,5.7-.3,8.21-2.13,4.92-3.59,7.52-10.1,8.56-15.87a20.25,20.25,0,0,0-3.49-15.49c-1.31-1.81-4.2-1.79-5.78-.42a4.17,4.17,0,0,0-.43,5.77c.71,1-.38-.67.24.35.18.3.34.62.51.94s.29.65.42,1c.44,1.08-.21-.76.12.35a16.06,16.06,0,0,1,.44,2.06c0,.35.09.71.12,1.06-.09-.94,0,.23,0,.35a18.87,18.87,0,0,1-.11,2.13c0,.36-.09.71-.14,1.07,0,.14-.26,1.3-.05.32a24,24,0,0,1-1.41,4.35c-.13.31-.28.62-.42.93.44-.94,0,.07-.13.22-.31.57-.65,1.13-1,1.67s-.72,1-1.1,1.49c-.14.17-.83.91-.07.09-.19.21-.39.4-.59.6a11.8,11.8,0,0,1-1.22,1c1-.74-.22.09-.55.24-.75.34,1-.27.18-.05a4.25,4.25,0,0,1-.6.12c1.17-.18.65,0,.28,0-.69,0,1.13.34.13,0-.73-.24.95.55.27.15-.25-.15-.81-.67.12.18a4.69,4.69,0,0,1-.48-.52c-.57-.68.48.82,0,0a10.17,10.17,0,0,1-.76-1.68c.33.88-.06-.29-.08-.4-.11-.39-.19-.79-.27-1.18a15.37,15.37,0,0,1-.41-4.09c0-.64.11-1.28.2-1.91l.18-1.06c-.17.93.16-.63.2-.79a41.56,41.56,0,0,1,1.47-4.76c.29-.79.62-1.56,1-2.33,0,0,.61-1.27.22-.5.18-.35.37-.7.57-1A18.75,18.75,0,0,1,167,119a9.77,9.77,0,0,1,.63-.81c-.63.76,0,0,.16-.13a7.11,7.11,0,0,1,.68-.55c-.84.63-.22.16,0,0-.91.43-.43.13-.06.06-.67,0-.79,0-.36.05-.68-.17-.8-.19-.37-.06,5.05,1.51,7.72-6.23,2.66-7.75Z" style="fill:#fff"/><path d="M136.83,103.65c7,3.93,14.85,4.07,22.47,5.38,4.09.7,5-6.3.87-7-7.06-1.21-14.31-1.23-20.82-4.87-1.56-.87-3.55.18-4.21,1.86a3.75,3.75,0,0,0,1.69,4.64Z" style="fill:#fff"/><path d="M143.47,102.93c-3.8,10-3.63,21.13-5.59,31.65l5.76-1.63c-2.6-3.73-6.15-7.38-7.18-12.12-.4-1.87-1.7-3.33-3.58-3.06a3.49,3.49,0,0,0-2.78,4c1.34,6.18,5,10.53,8.39,15.44,1.79,2.58,5.2,1.36,5.75-1.63,1.83-9.86,1.57-20.41,5.13-29.82,1.59-4.21-4.31-7-5.9-2.78Z" style="fill:#fff"/><path d="M104,213.23a3.6,3.6,0,0,1,2.73-.29c2.48.39,4.87,1,7.39,1.2a142.72,142.72,0,0,0,17.18-.06c1.81-.1,3.62-.23,5.43-.36s3.49-.8,5.28-.93a2.34,2.34,0,0,1,2.59,2.64c-.15,4.27-5.8,6.55-9,8-7.29,3.3-14.95,3.11-22.37.34a18.65,18.65,0,0,1-6.69-3.95c-1.26-1.24-3-3.32-3.06-5.17A1.71,1.71,0,0,1,104,213.23Z" style="fill:#fff"/><path d="M139.36,218.88c-15.1-.14-29.74-.37-29.74-.37s.19,2.13.33,3.84a24.35,24.35,0,0,0,3.22,1.44c7.42,2.77,15.08,3,22.37-.34,1.1-.5,2.47-1.09,3.82-1.82Z" style="fill:#fff"/><path d="M108.5,218.17s11.36,4.07,32.13.5l1.11-5.85c-1.7.17-3.34.78-5,.9s-3.62.26-5.43.36a142.72,142.72,0,0,1-17.18.06,64.91,64.91,0,0,1-6.95-1.13C107.64,215,108.5,218.17,108.5,218.17Z" style="fill:#fff"/><path d="M178.2,252.32l2,3.34a82.12,82.12,0,0,0,3-117l-2,3.39a78.38,78.38,0,0,1-3,110.26Z" style="fill:#fff"/><path d="M67.85,255.66l2-3.34a78.38,78.38,0,0,1-3-110.26l-2-3.39a82.12,82.12,0,0,0,3,117Z" style="fill:#fff"/><rect y="12.88" width="248" height="351.04" rx="20" style="fill:#ab2424"/><rect y="7.88" width="248" height="351.04" rx="20" style="fill:#d02b27"/><path d="M237.5,330.93c0,10.48-8.2,19-18.31,19H28.81c-10.11,0-18.31-8.5-18.31-19V35.86c0-10.48,8.2-19,18.31-19H219.19c10.11,0,18.31,8.49,18.31,19Z" style="fill:none;stroke:#fff;stroke-miterlimit:10;stroke-width:5.66929px"/><path d="M144,158.85c-8.37,0-15.73-.16-20,6.45-4.25-6.61-11.62-6.45-20-6.45a24.14,24.14,0,0,0-3.11,48c.52.07,1.72,6.36,1.91,7.05.86,3,2.15,6.79,4.38,9.16,1.59,1.69,3.79,2.23,6,2.66a60.14,60.14,0,0,0,15.68.7c5.55-.38,10.67.3,13.21-5.33a100.06,100.06,0,0,0,5-14.24,24.14,24.14,0,0,0-3.11-48Zm-15.31,33.86a2.37,2.37,0,1,1,2.12,4.23c-1.25.64-5.47.31-5.67.21S127.42,193.35,128.68,192.71Zm-12.7,1a2.47,2.47,0,0,1,3.34-1c1.26.64,3.75,4.33,3.55,4.44s-4.42.43-5.67-.21A2.47,2.47,0,0,1,116,193.68Zm-16.21-4.41a3.61,3.61,0,1,1,3.61-3.61A3.61,3.61,0,0,1,99.77,189.27Zm39.11,25.32,0,0-1,.49h0l-.45.21-.07,0-.44.2h0l-.44.19-.23.11-.21.09-.46.21c-7.29,3.3-14.95,3.11-22.37.35l-.84-.33c-.26-.1-.51-.21-.77-.33h0a16.93,16.93,0,0,1-5-3.29c-1.26-1.24-3-3.32-3.06-5.17a1.71,1.71,0,0,1,.56-1.44,3.6,3.6,0,0,1,2.73-.29l.44.07h0c1.37.24,2.71.54,4.07.77l.09,0,.72.11.22,0,.67.08.25,0,.92.08a142.72,142.72,0,0,0,17.18-.07c1.81-.1,3.62-.23,5.43-.36.22,0,.43,0,.65-.07h.11c1.43-.21,2.83-.67,4.26-.82h0l.25,0a2.34,2.34,0,0,1,2.59,2.64C144.47,211.13,141.66,213.15,138.88,214.59Zm9.35-25.32a3.61,3.61,0,1,1,3.61-3.61A3.61,3.61,0,0,1,148.23,189.27Z" style="fill:#d02b27"/><path d="M189.84,164.5a14.5,14.5,0,0,0-26.79-7.69,40.43,40.43,0,0,0-6.35-5.36c-4.58-2.75-11.24-3.42-17.85-3.42a7.72,7.72,0,0,0,.2-4.43c-1.12-4.87-7.49-10.29-12.54-10.11,2.44,4.31,2.62,10.48-2.43,13.29-1.12-2.06-3.74-2.25-6-2.06a4.72,4.72,0,0,1,1.66,3.66c-9.07-.5-20.69-1.08-27.6,3.07a41.44,41.44,0,0,0-6.88,5.9,14.5,14.5,0,1,0-17.62,20.76,13.22,13.22,0,0,0-1.32,3.65c.84-.57,2.25-.85,3.09-1.69a20.67,20.67,0,0,0-3.09,12.63,20.93,20.93,0,0,0,3.09-3.93c-1.12,3.93-2,8.14-1.12,12.07a16.37,16.37,0,0,0,3.08-4.21c.28,3.93-1.4,11.22,2.81,13.47a45.52,45.52,0,0,0,.84-5.61c1.12,2.24,2.25,4.77,4.21,5.89,0-.84.28-2,.28-2.81,2,2.25,3.93,4.78,6.74,5.62,1.68-3.93,9.82,2.24,11.5,4.77,2.81,3.64,1.69,8.7,4.49,12.06.56-.56,1.69-1.12,2-2,1.68,2.53,2.52,5.89,5.33,7.3a32,32,0,0,1,1.4-3.09c2.53,1.68,3.93,4.77,7.3,5.33,0-1.4.28-2.52-.28-3.65a49,49,0,0,1,5,3.09,16.77,16.77,0,0,1,2-4.83c.33,1.61.63,3.39.81,4.83a47.9,47.9,0,0,1,5-3.09c-.56,1.13-.28,2.25-.28,3.65,3.36-.56,4.77-3.65,7.29-5.33a31.86,31.86,0,0,1,1.41,3.09c2.8-1.41,3.65-4.77,5.33-7.3.28.84,1.4,1.4,2,2,2.81-3.36,1.69-8.42,4.49-12.06,1.69-2.53,9.82-8.7,11.51-4.77,2.8-.84,4.77-3.37,6.73-5.62,0,.85.28,2,.28,2.81,2-1.12,3.09-3.65,4.21-5.89a43.81,43.81,0,0,0,.85,5.61c4.21-2.25,2.52-9.54,2.8-13.47a16.4,16.4,0,0,0,3.09,4.21c.84-3.93,0-8.14-1.12-12.07a20.89,20.89,0,0,0,3.08,3.93,20.73,20.73,0,0,0-3.08-12.63c.84.84,2.24,1.12,3.08,1.69a13.36,13.36,0,0,0-1.46-3.93A14.52,14.52,0,0,0,189.84,164.5ZM147.1,206.88a100.06,100.06,0,0,1-5,14.24c-2.54,5.63-7.66,4.95-13.21,5.33a60.14,60.14,0,0,1-15.68-.7c-2.26-.43-4.46-1-6-2.66-2.23-2.37-3.52-6.15-4.38-9.16-.19-.69-1.39-7-1.91-7.05a24.14,24.14,0,0,1,3.11-48c8.37,0,15.74-.16,20,6.45,4.26-6.61,11.62-6.45,20-6.45a24.14,24.14,0,0,1,3.11,48Z" style="fill:#fff"/><path d="M148.23,182.05a3.61,3.61,0,1,0,3.61,3.61A3.61,3.61,0,0,0,148.23,182.05Z" style="fill:#fff"/><path d="M99.77,182.05a3.61,3.61,0,1,0,3.61,3.61A3.61,3.61,0,0,0,99.77,182.05Z" style="fill:#fff"/><path d="M130.8,196.94a2.37,2.37,0,1,0-2.12-4.23c-1.26.64-3.75,4.33-3.55,4.44S129.55,197.58,130.8,196.94Z" style="fill:#fff"/><path d="M117.2,196.94c1.25.64,5.47.31,5.67.21s-2.29-3.8-3.55-4.44a2.37,2.37,0,1,0-2.12,4.23Z" style="fill:#fff"/><path d="M80.29,266.91c2.92-7.55,6.46-15.37,11.58-21.7l-5.09-2.11c-.56,5.57.61,11.24,2.35,16.51.73,2.23,4.28,3.22,5.45.71,2.87-6.14,8-10.7,12.44-15.67l-5-1.32c2.1,10.41-1,21.26,2.8,31.43a3.05,3.05,0,0,0,3.67,2.09,3,3,0,0,0,2.09-3.67c-1.83-4.84-2-9.86-1.93-15,.07-5.53.22-11-.88-16.46a3,3,0,0,0-5-1.32c-4.76,5.33-10.3,10.3-13.37,16.88l5.45.71c-1.59-4.83-2.65-9.82-2.14-14.92.25-2.51-3.5-4.08-5.09-2.11-5.81,7.19-9.8,15.75-13.11,24.33A3,3,0,0,0,76.62,269a3.05,3.05,0,0,0,3.67-2.08Z" style="fill:#fff"/><path d="M119.65,252.89c-4.49-3.37-5.61,11.23-3.93,14.59,9.54,21.33,18-20.76,4.49-15.15" style="fill:#fff"/><path d="M121.15,250.31a4.67,4.67,0,0,0-6.3.79,12.71,12.71,0,0,0-2.45,6.31,29.57,29.57,0,0,0-.3,7.28,15.61,15.61,0,0,0,2,6.25c1.74,3.2,4.49,6.1,8.41,5.46,3.11-.51,4.87-3.9,5.94-6.5a24.88,24.88,0,0,0,1.28-14.2c-1-4.89-5.31-8.27-10.31-6.25a3.05,3.05,0,0,0-2.09,3.67c.4,1.43,2.16,2.7,3.67,2.09a7.11,7.11,0,0,1,1-.34l.46-.1c.58-.12-.78.08-.21,0,.31,0,1.28.11.14-.06.33,0,1.23.45.23,0,.26.12,1,.66.1,0a4.35,4.35,0,0,1,.53.52c.35.4-.46-.63-.15-.19a3.78,3.78,0,0,1,.22.33c.14.24.6,1.3.19.3a10.71,10.71,0,0,1,.52,1.78c0,.24.22,1.41.09.36.05.41.08.82.11,1.22,0,.74,0,1.47,0,2.2,0,.38,0,.75-.08,1.13,0,.19,0,.37,0,.56-.09.87.06-.4,0,.15a24.27,24.27,0,0,1-1.08,4.45c-.08.23-.53,1.34-.13.39-.13.3-.26.59-.41.87s-.28.54-.44.8-.87,1.18-.18.31a5.57,5.57,0,0,1-.52.57c-.61.6.5-.32,0,0l-.29.17c-.42.23.77-.3.33-.14-.85.32.52,0,0,.05-.82,0,.69.17,0,0s.72.4,0,0l-.33-.21c-.46-.31.58.48.15.11a7,7,0,0,1-.81-.83c-.19-.24-.15-.19.12.16-.12-.16-.24-.33-.35-.5-.26-.37-.49-.76-.71-1.15s-.5-.92-.72-1.38c-.13-.26-.25-.52-.37-.78.4.88.15.36.08.14a8.65,8.65,0,0,1-.23-.91c0-.15-.13-.87,0-.06,0-.23,0-.47-.07-.7a24.12,24.12,0,0,1-.06-3.18c0-.47,0-.94.09-1.4,0-.28.05-.56.08-.84.11-.92-.09.59,0-.31a16.71,16.71,0,0,1,.72-3c.12-.32.1-.28-.06.1.08-.19.18-.37.27-.55s.19-.31.3-.47c-.46.67-.21.27,0,.11-.58.56.07.07-.71.39.5-.2-.8,0-.25,0-.8,0-.13.08-.77-.2a3,3,0,0,1,.48.3,3,3,0,0,0,4.08-1.07,3,3,0,0,0-1.07-4.09Z" style="fill:#fff"/><path d="M133.12,250.29c7.31.49,14-2.27,21-4,3.72-.95,2.14-6.71-1.59-5.76-6.44,1.64-12.65,4.27-19.41,3.83a3,3,0,0,0-3,3,3,3,0,0,0,3,3Z" style="fill:#fff"/><path d="M138.55,247.31c.08,9.19,3.91,17.73,5.72,26.61l4.39-3.37c-3.46-1.95-7.72-3.48-10.16-6.79a3,3,0,0,0-4.08-1.07c-1.29.76-2,2.78-1.07,4.08,3.19,4.32,7.75,6.37,12.29,8.93a3,3,0,0,0,4.39-3.37c-1.71-8.33-5.44-16.42-5.51-25,0-3.85-6-3.85-6,0Z" style="fill:#fff"/><path d="M162.94,246.79c-4.49,0-4.49,12.91-2.8,16.84,7.29,17.4,16.27-7.3,5.61-14.59" style="fill:#fff"/><path d="M162.94,243.81c-5.82.23-6.71,7.61-6.82,12.07-.12,5.22,1,10.33,4.53,14.36a6.53,6.53,0,0,0,5.36,2.43,7.25,7.25,0,0,0,5.16-3.41c2.54-3.63,2.79-8.73,2.15-12.95a14.75,14.75,0,0,0-6.06-9.85,3,3,0,0,0-4.09,1.07,3,3,0,0,0,1.07,4.08c.72.51-.42-.37.24.18.2.17.39.36.58.54s.35.37.52.57c.56.63-.32-.48.17.21a13.54,13.54,0,0,1,.79,1.32c.12.23.22.46.33.7-.28-.63,0,.16.07.25.17.49.31,1,.43,1.49.06.25.1.51.15.77,0,.1.13.95,0,.23a16.84,16.84,0,0,1,.06,3.33c0,.25,0,.5-.07.74.08-.75,0,.06,0,.18a13.23,13.23,0,0,1-.3,1.39,11.38,11.38,0,0,1-.41,1.29c-.05.15-.35.82,0,.08-.08.18-.18.37-.27.55a8.72,8.72,0,0,1-.6,1c.52-.75-.13.12-.32.3-.44.42.58-.41.11-.08a2.5,2.5,0,0,1-.39.23c.77-.4.44-.18.18-.1-.48.14.86,0,.1,0-.56,0,.79.16.22,0-.21,0-.72-.27.12.1a5.05,5.05,0,0,1-.45-.25c-.55-.33.53.46,0,0a7.12,7.12,0,0,1-.92-1c.43.53-.11-.18-.16-.25-.16-.25-.31-.5-.46-.76a10.8,10.8,0,0,1-1.24-2.72,12.23,12.23,0,0,1-.32-1.36c0-.25-.09-.51-.12-.77.1.68,0-.47-.06-.59a31.44,31.44,0,0,1-.1-3.63c0-.61.05-1.22.11-1.83,0,0,.12-1,0-.39,0-.29.09-.57.14-.86.1-.53.24-1.06.39-1.58.07-.24.16-.47.25-.71-.26.68,0,0,.08-.12s.22-.37.33-.54c-.42.63-.11.16,0,0-.52.52-.26.19,0,.06-.45.17-.53.21-.23.12-.51.05-.6.06-.27,0,3.84-.14,3.85-6.11,0-6Z" style="fill:#fff"/><path d="M73.7,112.36c0-.56-1-1.68,0-1.68,4.36,6.73,7.76,17.4,9.7,23" style="fill:#fff"/><path d="M69.34,109.56c6.79-6.18,18.9-9.55,26.17,0,8.24,11.78-4.84,24.13-13.08,30.3" style="fill:#fff"/><path d="M112.2,94.29c-6.17.06-6,17.79-3.64,23.16,10.25,23.79,22.25-10.23,7.52-20.11" style="fill:#fff"/><path d="M112.16,90.2c-8,.39-9.12,10.54-9.21,16.66-.1,7.17,1.55,14.17,6.4,19.66,1.77,2,4.65,3.64,7.4,3.26,3.13-.43,5.28-2.18,7-4.74,3.44-5,3.72-12,2.78-17.82a20.2,20.2,0,0,0-8.45-13.44c-1.84-1.27-4.55-.29-5.59,1.53A4.18,4.18,0,0,0,114,100.9c1,.68-.58-.51.34.24.27.23.53.48.79.73a10.57,10.57,0,0,1,.73.77c.77.87-.45-.64.23.29a15.74,15.74,0,0,1,1.1,1.8c.17.31.31.64.46,1-.39-.86.06.22.1.34a17.91,17.91,0,0,1,.61,2c.09.34.15.69.22,1,0,.14.19,1.32.06.32a24.09,24.09,0,0,1,.13,4.57c0,.34-.06.69-.09,1,.1-1,0,.07,0,.24-.1.65-.24,1.28-.4,1.92s-.34,1.19-.54,1.77c-.07.2-.48,1.13,0,.1-.11.26-.24.51-.36.76a13,13,0,0,1-.81,1.35c.71-1-.18.17-.44.42-.6.57.8-.58.15-.11a5.64,5.64,0,0,1-.53.31c1.05-.56.6-.25.25-.14-.66.2,1.18,0,.13,0-.77,0,1.08.2.3,0-.29-.06-1-.36.17.13-.21-.09-.41-.22-.62-.33-.76-.46.73.61,0,0a9.46,9.46,0,0,1-1.28-1.33c.6.72-.15-.26-.21-.35-.24-.33-.44-.68-.65-1a15.44,15.44,0,0,1-1.75-3.72c-.18-.61-.32-1.24-.44-1.86-.07-.36-.13-.71-.18-1.06.14.94-.07-.65-.09-.81a41.38,41.38,0,0,1-.19-5c0-.84.06-1.68.13-2.52,0,0,.15-1.4,0-.54.05-.39.12-.78.18-1.17A20.32,20.32,0,0,1,112,100c.09-.33.2-.65.32-1-.34.93,0,0,.12-.18a6.47,6.47,0,0,1,.45-.75c-.58.88-.15.23,0,0-.71.71-.36.27,0,.08-.62.24-.73.3-.32.16-.7.08-.82.1-.37.07,5.27-.26,5.21-8.45-.07-8.19Z" style="fill:#fff"/><path d="M169.09,106.71c-5.83-2-11.58,14.77-11.14,20.62,1.73,25.85,24.39-2.23,13.79-16.45" style="fill:#fff"/><path d="M170.42,102.84c-7.67-2.3-12.11,6.9-14.23,12.64-2.49,6.73-3.26,13.88-.52,20.67,1,2.46,3.17,5,5.89,5.54,3.1.64,5.7-.3,8.21-2.13,4.92-3.59,7.52-10.1,8.56-15.87a20.25,20.25,0,0,0-3.49-15.49c-1.31-1.81-4.2-1.79-5.78-.42a4.17,4.17,0,0,0-.43,5.77c.71,1-.38-.67.24.35.18.3.34.62.51.94s.29.65.42,1c.44,1.08-.21-.76.12.35a16.06,16.06,0,0,1,.44,2.06c0,.35.09.71.12,1.06-.09-.94,0,.23,0,.35a18.87,18.87,0,0,1-.11,2.13c0,.36-.09.71-.14,1.07,0,.14-.26,1.3-.05.32a24,24,0,0,1-1.41,4.35c-.13.31-.28.62-.42.93.44-.94,0,.07-.13.22-.31.57-.65,1.13-1,1.67s-.72,1-1.1,1.49c-.14.17-.83.91-.07.09-.19.21-.39.4-.59.6a11.8,11.8,0,0,1-1.22,1c1-.74-.22.09-.55.24-.75.34,1-.27.18-.05a4.25,4.25,0,0,1-.6.12c1.17-.18.65,0,.28,0-.69,0,1.13.34.13,0-.73-.24.95.55.27.15-.25-.15-.81-.67.12.18a4.69,4.69,0,0,1-.48-.52c-.57-.68.48.82,0,0a10.17,10.17,0,0,1-.76-1.68c.33.88-.06-.29-.08-.4-.11-.39-.19-.79-.27-1.18a15.37,15.37,0,0,1-.41-4.09c0-.64.11-1.28.2-1.91l.18-1.06c-.17.93.16-.63.2-.79a41.56,41.56,0,0,1,1.47-4.76c.29-.79.62-1.56,1-2.33,0,0,.61-1.27.22-.5.18-.35.37-.7.57-1A18.75,18.75,0,0,1,167,112a9.77,9.77,0,0,1,.63-.81c-.63.76,0,0,.16-.13a7.11,7.11,0,0,1,.68-.55c-.84.63-.22.16,0,0-.91.43-.43.13-.06.06-.67,0-.79,0-.36.05-.68-.17-.8-.19-.37-.06,5.05,1.51,7.72-6.23,2.66-7.75Z" style="fill:#fff"/><path d="M136.83,96.65c7,3.93,14.85,4.07,22.47,5.38,4.09.7,5-6.3.87-7-7.06-1.21-14.31-1.23-20.82-4.87-1.56-.87-3.55.18-4.21,1.86a3.75,3.75,0,0,0,1.69,4.64Z" style="fill:#fff"/><path d="M143.47,95.93c-3.8,10-3.63,21.13-5.59,31.65l5.76-1.63c-2.6-3.73-6.15-7.38-7.18-12.12-.4-1.87-1.7-3.33-3.58-3.06a3.49,3.49,0,0,0-2.78,4c1.34,6.18,5,10.53,8.39,15.44,1.79,2.58,5.2,1.36,5.75-1.63,1.83-9.86,1.57-20.41,5.13-29.82,1.59-4.21-4.31-7-5.9-2.78Z" style="fill:#fff"/><path d="M104,206.23a3.6,3.6,0,0,1,2.73-.29c2.48.39,4.87,1,7.39,1.2a142.72,142.72,0,0,0,17.18-.06c1.81-.1,3.62-.23,5.43-.36s3.49-.8,5.28-.93a2.34,2.34,0,0,1,2.59,2.64c-.15,4.27-5.8,6.55-9,8-7.29,3.3-14.95,3.11-22.37.34a18.65,18.65,0,0,1-6.69-3.95c-1.26-1.24-3-3.32-3.06-5.17A1.71,1.71,0,0,1,104,206.23Z" style="fill:#fff"/><path d="M139.36,211.88c-15.1-.14-29.74-.37-29.74-.37s.19,2.13.33,3.84a24.35,24.35,0,0,0,3.22,1.44c7.42,2.77,15.08,3,22.37-.34,1.1-.5,2.47-1.09,3.82-1.82Z" style="fill:#fff"/><path d="M108.5,211.17s11.36,4.07,32.13.5l1.11-5.85c-1.7.17-3.34.78-5,.9s-3.62.26-5.43.36a142.72,142.72,0,0,1-17.18.06,64.91,64.91,0,0,1-6.95-1.13C107.64,208,108.5,211.17,108.5,211.17Z" style="fill:#fff"/><path d="M178.2,245.32l2,3.34a82.12,82.12,0,0,0,3-117l-2,3.39a78.38,78.38,0,0,1-3,110.26Z" style="fill:#fff"/><path d="M67.85,248.66l2-3.34a78.38,78.38,0,0,1-3-110.26l-2-3.39a82.12,82.12,0,0,0,3,117Z" style="fill:#fff"/><rect y="5" width="248" height="351.04" rx="20" style="fill:#ab2424"/><rect width="248" height="351.03" rx="20" style="fill:#d02b27"/><path d="M237.5,323.05c0,10.48-8.2,19-18.31,19H28.81c-10.11,0-18.31-8.5-18.31-19V28c0-10.48,8.2-19,18.31-19H219.19C229.3,9,237.5,17.5,237.5,28Z" style="fill:none;stroke:#fff;stroke-miterlimit:10;stroke-width:5.66929px"/><path d="M179.29,234.49l2,3.41a83.8,83.8,0,0,0,3-119.36l-2,3.46a80,80,0,0,1-3,112.49Z" style="fill:#fff"/><path d="M180.81,241.12l-4.08-7,1.16-1.11a77.93,77.93,0,0,0,2.93-109.63l-1-1.1,4.14-7.08,1.86,1.92a85.78,85.78,0,0,1-3.11,122.25Z" style="fill:#fff"/><path d="M66.71,237.9l2-3.41A80,80,0,0,1,65.7,122l-2-3.46a83.81,83.81,0,0,0,3,119.36Z" style="fill:#fff"/><path d="M67.18,241.12l-1.85-1.74a85.83,85.83,0,0,1-3.11-122.25l1.86-1.92,4.13,7.08-1,1.1A77.91,77.91,0,0,0,70.11,233l1.15,1.11Z" style="fill:#fff"/><path d="M173.61,186a17.85,17.85,0,0,0-5.36-8.7A45.58,45.58,0,0,0,135.64,138a8,8,0,0,0-.58-5c-1.89-4-7.32-9.67-12.28-9.43,3.54,3.3,3.31,6.6.48,10.14-.48-2.12-4.25-1.89-6.14-2.36a7,7,0,0,1,2.34,5,45.56,45.56,0,0,0-41.95,41.81A17.19,17.19,0,0,0,72.9,186c1.41-.23,3.07-1.18,4.48-1.41-3.07,4-4,12.27-1.41,17A11.52,11.52,0,0,1,79.66,196c.25.76.52,1.51.81,2.26-.2,2.05-.67,4.06,0,6.18a24.12,24.12,0,0,0,4.72,8.73c.31-1.68.32-3.47.48-5.29a46.44,46.44,0,0,0,3.45,4.33A64.18,64.18,0,0,0,95.32,221a11.54,11.54,0,0,0-.17-3.16,45.43,45.43,0,0,0,4.37,3c2.45,2.35,5.27,4.3,7.83,4.66a2.72,2.72,0,0,0-.06-.95q2,.73,4.14,1.29a41.49,41.49,0,0,0,3.95,2.49,6.11,6.11,0,0,0-.62-1.76c1,.19,2.1.34,3.17.46a13.81,13.81,0,0,0,1.22.83,3.91,3.91,0,0,0,.11-.71c1.21.1,2.42.15,3.65.15,1.46,0,2.91-.07,4.34-.21a3.76,3.76,0,0,0,.11.77,13.37,13.37,0,0,0,1.34-.93c1.05-.13,2.1-.3,3.13-.51a6.48,6.48,0,0,0-.7,1.91,40.34,40.34,0,0,0,4.37-2.8c1.29-.37,2.56-.8,3.8-1.27a2.86,2.86,0,0,0-.14,1.24c3-.43,6.3-3,9-5.83,1.15-.77,2.27-1.59,3.34-2.46a12.21,12.21,0,0,0-.3,3.81c3.2-4,5.43-6.88,7.23-10.74.83-1,1.61-2.1,2.35-3.21.26,2.12.22,4.21.57,6.16a24.12,24.12,0,0,0,4.72-8.73c.83-2.69-.16-5.21-.1-7.85.12-.33.22-.65.33-1,2.21,1.42,3.34,3.49,4.25,6,2.6-4.72,1.66-13-1.41-17C170.54,184.85,172.2,185.8,173.61,186Z" style="fill:#fff"/><path d="M157.67,168a17,17,0,0,0-2.21-3.35,25.4,25.4,0,0,0-4.07-3.61,9.34,9.34,0,0,0-4.71-2.13,10.31,10.31,0,0,0-4.51,1.1c-1.52.64-3.08,1.21-4.59,1.87-5.72,2.49-11.8,6.16-18.31,5.24a17.69,17.69,0,0,1-4.49-1.38,24.23,24.23,0,0,0-4.53-1.75,22.82,22.82,0,0,0-5.66-.36,43.87,43.87,0,0,0-5.6.55,16.62,16.62,0,0,0-7.3,3,20.31,20.31,0,0,1-3.38,2.44,11.5,11.5,0,0,1-2,.83,22.06,22.06,0,0,0-2.48,9.63,30.27,30.27,0,0,0,.62,9.05,6.08,6.08,0,0,1,1.46-3,.3.3,0,0,1,.49.14c1.16,3.58.63,7.65,2.64,10.92a9.64,9.64,0,0,1,1.82-3.63.3.3,0,0,1,.49.14,29.52,29.52,0,0,0,2.14,6,10,10,0,0,0,4,4.07c-.07-1.61-.33-3.2-.35-4.82a.3.3,0,0,1,.58-.06c.86,3.74,2.21,7.69,5,10.44,0-.18,0-.35,0-.53a8.71,8.71,0,0,1-.81-2.94.3.3,0,0,1,.56-.14,9.32,9.32,0,0,1,.81,2.83,16.09,16.09,0,0,0,1,1.67,27.16,27.16,0,0,0,2.42,3.15c-.06-.83-.18-1.66-.31-2.48,0-.26.29-.54.49-.28.84,1.07,1.85,2.3,3.28,2.51a8.37,8.37,0,0,0,4.22-1c1.35-.59,2.64-1.3,3.94-2,2.55-1.39,5.21-2.74,8.16-3a9.73,9.73,0,0,1,7.81,2.7c.88.91,1.78,2.14,3.08,2.4a3.27,3.27,0,0,1,1.35.41,2,2,0,0,1,.59.72,21.16,21.16,0,0,0,2.47-5,.31.31,0,0,1,.44-.17,4.14,4.14,0,0,1,1.74,2.53,11.58,11.58,0,0,0,3-5.54.29.29,0,0,1,.43-.17,5.35,5.35,0,0,1,1.79,3.13,11.1,11.1,0,0,0,2.8-3.52c.75-1.38,1.62-3.34.84-4.88-.17-.34.35-.63.52-.29.44.9.79,1.83,1.2,2.74a28.85,28.85,0,0,0,2.64-4.89,11.55,11.55,0,0,0,1.1-5.77.3.3,0,0,1,.5-.28c.63.66,1.08,1.46,1.66,2.15a11.48,11.48,0,0,0,1-5.15c-.08-1.75-.41-3.48-.65-5.22a.3.3,0,0,1,.21-.36,1.11,1.11,0,0,0,.29-.14c1.12-.68,1-2.4.83-3.51a24,24,0,0,0-1.7-5.62A50.35,50.35,0,0,0,157.67,168Z" style="fill:#fff"/><path d="M161.72,171.64a21.11,21.11,0,0,0-38.81-11.51,21.11,21.11,0,1,0-20.45,32.45l3.89,20.94a2.13,2.13,0,0,0,2.11,2.15h28.91a2.12,2.12,0,0,0,2.1-2.15l3.89-20.94A21.12,21.12,0,0,0,161.72,171.64Z" style="fill:#d02b27"/><path d="M138.38,186.9c-1.78-3-7.75-5.21-14.85-5.21s-13.08,2.21-14.85,5.21a5.66,5.66,0,0,0-1.32,3.57c0,3.68,3.78,6.67,8.44,6.67,3.45,0,6.43-1.65,7.73-4,1.3,2.36,4.27,4,7.73,4,4.65,0,8.43-3,8.43-6.67A5.71,5.71,0,0,0,138.38,186.9Z" style="fill:#fff"/><path d="M136.81,192.41a3,3,0,1,1-3-3A3,3,0,0,1,136.81,192.41Z" style="fill:#d02b27"/><path d="M116.75,192.41a3,3,0,1,1-3-3A3,3,0,0,1,116.75,192.41Z" style="fill:#d02b27"/><path d="M98.65,192.74c.88-1.06,1.77-2.3,2.65-3.36a16,16,0,0,1-.18,3,8,8,0,0,0,1.42-1.95c.53,2.13-.89,4.07-1.42,6" style="fill:#fff"/><path d="M144,194.51a4,4,0,0,1-2.48-2.83,15.57,15.57,0,0,1,2.13.71,5.21,5.21,0,0,1-.71-2.83c1.24,1.06,2.12,2.83,3.54,3.54" style="fill:#fff"/><path d="M137.83,175.44c-.16.24.35.9,1.45,1.53a9.55,9.55,0,0,0,2.06.85,10.47,10.47,0,0,0,2.73.37,11.09,11.09,0,0,0,1.43-.09c.23,0,.45-.08.67-.12l.63-.15c.41-.11.79-.26,1.14-.39l.49-.23.43-.25a4.5,4.5,0,0,0,1.19-.92c.24-.27.34-.47.26-.6s-.3-.17-.65-.14-.79.16-1.36.25a18.05,18.05,0,0,1-4.22.49,17,17,0,0,1-2.33-.16c-.72-.11-1.37-.21-1.92-.33C138.71,175.34,138,175.18,137.83,175.44Z" style="fill:#fff"/><path d="M94.88,175.44c-.16.24.35.9,1.45,1.53a9.55,9.55,0,0,0,2.06.85,10.53,10.53,0,0,0,2.73.37,11.09,11.09,0,0,0,1.43-.09c.23,0,.45-.08.67-.12l.63-.15c.41-.11.79-.26,1.14-.39l.49-.23.44-.25a4.6,4.6,0,0,0,1.18-.92c.25-.27.34-.47.26-.6s-.3-.17-.65-.14-.79.16-1.35.25a18.15,18.15,0,0,1-4.23.49,17.06,17.06,0,0,1-2.33-.16c-.72-.11-1.37-.21-1.92-.33C95.76,175.34,95,175.18,94.88,175.44Z" style="fill:#fff"/><path d="M150.86,116.23c-.09-2.36.18-4.14,1.36-8.69s1.8-6.25,3-8.27c2.87-4.6,7.59-6,12.8-4.71s8.62,4.91,8.9,10.33c.09,2.36-.18,4.13-1.36,8.69s-1.8,6.24-3,8.26c-2.87,4.61-7.59,6.06-12.79,4.71S151.13,121.65,150.86,116.23Zm16,2.24c.65-1,1.18-2.57,2.22-6.58s1.31-5.59,1.25-6.82a5.1,5.1,0,0,0-9.36-2.42c-.64,1-1.18,2.56-2.21,6.57s-1.31,5.6-1.26,6.83a5.1,5.1,0,0,0,9.36,2.42Z" style="fill:#fff"/><path d="M125.34,115.22a2.88,2.88,0,0,1,3.25-2.57A4.41,4.41,0,0,1,131,114a5,5,0,0,0,2.64,1.16c2.52.29,4.34-1,4.79-4.9l2-17.49c.26-2.24,1.81-3.49,3.7-3.27s3.16,1.78,2.9,4l-1.95,17c-.9,7.81-5.37,11.47-12.37,10.66-2.83-.32-5.66-1.83-6.75-3.47A3.83,3.83,0,0,1,125.34,115.22Z" style="fill:#fff"/><path d="M100.44,115.13c-.92-2.17-1.3-3.93-1.82-8.61s-.54-6.48-.12-8.8c1-5.32,4.94-8.36,10.28-9s9.81,1.51,12,6.48c.92,2.17,1.3,3.92,1.82,8.6s.54,6.48.11,8.8c-1,5.32-4.93,8.36-10.27,9S102.63,120.09,100.44,115.13Zm15.74-3.6c.23-1.21.19-2.82-.27-6.93s-.77-5.7-1.26-6.83A5.1,5.1,0,0,0,105,98.84c-.23,1.21-.19,2.82.27,6.94s.77,5.69,1.26,6.82a5.1,5.1,0,0,0,9.61-1.07Z" style="fill:#fff"/><path d="M68.22,101.92a2.77,2.77,0,0,1,1.72-3.84l6.86-2.41c6.18-2.17,10.74-1.48,14,2.91,1.17,1.54,2.2,3.52,3.71,7.83s1.95,6.5,2,8.42c.2,5.47-2.92,8.86-9.1,11l-6.87,2.41a2.74,2.74,0,0,1-3.72-1.89ZM82.3,121.13l2.9-1c2.89-1,4.62-2.78,4.51-5.43a24,24,0,0,0-1.55-6A24.14,24.14,0,0,0,85.59,103c-1.57-2.15-4-2.43-6.92-1.42l-2.9,1a.25.25,0,0,0-.16.36L82,121A.25.25,0,0,0,82.3,121.13Z" style="fill:#fff"/><path d="M156.85,257c-1.22-2-1.84-3.71-3-8.27s-1.44-6.33-1.34-8.69c.29-5.42,3.72-9,8.93-10.3s9.93.13,12.78,4.74c1.22,2,1.84,3.71,3,8.27s1.44,6.34,1.34,8.7c-.29,5.42-3.72,9-8.93,10.3S159.71,261.59,156.85,257Zm15.09-5.75c.05-1.23-.21-2.81-1.24-6.83s-1.55-5.53-2.19-6.58a5.1,5.1,0,0,0-9.37,2.4c-.06,1.23.2,2.81,1.23,6.82s1.55,5.54,2.2,6.58a5.1,5.1,0,0,0,9.37-2.39Z" style="fill:#fff"/><path d="M132.22,263.21a2.88,2.88,0,0,1,2.36-3.41,4.3,4.3,0,0,1,2.67.56,4.94,4.94,0,0,0,2.87.33c2.49-.46,3.86-2.2,3.14-6.09l-3.21-17.31c-.41-2.22.71-3.86,2.58-4.21s3.54.78,4,3l3.13,16.85c1.43,7.73-1.77,12.53-8.7,13.82-2.8.52-5.95-.1-7.46-1.35A3.71,3.71,0,0,1,132.22,263.21Z" style="fill:#fff"/><path d="M107.83,259.51c-.66-2.27-.83-4.06-.79-8.76s.23-6.5.93-8.75c1.67-5.17,5.89-7.72,11.27-7.68s9.56,2.67,11.14,7.86c.66,2.27.83,4.06.79,8.76s-.24,6.5-.93,8.75c-1.67,5.17-5.9,7.72-11.27,7.68S109.41,264.7,107.83,259.51Zm16-1.71c.37-1.17.52-2.77.56-6.91s-.09-5.74-.44-6.92a5.09,5.09,0,0,0-9.67-.08c-.37,1.17-.52,2.77-.56,6.91s.09,5.74.44,6.92a5.09,5.09,0,0,0,9.67.08Z" style="fill:#fff"/><path d="M75.07,231.87c.59-2.48,2.37-3.7,4.52-3.19,1.93.46,2.73,1.81,3.18,4.43l2.82,16.53.17,0,9.8-13.55c1.53-2.15,2.85-3,4.78-2.54,2.16.51,3.15,2.39,2.57,4.86l-5.78,24.42c-.49,2.06-1.95,3-3.71,2.55s-2.67-1.89-2.18-3.95l3.56-15-.22,0-7.27,10.08c-1.44,2-2.34,2.44-3.83,2.09S81.39,257.4,81,255L79,242.7l-.21,0-3.56,15c-.49,2.06-2,3-3.67,2.56s-2.71-1.9-2.22-4Z" style="fill:#fff"/><path d="M116.67,202.69c-.16.25.35.91,1.45,1.54a9.55,9.55,0,0,0,2.06.85,10.62,10.62,0,0,0,4.16.28c.23,0,.45-.08.67-.12l.64-.15c.4-.11.78-.27,1.13-.4a3.12,3.12,0,0,0,.49-.23l.43-.24a4.72,4.72,0,0,0,1.19-.92c.24-.27.34-.48.26-.61s-.3-.16-.65-.13-.79.16-1.35.25a18.15,18.15,0,0,1-4.23.49,17.06,17.06,0,0,1-2.33-.16c-.71-.11-1.37-.22-1.92-.33C117.55,202.6,116.83,202.44,116.67,202.69Z" style="fill:#fff"/></svg>