<svg id="Capa_1" data-name="Capa 1" xmlns="http://www.w3.org/2000/svg" viewBox="0 0 1920 1080"><rect width="1920" height="1080" style="fill:#5ca244"/><path d="M277.26,887a9.06,9.06,0,0,0-10.85-6.81l-83.05,19A9.06,9.06,0,0,0,176.54,910l28.65,125.46a9,9,0,0,0,10.85,6.81l83-19a9.06,9.06,0,0,0,6.82-10.85Z" style="fill:#5ca244;stroke:#fff;stroke-miterlimit:10;stroke-width:10.629889862537386px"/><path d="M248.51,912.27a9,9,0,0,0-5.72-11.46L162,873.8a9.06,9.06,0,0,0-11.47,5.72l-40.8,122.05a9.06,9.06,0,0,0,5.73,11.46l80.79,27a9,9,0,0,0,11.46-5.72Z" style="fill:#5ca244;stroke:#fff;stroke-miterlimit:10;stroke-width:10.629889862537386px"/><path d="M207.78,911.91a9.05,9.05,0,0,0,0-12.81l-60.23-60.24a9.07,9.07,0,0,0-12.82,0l-91,91a9.07,9.07,0,0,0,0,12.82L104,1002.91a9.08,9.08,0,0,0,12.82,0Z" style="fill:#5ca244;stroke:#fff;stroke-miterlimit:10;stroke-width:10.629889862537386px"/><path d="M1772.49,838.08a9.07,9.07,0,0,0-12.5,2.86l-45.31,72.13a9.06,9.06,0,0,0,2.85,12.49l109,68.46a9.06,9.06,0,0,0,12.49-2.85L1884.3,919a9.06,9.06,0,0,0-2.85-12.5Z" style="fill:#5ca244;stroke:#fff;stroke-miterlimit:10;stroke-width:10.629889862537386px"/><path d="M1770,876.25a9.08,9.08,0,0,0-12.16-4.06l-76.22,38a9.07,9.07,0,0,0-4.07,12.16L1735,1037.53a9.06,9.06,0,0,0,12.15,4.06l76.23-38a9.08,9.08,0,0,0,4.06-12.16Z" style="fill:#5ca244;stroke:#fff;stroke-miterlimit:10;stroke-width:10.629889862537386px"/><rect x="1637.63" y="895.73" width="103.31" height="146.81" rx="9.06" style="fill:#5ca244;stroke:#fff;stroke-miterlimit:10;stroke-width:10.629889862537386px"/><path d="M277.26,197a9,9,0,0,1-10.85,6.81l-83.05-19A9.06,9.06,0,0,1,176.54,174L205.19,48.52A9,9,0,0,1,216,41.71l83,19a9.06,9.06,0,0,1,6.82,10.85Z" style="fill:#5ca244;stroke:#fff;stroke-miterlimit:10;stroke-width:10.629889862537386px"/><path d="M248.51,171.75a9,9,0,0,1-5.72,11.46l-80.79,27a9.06,9.06,0,0,1-11.47-5.72l-40.8-122A9.06,9.06,0,0,1,115.46,71l80.79-27a9,9,0,0,1,11.46,5.72Z" style="fill:#5ca244;stroke:#fff;stroke-miterlimit:10;stroke-width:10.629889862537386px"/><path d="M207.78,172.11a9.05,9.05,0,0,1,0,12.81l-60.23,60.24a9.07,9.07,0,0,1-12.82,0l-91-91a9.07,9.07,0,0,1,0-12.82L104,81.12a9.07,9.07,0,0,1,12.82,0Z" style="fill:#5ca244;stroke:#fff;stroke-miterlimit:10;stroke-width:10.629889862537386px"/><path d="M1772.49,245.94a9.07,9.07,0,0,1-12.5-2.86L1714.68,171a9.06,9.06,0,0,1,2.85-12.49L1826.5,90A9.07,9.07,0,0,1,1839,92.85L1884.3,165a9.06,9.06,0,0,1-2.85,12.5Z" style="fill:#5ca244;stroke:#fff;stroke-miterlimit:10;stroke-width:10.629889862537386px"/><path d="M1770,207.77a9.08,9.08,0,0,1-12.16,4.06l-76.22-38a9.07,9.07,0,0,1-4.07-12.16L1735,46.5a9.06,9.06,0,0,1,12.15-4.07l76.23,38a9.08,9.08,0,0,1,4.06,12.16Z" style="fill:#5ca244;stroke:#fff;stroke-miterlimit:10;stroke-width:10.629889862537386px"/><rect x="1637.63" y="41.48" width="103.31" height="146.81" rx="9.06" style="fill:#5ca244;stroke:#fff;stroke-miterlimit:10;stroke-width:10.629889862537386px"/><rect x="333.97" y="83.29" width="1272.13" height="10.63" style="fill:#fff"/><rect x="1771.42" y="258.48" width="10.63" height="572.31" style="fill:#fff"/><rect x="333.97" y="990.09" width="1272.13" height="10.63" style="fill:#fff"/><rect x="173.81" y="258.48" width="10.63" height="572.31" style="fill:#fff"/><path d="M1642.06,781.15a6.93,6.93,0,0,1-6.08,1.63h0c-1.84-.55-2.1-2.17-.58-3.62l8.77-8.42a6.9,6.9,0,0,1,6.07-1.63h0c1.84.55,2.1,2.17.59,3.62Z" style="fill:#508c40"/><path d="M1623.79,779.47c1.43,1.48,1.07,3.1-.8,3.61h0a6.72,6.72,0,0,1-6-1.73l-8.26-8.56c-1.43-1.48-1.07-3.09.8-3.61h0a6.68,6.68,0,0,1,6,1.74Z" style="fill:#508c40"/><path d="M1633,779.05c0,1.66-1.71,3-3.82,3h0c-2.1,0-3.81-1.35-3.81-3v-9.63c0-1.66,1.71-3,3.81-3h0c2.11,0,3.82,1.35,3.82,3Z" style="fill:#508c40"/><path d="M1237,848.65a7,7,0,0,1-6.08,1.64h0c-1.83-.55-2.1-2.18-.58-3.63l8.77-8.41a6.9,6.9,0,0,1,6.07-1.63h0c1.84.55,2.1,2.17.59,3.62Z" style="fill:#508c40"/><path d="M1218.75,847c1.43,1.48,1.07,3.09-.8,3.61h0a6.7,6.7,0,0,1-6-1.74l-8.26-8.55c-1.43-1.48-1.07-3.1.8-3.62h0a6.71,6.71,0,0,1,6,1.74Z" style="fill:#508c40"/><path d="M1228,846.56c0,1.66-1.71,3-3.82,3h0c-2.1,0-3.81-1.35-3.81-3v-9.63c0-1.67,1.71-3,3.81-3h0c2.11,0,3.82,1.34,3.82,3Z" style="fill:#508c40"/><path d="M1207,811.15a6.9,6.9,0,0,1-6.07,1.63h0c-1.84-.55-2.1-2.17-.59-3.62l8.78-8.41a6.91,6.91,0,0,1,6.07-1.64h0c1.84.55,2.1,2.17.59,3.63Z" style="fill:#508c40"/><path d="M1188.75,809.48c1.42,1.47,1.06,3.09-.81,3.61h0a6.72,6.72,0,0,1-6-1.74l-8.27-8.56c-1.42-1.47-1.06-3.09.81-3.61h0a6.69,6.69,0,0,1,6,1.74Z" style="fill:#508c40"/><path d="M1198,809.05c0,1.67-1.71,3-3.82,3h0c-2.1,0-3.81-1.35-3.81-3v-9.63c0-1.66,1.71-3,3.81-3h0c2.11,0,3.82,1.35,3.82,3Z" style="fill:#508c40"/><path d="M830.48,631.13a6.92,6.92,0,0,1-6.07,1.63h0c-1.84-.54-2.11-2.17-.59-3.62l8.77-8.41a6.91,6.91,0,0,1,6.07-1.63h0c1.84.55,2.11,2.17.59,3.62Z" style="fill:#508c40"/><path d="M812.21,629.46c1.43,1.47,1.07,3.09-.8,3.61h0a6.68,6.68,0,0,1-6-1.74l-8.27-8.55c-1.43-1.48-1.07-3.1.8-3.62h0a6.71,6.71,0,0,1,6,1.74Z" style="fill:#508c40"/><path d="M821.43,629c0,1.66-1.71,3-3.81,3h0c-2.11,0-3.82-1.35-3.82-3V619.4c0-1.66,1.71-3,3.82-3h0c2.1,0,3.81,1.35,3.81,3Z" style="fill:#508c40"/><path d="M1427.53,451.11a6.91,6.91,0,0,1-6.07,1.64h0c-1.84-.55-2.1-2.17-.59-3.63l8.78-8.41a6.9,6.9,0,0,1,6.07-1.63h0c1.84.55,2.1,2.17.59,3.62Z" style="fill:#508c40"/><path d="M1409.27,449.44c1.42,1.48,1.06,3.09-.81,3.61h0a6.69,6.69,0,0,1-6-1.74l-8.26-8.55c-1.43-1.48-1.07-3.1.8-3.61h0a6.7,6.7,0,0,1,6,1.73Z" style="fill:#508c40"/><path d="M1418.49,449c0,1.66-1.71,3-3.82,3h0c-2.1,0-3.81-1.35-3.81-3v-9.63c0-1.67,1.71-3,3.81-3h0c2.11,0,3.82,1.34,3.82,3Z" style="fill:#508c40"/><path d="M1600.05,270.35A6.9,6.9,0,0,1,1594,272h0c-1.84-.55-2.1-2.17-.59-3.62l8.77-8.42a6.93,6.93,0,0,1,6.08-1.63h0c1.84.55,2.1,2.17.59,3.62Z" style="fill:#508c40"/><path d="M1581.79,268.67c1.42,1.48,1.06,3.1-.81,3.61h0a6.71,6.71,0,0,1-6-1.73l-8.27-8.56c-1.42-1.48-1.06-3.09.81-3.61h0a6.69,6.69,0,0,1,6,1.74Z" style="fill:#508c40"/><path d="M1591,268.25c0,1.67-1.7,3-3.81,3h0c-2.11,0-3.81-1.34-3.81-3v-9.63c0-1.66,1.7-3,3.81-3h0c2.11,0,3.81,1.35,3.81,3Z" style="fill:#508c40"/><path d="M1195,187.84a6.9,6.9,0,0,1-6.07,1.63h0c-1.84-.55-2.1-2.17-.59-3.62l8.78-8.41a6.88,6.88,0,0,1,6.07-1.64h0c1.84.55,2.1,2.17.59,3.63Z" style="fill:#508c40"/><path d="M1176.75,186.16c1.42,1.48,1.06,3.1-.81,3.62h0a6.72,6.72,0,0,1-6-1.74l-8.27-8.56c-1.42-1.47-1.06-3.09.81-3.61h0a6.69,6.69,0,0,1,6,1.74Z" style="fill:#508c40"/><path d="M1186,185.74c0,1.67-1.7,3-3.81,3h0c-2.11,0-3.81-1.34-3.81-3v-9.63c0-1.66,1.7-3,3.81-3h0c2.11,0,3.81,1.35,3.81,3Z" style="fill:#508c40"/><path d="M977.49,322.85a6.9,6.9,0,0,1-6.07,1.63h0c-1.84-.54-2.1-2.17-.59-3.62l8.77-8.41a6.93,6.93,0,0,1,6.08-1.63h0c1.84.55,2.1,2.17.59,3.62Z" style="fill:#508c40"/><path d="M959.23,321.18c1.42,1.47,1.06,3.09-.81,3.61h0a6.69,6.69,0,0,1-6-1.74l-8.27-8.55c-1.42-1.48-1.06-3.1.81-3.62h0a6.72,6.72,0,0,1,6,1.74Z" style="fill:#508c40"/><path d="M968.44,320.76c0,1.66-1.71,3-3.81,3h0c-2.11,0-3.82-1.35-3.82-3v-9.64c0-1.66,1.71-3,3.82-3h0c2.1,0,3.81,1.35,3.81,3Z" style="fill:#508c40"/><path d="M962.49,345.35a6.91,6.91,0,0,1-6.07,1.64h0c-1.84-.55-2.11-2.17-.59-3.63L964.6,335a6.93,6.93,0,0,1,6.08-1.63h0c1.83.55,2.1,2.17.58,3.62Z" style="fill:#508c40"/><path d="M944.22,343.68c1.43,1.48,1.07,3.09-.8,3.61h0a6.68,6.68,0,0,1-6-1.74L929.18,337c-1.43-1.48-1.07-3.1.81-3.61h0a6.71,6.71,0,0,1,6,1.73Z" style="fill:#508c40"/><path d="M953.44,343.26c0,1.66-1.71,3-3.81,3h0c-2.11,0-3.82-1.35-3.82-3v-9.63c0-1.67,1.71-3,3.82-3h0c2.1,0,3.81,1.34,3.81,3Z" style="fill:#508c40"/><path d="M677.46,390.36a6.9,6.9,0,0,1-6.07,1.63h0c-1.84-.55-2.1-2.17-.59-3.62l8.78-8.41a6.88,6.88,0,0,1,6.07-1.64h0c1.84.55,2.1,2.17.59,3.63Z" style="fill:#508c40"/><path d="M659.2,388.68c1.42,1.48,1.06,3.1-.81,3.62h0a6.72,6.72,0,0,1-6-1.74L644.15,382c-1.42-1.48-1.06-3.09.81-3.61h0a6.69,6.69,0,0,1,6,1.74Z" style="fill:#508c40"/><path d="M668.41,388.26c0,1.67-1.7,3-3.81,3h0c-2.11,0-3.81-1.34-3.81-3v-9.63c0-1.66,1.7-3,3.81-3h0c2.11,0,3.81,1.35,3.81,3Z" style="fill:#508c40"/><path d="M677.46,885.41a6.9,6.9,0,0,1-6.07,1.63h0c-1.84-.55-2.1-2.17-.59-3.62l8.78-8.42a6.9,6.9,0,0,1,6.07-1.63h0c1.84.55,2.1,2.17.59,3.62Z" style="fill:#508c40"/><path d="M659.2,883.73c1.42,1.48,1.06,3.1-.81,3.61h0a6.71,6.71,0,0,1-6-1.73l-8.27-8.56c-1.42-1.48-1.06-3.09.81-3.61h0a6.69,6.69,0,0,1,6,1.74Z" style="fill:#508c40"/><path d="M668.41,883.31c0,1.66-1.7,3-3.81,3h0c-2.11,0-3.81-1.35-3.81-3v-9.63c0-1.66,1.7-3,3.81-3h0c2.11,0,3.81,1.35,3.81,3Z" style="fill:#508c40"/><path d="M369.93,945.41a6.94,6.94,0,0,1-6.07,1.64h0c-1.84-.55-2.1-2.18-.59-3.63l8.78-8.41a6.9,6.9,0,0,1,6.07-1.63h0c1.84.55,2.1,2.17.59,3.62Z" style="fill:#508c40"/><path d="M351.67,943.74c1.42,1.47,1.06,3.09-.81,3.61h0a6.69,6.69,0,0,1-6-1.74l-8.27-8.55c-1.42-1.48-1.06-3.1.81-3.62h0a6.72,6.72,0,0,1,6,1.74Z" style="fill:#508c40"/><path d="M360.88,943.32c0,1.66-1.7,3-3.81,3h0c-2.11,0-3.81-1.35-3.81-3v-9.64c0-1.66,1.7-3,3.81-3h0c2.11,0,3.81,1.35,3.81,3Z" style="fill:#508c40"/><path d="M384.93,600.38a6.9,6.9,0,0,1-6.07,1.63h0c-1.84-.55-2.1-2.17-.59-3.62l8.78-8.41a6.88,6.88,0,0,1,6.07-1.64h0c1.84.55,2.1,2.17.59,3.63Z" style="fill:#508c40"/><path d="M366.67,598.7c1.42,1.48,1.06,3.1-.81,3.62h0a6.72,6.72,0,0,1-6-1.74L351.62,592c-1.42-1.48-1.06-3.09.81-3.61h0a6.69,6.69,0,0,1,6,1.74Z" style="fill:#508c40"/><path d="M375.89,598.28c0,1.67-1.71,3-3.82,3h0c-2.1,0-3.81-1.34-3.81-3v-9.63c0-1.66,1.71-3,3.81-3h0c2.11,0,3.82,1.35,3.82,3Z" style="fill:#508c40"/><path d="M332.43,517.87a6.91,6.91,0,0,1-6.07,1.63h0c-1.84-.55-2.11-2.17-.59-3.62l8.77-8.41a7,7,0,0,1,6.07-1.64h0c1.84.55,2.11,2.18.59,3.63Z" style="fill:#508c40"/><path d="M314.16,516.2c1.43,1.47,1.07,3.09-.8,3.61h0a6.68,6.68,0,0,1-6-1.74l-8.27-8.56c-1.43-1.47-1.07-3.09.8-3.61h0a6.7,6.7,0,0,1,6,1.74Z" style="fill:#508c40"/><path d="M323.38,515.78c0,1.66-1.71,3-3.81,3h0c-2.11,0-3.82-1.35-3.82-3v-9.64c0-1.66,1.71-3,3.82-3h0c2.1,0,3.81,1.35,3.81,3Z" style="fill:#508c40"/><path d="M399.94,210.34a6.93,6.93,0,0,1-6.08,1.63h0c-1.84-.55-2.1-2.17-.59-3.62l8.78-8.41a6.94,6.94,0,0,1,6.07-1.64h0c1.84.55,2.1,2.18.59,3.63Z" style="fill:#508c40"/><path d="M381.67,208.67c1.43,1.47,1.07,3.09-.81,3.61h0a6.69,6.69,0,0,1-6-1.74L366.63,202c-1.43-1.47-1.07-3.09.8-3.61h0a6.71,6.71,0,0,1,6,1.74Z" style="fill:#508c40"/><path d="M390.89,208.25c0,1.66-1.71,3-3.82,3h0c-2.1,0-3.81-1.35-3.81-3v-9.64c0-1.66,1.71-3,3.81-3h0c2.11,0,3.82,1.35,3.82,3Z" style="fill:#508c40"/></svg>